<svg xmlns="http://www.w3.org/2000/svg" width="148" height="247" viewBox="0 0 148 247">
    <defs>
        <style>
            .cls-1,.cls-14{fill:#fff}.cls-1{stroke:#707070}.cls-2{clip-path:url(#clip-path)}.cls-3{fill:#543646}.cls-4{fill:#de9e9a}.cls-5{fill:#a34277}.cls-6{fill:#443350}.cls-10,.cls-18,.cls-7{fill:none;stroke:#47313e}.cls-10,.cls-7{stroke-miterlimit:10}.cls-7{stroke-width:.531px}.cls-8{fill:#a6bbe6}.cls-9{fill:#bbcef4}.cls-10{stroke-width:.403px}.cls-11{fill:#38335d}.cls-12{fill:#282243}.cls-13{fill:#ebebeb}.cls-15{fill:#47313e}.cls-16{fill:#c42a64}.cls-17{fill:#ae215e}.cls-18{stroke-linecap:round;stroke-linejoin:round;stroke-width:.415px}
        </style>
        <clipPath id="clip-path">
            <path id="Rectangle_2056" d="M0 0h148v247H0z" class="cls-1" data-name="Rectangle 2056" transform="translate(251 6175)"/>
        </clipPath>
    </defs>
    <g id="Mask_Group_19" class="cls-2" data-name="Mask Group 19" transform="translate(-251 -6175)">
        <g id="Group_16043" data-name="Group 16043" transform="translate(262 6185.311)">
            <path id="Path_3528" d="M135.834 274.875s15.24 20.831 3.751 40.462h-36.544s-7.1-10.572 2.841-24.528c0 0 3.27-7.1 2.282-18.662s21.763-7.094 21.763-7.094z" class="cls-3" data-name="Path 3528" transform="translate(-74.874 -255.232)"/>
            <g id="Group_16024" data-name="Group 16024" transform="translate(10.938 102.881)">
                <g id="Group_16017" data-name="Group 16017" transform="translate(26.11)">
                    <g id="Group_16014" data-name="Group 16014" transform="translate(28.143 146.261)">
                        <path id="Path_3529" d="M92.4 415.779l4.147 32.347 12.036 1.658-.01-34.005z" class="cls-4" data-name="Path 3529" transform="translate(-91.812 -415.779)"/>
                        <g id="Group_16013" data-name="Group 16013" transform="translate(0 29.687)">
                            <path id="Path_3530" d="M81.013 434.515h23.646l-.124 7.491s11.939.7 11.472 14.983H80.689z" class="cls-5" data-name="Path 3530" transform="translate(-80.688 -434.515)"/>
                            <path id="Rectangle_2053" d="M0 0h36.095v4.117H0z" class="cls-6" data-name="Rectangle 2053" transform="translate(0 18.357)"/>
                            <path id="Path_3531" d="M96.767 439.317a14.9 14.9 0 0 0-8.83 1.233" class="cls-7" data-name="Path 3531" transform="translate(-72.92 -431.826)"/>
                        </g>
                    </g>
                    <g id="Group_16016" data-name="Group 16016">
                        <path id="Path_3532" d="M121.9 323.736s2.578 10.306 9.715 73.264c7.089 62.543 8.262 89.47 8.262 89.47h-28.656l-23.2-156.2 9.989-6.794z" class="cls-8" data-name="Path 3532" transform="translate(-88.022 -323.471)"/>
                        <g id="Group_16015" data-name="Group 16015" transform="translate(18.706 151.1)">
                            <path id="Path_3533" d="M122.549 433.418h-35.27l-1.613-14.586h35.271z" class="cls-9" data-name="Path 3533" transform="translate(-85.666 -418.833)"/>
                            <path id="Line_80" d="M0 0h29.865" class="cls-10" data-name="Line 80" transform="translate(2.725)"/>
                        </g>
                    </g>
                </g>
                <g id="Group_16023" data-name="Group 16023" transform="translate(0 .189)">
                    <g id="Group_16019" data-name="Group 16019" transform="translate(2.597 146.073)">
                        <path id="Path_3534" d="M120.611 415.779l-.692 32.347 12.036 1.658 4.829-34.005z" class="cls-4" data-name="Path 3534" transform="translate(-111.958 -415.779)"/>
                        <g id="Group_16018" data-name="Group 16018" transform="translate(0 29.687)">
                            <path id="Path_3535" d="M115.822 434.515h23.646l-1.737 7.491s11.939.7 11.472 14.983h-36.931z" class="cls-5" data-name="Path 3535" transform="translate(-112.271 -434.515)"/>
                            <path id="Rectangle_2054" d="M0 0h37.708v4.117H0z" class="cls-6" data-name="Rectangle 2054" transform="translate(0 18.357)"/>
                            <path id="Path_3536" d="M128.35 439.317a14.9 14.9 0 0 0-8.83 1.233" class="cls-7" data-name="Path 3536" transform="translate(-102.89 -431.826)"/>
                        </g>
                    </g>
                    <g id="Group_16022" data-name="Group 16022">
                        <g id="Group_16020" data-name="Group 16020" transform="translate(2.645)">
                            <path id="Path_3537" d="M122.631 323.977s-13.486 19.808-14.138 44.547c-.921 34.884-3.828 119.61-3.828 119.61l29.014-.808 19.937-163.736z" class="cls-8" data-name="Path 3537" transform="translate(-104.664 -323.59)"/>
                            <path id="Path_3538" d="M103.025 411.571l4.107-56.717 9.889-11.6" class="cls-10" data-name="Path 3538" transform="translate(-65.473 -312.099)"/>
                        </g>
                        <g id="Group_16021" data-name="Group 16021" transform="translate(0 150.911)">
                            <path id="Rectangle_2055" d="M0 0h36.439v14.586H0z" class="cls-9" data-name="Rectangle 2055"/>
                            <path id="Line_81" d="M0 0h30.113" class="cls-10" data-name="Line 81" transform="translate(3.108)"/>
                        </g>
                    </g>
                </g>
            </g>
            <g id="Group_16039" data-name="Group 16039" transform="translate(0 47.868)">
                <g id="Group_16030" data-name="Group 16030" transform="translate(54.805 2.805)">
                    <g id="Group_16025" data-name="Group 16025">
                        <path id="Path_3539" d="M95.376 302.84a10.292 10.292 0 0 1 20.072-4.536c1.012 4.029 1.767 11.128 2.492 18.683l-21.174.887z" class="cls-5" data-name="Path 3539" transform="translate(-95.173 -290.521)"/>
                        <path id="Path_3540" d="M92.912 308.1l21.174-.889c.96 10 1.868 20.8 3.251 26.369a11.079 11.079 0 0 1-8.951 13.6 11.081 11.081 0 0 1-12.668-8.754z" class="cls-4" data-name="Path 3540" transform="translate(-91.319 -280.765)"/>
                    </g>
                    <g id="Group_16029" data-name="Group 16029" transform="translate(5.894 41.519)">
                        <g id="Group_16027" data-name="Group 16027" transform="translate(0 6.654)">
                            <path id="Path_3541" d="M127.643 335.089l-47.61-13.869a9.23 9.23 0 0 0-11.345 7.046 9.229 9.229 0 0 0 7.718 11.025l47.4 6.4z" class="cls-4" data-name="Path 3541" transform="translate(-68.49 -320.924)"/>
                            <g id="Group_16026" data-name="Group 16026" transform="translate(48.62 7.863)">
                                <ellipse id="Ellipse_521" cx="9.483" cy="9.483" class="cls-4" data-name="Ellipse 521" rx="9.483" ry="9.483" transform="translate(0 1.609)"/>
                                <path id="Path_3542" d="M79.928 332.192s2.912-2.348-1.417-4.8-10.033-2.736-14.745 5.56z" class="cls-4" data-name="Path 3542" transform="translate(-62.869 -325.886)"/>
                            </g>
                        </g>
                        <g id="Group_16028" data-name="Group 16028" transform="translate(52.488)">
                            <path id="Path_3543" d="M68.685 317.111l10.093 2.863a.992.992 0 0 1 .62 1.347l-9.421 25.122a1.211 1.211 0 0 1-1.415.77l-10.093-2.862a.994.994 0 0 1-.62-1.348l9.421-25.121a1.21 1.21 0 0 1 1.415-.771z" class="cls-11" data-name="Path 3543" transform="translate(-55.828 -316.521)"/>
                            <path id="Path_3544" d="M69.913 316.763l10.093 2.862a.994.994 0 0 1 .62 1.348L71.2 346.094a1.21 1.21 0 0 1-1.415.772L59.7 344a.994.994 0 0 1-.62-1.348l9.42-25.118a1.211 1.211 0 0 1 1.413-.771z" class="cls-12" data-name="Path 3544" transform="translate(-59.002 -316.724)"/>
                            <path id="Path_3545" d="M68.37 318.345l8.869 2.515-7.679 20.474-8.869-2.515z" class="cls-13" data-name="Path 3545" transform="translate(-58.217 -315.777)"/>
                            <path id="Path_3546" d="M77.239 320.86l-16.548 17.958 7.678-20.474z" class="cls-14" data-name="Path 3546" transform="translate(-58.217 -315.777)"/>
                        </g>
                    </g>
                </g>
                <path id="Path_3547" d="M138.407 290.153l8.415 2.065c1.326.567 1.992 3.315 1.925 4.755l-2.217 47.056-37.37-2.765-9.794-32.79c-.068-2.594 5.994-19.253 8.58-19.453l18.677-.271z" class="cls-5" data-name="Path 3547" transform="translate(-77.824 -288.751)"/>
                <g id="Group_16032" data-name="Group 16032" transform="translate(28.29 .151)">
                    <path id="Path_3548" d="M140.773 339.124l1.951-14.289s-6.553-3.205-6.8-26.74l-27.738-.951s1.838 23.645-10.051 28.98l3.259 13.31z" class="cls-8" data-name="Path 3548" transform="translate(-98.136 -283.996)"/>
                    <path id="Path_3549" d="M120.263 303.071l-4.662-14.2 4.762-.028 3.957 14.225z" class="cls-8" data-name="Path 3549" transform="translate(-107.407 -288.846)"/>
                    <path id="Path_3550" d="M106.377 302.349l2.932-11.571-3.717-.912-2.978 14.277z" class="cls-8" data-name="Path 3550" transform="translate(-71.814 -288.25)"/>
                    <g id="Group_16031" data-name="Group 16031" transform="translate(13.761 14.84)">
                        <path id="Path_3551" d="M105.329 304.459H121.6v4.624c0 5.167-3.643 9.355-8.138 9.355-4.5 0-8.138-4.188-8.138-9.355z" class="cls-9" data-name="Path 3551" transform="translate(-102.176 -294.561)"/>
                        <path id="Path_3552" d="M118.368 299.264a1.053 1.053 0 1 1-1.054-1.052 1.053 1.053 0 0 1 1.054 1.052z" class="cls-15" data-name="Path 3552" transform="translate(-116.262 -298.212)"/>
                        <path id="Path_3553" d="M107.244 299.542a1.053 1.053 0 1 1-1.052-1.054 1.051 1.051 0 0 1 1.052 1.054z" class="cls-15" data-name="Path 3553" transform="translate(-87.512 -298.051)"/>
                    </g>
                </g>
                <g id="Group_16038" data-name="Group 16038" transform="translate(0 .27)">
                    <g id="Group_16033" data-name="Group 16033" transform="translate(21.625 37.773)">
                        <path id="Path_3554" d="M141.751 313.062l2.762 35.908-42.85 15.658-2.978-32.728z" class="cls-16" data-name="Path 3554" transform="translate(-94.13 -312.584)"/>
                        <path id="Path_3555" d="M144.625 312.761l2.762 35.908-42.85 15.658-2.977-32.727z" class="cls-16" data-name="Path 3555" transform="translate(-101.56 -312.761)"/>
                        <path id="Path_3556" d="M98.685 351.08l4.555.478 42.85-15.658-4.555-.478z" class="cls-17" data-name="Path 3556" transform="translate(-95.708 -299.515)"/>
                        <path id="Path_3557" d="M99.4 314.258l2.984.313 3.013 33.581-3.418-.359z" class="cls-14" data-name="Path 3557" transform="translate(-56.155 -311.885)"/>
                    </g>
                    <g id="Group_16037" data-name="Group 16037">
                        <g id="Group_16034" data-name="Group 16034">
                            <path id="Path_3558" d="M127.156 296.178a10.914 10.914 0 0 1 13.134-6.878c5.939 1.608 5.9 16.6 4.115 22.49-1.276 4.216-.978 2.285-4.435 9.55l-19.743-10.732z" class="cls-5" data-name="Path 3558" transform="translate(-107.581 -288.921)"/>
                            <path id="Path_3559" d="M136.335 302.61l19.743 10.732c-4.578 9.619-9.071 14.471-10.847 20.288-2 6.56-7.728 9.581-14.107 7.059a11.749 11.749 0 0 1-6.752-14.867z" class="cls-4" data-name="Path 3559" transform="translate(-123.689 -280.92)"/>
                        </g>
                        <g id="Group_16036" data-name="Group 16036" transform="translate(.82 38.875)">
                            <path id="Path_3560" d="M163.947 347.881l-41.856-33.75c-4.641-2.491-10.092 2.369-12.362 7.121a9.228 9.228 0 0 0 4.887 12.54l43.091 23.477z" class="cls-4" data-name="Path 3560" transform="translate(-108.824 -313.456)"/>
                            <g id="Group_16035" data-name="Group 16035" transform="translate(43.484 28.047)">
                                <path id="Path_3561" d="M107.736 348.847a9.483 9.483 0 1 1 13.334-1.442 9.484 9.484 0 0 1-13.334 1.442z" class="cls-4" data-name="Path 3561" transform="translate(-104.199 -330.678)"/>
                                <path id="Path_3562" d="M119.8 339.084s3.386-1.589-.239-5-9.1-5.037-15.644 1.906z" class="cls-4" data-name="Path 3562" transform="translate(-101.821 -331.157)"/>
                            </g>
                        </g>
                    </g>
                </g>
            </g>
            <g id="Group_16042" data-name="Group 16042" transform="translate(33.29)">
                <path id="Path_3563" d="M134.161 259.58s-23.447-1.179-28.077 7.335-.395 22.158 10.538 26.306c10.415 3.95 6.984-29.747 6.984-29.747z" class="cls-3" data-name="Path 3563" transform="translate(-104.23 -257.966)"/>
                <path id="Path_3564" d="M97.883 260.388s18-6.823 20.053 5.755c1.372 8.385-12.221 12.041-12.221 12.041z" class="cls-3" data-name="Path 3564" transform="translate(-78.044 -258.541)"/>
                <path id="Path_3565" d="M99.43 274.56a5.063 5.063 0 1 0 5.4-4.7 5.06 5.06 0 0 0-5.4 4.7z" class="cls-15" data-name="Path 3565" transform="translate(-71.986 -251.932)"/>
                <path id="Path_3566" d="M120.349 284.022l-.7 11.012c-.238 3.866-2.748 5.788-6.552 5.524-3.248-.227-6.183-2.115-6.36-5.365l1.935-17.276z" class="cls-4" data-name="Path 3566" transform="translate(-94.39 -247.216)"/>
                <path id="Path_3567" d="M119.549 292.211l-12.872-12.6 13.449 2.294z" class="cls-15" data-name="Path 3567" transform="translate(-94.072 -246.226)"/>
                <path id="Path_3568" d="M114.587 296.082c6.5.021 11.877-5.1 12.072-10.415l.382-12.537a12.349 12.349 0 0 0-11.484-12.771c-6.8-.474-13.9 4.576-14.368 11.38l-.2 10.085c-.153 7.801 5.811 13.718 13.598 14.258z" class="cls-4" data-name="Path 3568" transform="translate(-91.977 -257.496)"/>
                <g id="Group_16040" data-name="Group 16040" transform="translate(17.922 17.36)">
                    <path id="Path_3569" d="M106.533 273.539l.376 3.107-1.609.059" class="cls-18" data-name="Path 3569" transform="translate(-96.596 -267.135)"/>
                    <path id="Path_3570" d="M111.123 269.516s2.741-.225 2.768.891c0 0 0 .756-2.393.906s-3.012-.025-3.231-.735 1.571-1.054 2.856-1.062z" class="cls-15" data-name="Path 3570" transform="translate(-108.249 -269.497)"/>
                    <path id="Path_3571" d="M104.053 269.706s-2.263-.233-2.448.814c0 0-.106.71 1.873.87s2.626-.092 2.812-.664c.21-.649-1.162-1.002-2.237-1.02z" class="cls-15" data-name="Path 3571" transform="translate(-90.142 -269.388)"/>
                    <path id="Path_3572" d="M102.564 273.2a1.151 1.151 0 1 0 1.188-1.112 1.152 1.152 0 0 0-1.188 1.112z" class="cls-15" data-name="Path 3572" transform="translate(-90.215 -267.986)"/>
                    <path id="Path_3573" d="M108.66 273a1.15 1.15 0 1 0 1.187-1.112A1.15 1.15 0 0 0 108.66 273z" class="cls-15" data-name="Path 3573" transform="translate(-105.969 -268.103)"/>
                    <path id="Path_3574" d="M112.477 276.679h-7.751s-.021 2.713 4.484 2.719a3.114 3.114 0 0 0 3.267-2.719z" class="cls-14" data-name="Path 3574" transform="translate(-101.253 -265.3)"/>
                </g>
                <path id="Path_3575" d="M126.833 264.776s1.611 11.1-21.475 10.008c-.49-.022-8.881-12.739 9.5-14.991-.004 0 6.164-1.867 11.975 4.983z" class="cls-3" data-name="Path 3575" transform="translate(-95.016 -257.945)"/>
                <path id="Path_3576" d="M124.858 267.278c-1.038 7.685-6.2 9.776-6.2 9.776l-6.853-8s13.595-5.754 13.053-1.776z" class="cls-3" data-name="Path 3576" transform="translate(-106.937 -254.253)"/>
                <g id="Group_16041" data-name="Group 16041" transform="translate(2.927 18.182)">
                    <path id="Path_3577" d="M114.895 274.727a5.063 5.063 0 1 0 5.4-4.7 5.06 5.06 0 0 0-5.4 4.7z" class="cls-4" data-name="Path 3577" transform="translate(-114.882 -270.016)"/>
                    <path id="Path_3578" d="M120.314 275.472s.255-3.662-3.286-3.329" class="cls-18" data-name="Path 3578" transform="translate(-113.591 -268.785)"/>
                </g>
            </g>
        </g>
    </g>
</svg>
