<svg xmlns="http://www.w3.org/2000/svg" width="20.785" height="20.784" viewBox="0 0 20.785 20.784">
    <defs>
        <style>
            .cls-1{fill:#3e52ce}
        </style>
    </defs>
    <path id="check-mark_1_" d="M14.986 7.1a.812.812 0 0 1 0 1.148L9.54 13.691a.812.812 0 0 1-1.148 0L5.8 11.1a.812.812 0 1 1 1.147-1.151l2.019 2.019 1.423-1.424L13.838 7.1a.812.812 0 0 1 1.148 0zm5.8 3.3A10.392 10.392 0 1 1 10.392 0a10.387 10.387 0 0 1 10.393 10.393zm-1.624 0a8.769 8.769 0 1 0-8.769 8.769 8.764 8.764 0 0 0 8.768-8.776zm0 0" class="cls-1" data-name="check-mark (1)" transform="translate(0 -.001)"/>
</svg>
