<svg xmlns="http://www.w3.org/2000/svg" width="66" height="57" viewBox="0 0 66 57">
    <defs>
        <style>
            .cls-1{opacity:.343}.cls-2,.cls-4{fill:none}.cls-2{stroke:#aaa;stroke-width:2px}.cls-3{stroke:none}
        </style>
    </defs>
    <g id="Group_15351" class="cls-1" data-name="Group 15351" transform="translate(-891 -117)">
        <g id="Ellipse_31" class="cls-2" data-name="Ellipse 31" transform="translate(891 117)">
            <circle cx="4.5" cy="4.5" r="4.5" class="cls-3"/>
            <circle cx="4.5" cy="4.5" r="3.5" class="cls-4"/>
        </g>
        <g id="Ellipse_35" class="cls-2" data-name="Ellipse 35" transform="translate(891 133)">
            <circle cx="4.5" cy="4.5" r="4.5" class="cls-3"/>
            <circle cx="4.5" cy="4.5" r="3.5" class="cls-4"/>
        </g>
        <g id="Ellipse_42" class="cls-2" data-name="Ellipse 42" transform="translate(891 149)">
            <circle cx="4.5" cy="4.5" r="4.5" class="cls-3"/>
            <circle cx="4.5" cy="4.5" r="3.5" class="cls-4"/>
        </g>
        <g id="Ellipse_46" class="cls-2" data-name="Ellipse 46" transform="translate(891 165)">
            <circle cx="4.5" cy="4.5" r="4.5" class="cls-3"/>
            <circle cx="4.5" cy="4.5" r="3.5" class="cls-4"/>
        </g>
        <g id="Ellipse_32" class="cls-2" data-name="Ellipse 32" transform="translate(910 117)">
            <circle cx="4.5" cy="4.5" r="4.5" class="cls-3"/>
            <circle cx="4.5" cy="4.5" r="3.5" class="cls-4"/>
        </g>
        <g id="Ellipse_36" class="cls-2" data-name="Ellipse 36" transform="translate(910 133)">
            <circle cx="4.5" cy="4.5" r="4.5" class="cls-3"/>
            <circle cx="4.5" cy="4.5" r="3.5" class="cls-4"/>
        </g>
        <g id="Ellipse_41" class="cls-2" data-name="Ellipse 41" transform="translate(910 149)">
            <circle cx="4.5" cy="4.5" r="4.5" class="cls-3"/>
            <circle cx="4.5" cy="4.5" r="3.5" class="cls-4"/>
        </g>
        <g id="Ellipse_43" class="cls-2" data-name="Ellipse 43" transform="translate(910 165)">
            <circle cx="4.5" cy="4.5" r="4.5" class="cls-3"/>
            <circle cx="4.5" cy="4.5" r="3.5" class="cls-4"/>
        </g>
        <g id="Ellipse_33" class="cls-2" data-name="Ellipse 33" transform="translate(929 117)">
            <circle cx="4.5" cy="4.5" r="4.5" class="cls-3"/>
            <circle cx="4.5" cy="4.5" r="3.5" class="cls-4"/>
        </g>
        <g id="Ellipse_37" class="cls-2" data-name="Ellipse 37" transform="translate(929 133)">
            <circle cx="4.5" cy="4.5" r="4.5" class="cls-3"/>
            <circle cx="4.5" cy="4.5" r="3.5" class="cls-4"/>
        </g>
        <g id="Ellipse_39" class="cls-2" data-name="Ellipse 39" transform="translate(929 149)">
            <circle cx="4.5" cy="4.5" r="4.5" class="cls-3"/>
            <circle cx="4.5" cy="4.5" r="3.5" class="cls-4"/>
        </g>
        <g id="Ellipse_44" class="cls-2" data-name="Ellipse 44" transform="translate(929 165)">
            <circle cx="4.5" cy="4.5" r="4.5" class="cls-3"/>
            <circle cx="4.5" cy="4.5" r="3.5" class="cls-4"/>
        </g>
        <g id="Ellipse_34" class="cls-2" data-name="Ellipse 34" transform="translate(948 117)">
            <circle cx="4.5" cy="4.5" r="4.5" class="cls-3"/>
            <circle cx="4.5" cy="4.5" r="3.5" class="cls-4"/>
        </g>
        <g id="Ellipse_38" class="cls-2" data-name="Ellipse 38" transform="translate(948 133)">
            <circle cx="4.5" cy="4.5" r="4.5" class="cls-3"/>
            <circle cx="4.5" cy="4.5" r="3.5" class="cls-4"/>
        </g>
        <g id="Ellipse_40" class="cls-2" data-name="Ellipse 40" transform="translate(948 149)">
            <circle cx="4.5" cy="4.5" r="4.5" class="cls-3"/>
            <circle cx="4.5" cy="4.5" r="3.5" class="cls-4"/>
        </g>
        <g id="Ellipse_45" class="cls-2" data-name="Ellipse 45" transform="translate(948 165)">
            <circle cx="4.5" cy="4.5" r="4.5" class="cls-3"/>
            <circle cx="4.5" cy="4.5" r="3.5" class="cls-4"/>
        </g>
    </g>
</svg>
