<svg xmlns="http://www.w3.org/2000/svg" width="8.771" height="8.771" viewBox="0 0 8.771 8.771">
    <defs>
        <style>
            .cls-1{fill:#dd2e44;stroke:#dd2e44;stroke-width:.4px}
        </style>
    </defs>
    <g id="close_1_" data-name="close (1)" transform="translate(.2 .201)">
        <g id="Group_15195" data-name="Group 15195">
            <g id="Group_15194" data-name="Group 15194">
                <path id="Path_399" d="M5.086-40.818l3.1-3.1a.633.633 0 0 0 0-.9.633.633 0 0 0-.9 0l-3.1 3.1-3.1-3.1a.633.633 0 0 0-.9 0 .633.633 0 0 0 0 .9l3.1 3.1-3.099 3.107a.633.633 0 0 0 0 .9.631.631 0 0 0 .448.186.631.631 0 0 0 .448-.186l3.107-3.112 3.1 3.1a.632.632 0 0 0 .448.186.632.632 0 0 0 .448-.186.633.633 0 0 0 0-.9z" class="cls-1" data-name="Path 399" transform="translate(-.001 45)"/>
            </g>
        </g>
    </g>
</svg>
