<svg xmlns="http://www.w3.org/2000/svg" width="262.491" height="65.894" viewBox="0 0 262.491 65.894">
    <defs>
        <style>
            .cls-1{fill:#a3ceff;fill-rule:evenodd}.cls-2{opacity:.5}
        </style>
    </defs>
    <g id="Group_15663" data-name="Group 15663" transform="translate(-84.524 -1081.301)">
        <g id="Group_15661" data-name="Group 15661" transform="translate(65.283 1087.023)">
            <path id="Path_1122" d="M80.355 1106.3c-1.089-.107-2.252.1-3.122-.825-.584-2.451-.117-3.483 2.65-4.688 7.3-3.19 14.427-1.386 21.673-.792 3.316.281 14.759 1.084 14.976.747.187-.293-.293.006-.435-.136-7.138-.547-14.164-1.743-21.19-2.9a7.179 7.179 0 0 1-3.457-1.162q-7.457-.888-14.925-1.768c-.716-1.844.881-1.938 1.835-2.434 1.482-.754 3.284-.594 4.672-1.652 3.569-.791 7.028.029 10.5.714a2.913 2.913 0 0 0 3.119.607c7.285.864 14.481 2.457 21.856 2.608a36.491 36.491 0 0 0 4.9 0c-9.306.387-18.4-1.68-27.575-2.693-4.185-1.679-8.772-.934-13.021-2.233-3.066-.351-6.138-.7-9.217-1.055 3.536-1.94 7.392-1.624 11.145-1.557a85.824 85.824 0 0 1 10.345.94c9.012 1.234 18.1.531 27.127 1.285 1 .086 2.006.129 3.01.192.42.029.41.053 1.8 1.371a2.54 2.54 0 0 0 1.9.439c9.954.006 19.9-.071 29.851.038 12.529.134 25.043.479 37.568.624 6.711.071 13.426-.144 20.136-.115 12.078.042 24.158.186 36.237.251 6.709.043 13.42.1 20.129-.021a232.449 232.449 0 0 1 38.415 2.512c2.755.416 5.478 1.051 8.265 1.279.775.065 1.764.136 1.694 1.187-.066 1-1.081 1-1.845 1.053a24.333 24.333 0 0 1-5.019-.222c-.813-.113-1.6.015-1.305 1.233a10.751 10.751 0 0 0-.535-.063c-5.145-2.073-10.594-1.551-15.947-1.918-7.336-.4-14.623-1.149-22-.881-7.238.261-14.5-.339-21.762-.268-4.907.044-9.819-.056-14.728-.092-6.361-.052-12.722-.014-19.075-.2 6.259.23 12.523.129 18.782.215 9.156.208 18.321-.067 27.465.249 2.143.626 3.336 2.551 4.9 3.922 1.791 1.573-.337 2.434-.993 3.563-.4.691-1.908.544-1.363 1.85a1.135 1.135 0 0 0 1.129.6c1.206-.192.6-1.228.778-1.911.435-1.6 1.6-2.8 1.39-4.854-.125-1.293 2.137-2.162 3.718-.892 1.86 1.5 1.1-.651 1.563-1.1 1.449-2.4 3.691-.444 5.467-1.04.856.49 1.72 1.258 2.6.008a4.821 4.821 0 0 1 2.738.473c2.377 2.189 6.769 2.652 10 1.051a1.924 1.924 0 0 1 1.4.019c1.4 1.568 3.742 1.409 5.217 2.974a1.826 1.826 0 0 0 2.28-.286c.993-1.057 1.765-.54 2.509.329.03 2.436-.066 10.576-1.185 12.85-2.443 2.07-2.476 5.988-4.713 3.947-1.267-1.161.288-6.337-2-4.1-1.876 1.839-2.813-2.043-4.288-3.118a18.608 18.608 0 0 0 .58 2.206c.819 1.939-1.856.7-1.713 1.525.246 1.486-13.545 21.934-13.969 22.616-1.766 2.853-4.107 1.058-6.871-1.42-.432-.381-15.825 1.867-14.656.94 3.012-2.384 5.137.489 7.639.892a1.4 1.4 0 0 1 .955 1.628 2.4 2.4 0 0 1-2.438 2.319c-1.951.038-3.871.567-5.831.239a1.926 1.926 0 0 0-2.271-.077 12.492 12.492 0 0 0-2.452.674 2.928 2.928 0 0 1-1.882-.094c-1.9-1.637-4.1-.358-6.141-.5-4.5-.339-9.061-.984-13.56.222a1.329 1.329 0 0 1-1.227-.092 5.68 5.68 0 0 0-5.474-.151 1.572 1.572 0 0 1-1.282.021c-2.518-1.072-5.192-.309-7.775-.653-1.2-.165-2.433.258-3.627-.178-.9-2.61-.9-2.61 2.927-3.809-1.664-1.2-2.676-2.949-4.806-3.359a1.785 1.785 0 0 1-1.25-2.673c.79-1.886-.017-3.2-1.09-4.65-2.008-2.7-4.3-5.377-2.858-9.257.315-.833.033-1.844-1.04-1.557-1.127.3-2.685-1.689-3.371.623-.331 1.107-.848 1.961-2.1 1.622-1.183-.322-1.3-1.45-1.351-2.49a5.762 5.762 0 0 0-.579-2.98c-.878-1.371-1.333-2.643.437-3.746a1.016 1.016 0 0 0 .1-1.733c-.764-.565-1.3.127-1.472.782-.758 2.895-2.308 2.671-4.139 1.129-.866-.727-1.323-1.005-1.908.351-.333.789-1.394.726-2.044.1-1.853-1.77-3.789-1.077-5.572-.086-1.339.747-2.9.417-4.147 1.206-.692.448-1.8.726-1.4 1.981.3.913 1.112.8 1.88 1.013 4.536 1.262 8.776 3.269 11.85 7a4.383 4.383 0 0 1-.949 6.118c-1.794 1.3-4.365.747-6.159-1.421.062 1.624-.38 3.338 2.174 3.1a1.792 1.792 0 0 1 1.6 1.565 11.83 11.83 0 0 0 1.312 5.737c.5.9-.8 1.687-1.694 1.5-1.985-.426-2.785.917-3.693 2.2-4.545 1.415-23.29-4.255-24.564-4.688-1.658-.553-2.333-.251-2.047 1.621.389 2.585-1.22 3.048-3.232 3.19-6.82.475-13.571-.761-20.376-.753-6.278.716-38.8-4.4-40.385-4.374-2.513.044-5.34-1.689-7.738-2.656-2.776-3.749-2.78-3.946-.093-7.521a15.727 15.727 0 0 0 1.243-2.017c.274-.5.576-1.069.121-1.555a1.177 1.177 0 0 0-1.8.042c-2.655 2.773-3.727.666-4.791-1.551a2.961 2.961 0 0 1-1.816-.4.929.929 0 0 1-.084-.923 2.506 2.506 0 0 1 1.932-1.228c2.127.059 3.074-.913 4.091-2.865 1.157-2.2 3.92-2.6 6.265-2.5 1.845.071 1.263 1.766 1 2.951-.368 1.672 48.225 7.771 49.791 6.635.965-.7 1.83-1.535 2.95-.833 1.5.918.106 1.988-.1 2.982a3.556 3.556 0 0 0 .25 2.261c2.229-1.3 2.114-4.071 3.831-5.724 1.735-1.672-1.015-4.071-.732-6.36a4.713 4.713 0 0 1-3.52 2.346c-2.114.239-54.887-2.915-55.473-3-12.965-1.817-5.213-5.189-9.425-5.617z" class="cls-1" data-name="Path 1122" transform="translate(-68.071 -1087.023)"/>
            <path id="Path_1123" d="M545.953 1103.689l-.155-.029c1.931.835 4.206.823 6.326 1.244-.228.907-1.865 1.055-1.717 2.132.138 1.02.025 2.011 1.953 1.984 2.04-.021 1.885.542 1.469 1.735-.337.97.365 2.137 1.779 2.72 2.2.915 3.175 2.132 2.377 3.954-.39.888.144 1.663 1.093 2.619-2.528.115-4.515-.662-6.621-.9-2.02-.234-2.726.288-2.153 1.67.579 1.361 2.044 1.978 3.786 2.452 1.253.352 1.385.58.058 1.347-1.135.67.293 1.451 1.348 1.8 1.693.553 3.7.613 5.337 1.376-1.046 2.312-4.392 2.1-6.314 3.378.649 1.552 2.577 1.885 4.182 2.072 4.68.567 4.914 3.622 6.5 5.838.45.629-.573 1.785-2.276 1.869a53.041 53.041 0 0 0-3.5.331c-1.039.133-2.386.385-2.608 1.047-.764 2.317-3.244 2.031-5.514 2.1a76.7 76.7 0 0 1-9.3-.229 1.015 1.015 0 0 1-.492-1.262c.191-.5.658-1.119.158-1.523-2.734-2.212-2.419-4.883-2.369-7.527a20.056 20.056 0 0 0-2.1-8.651c-1.023-2.253-1.83-5.183 1.3-7.4 1.339-.954 1.415-2.023.447-3.179-.753-.894-1.713-1.8-.542-2.892.243-2.167-.312-4.394 1.089-6.453a1.661 1.661 0 0 1 1.188-1.937 7.724 7.724 0 0 1 5.271.314z" class="cls-1" data-name="Path 1123" transform="translate(-303.47 -1088.559)"/>
            <path id="Path_1124" d="M144.1 1148.7a189.563 189.563 0 0 0 21.778 2.342 75.258 75.258 0 0 0 12.015.31c4.7-.442 9.374.434 14.059.66 2.833.142 5.589-.072 8.379-.066 2.06 0 2.684-.374 2.4-2.072-.132-.8-1.486-1.89-.211-2.663 1.514-.923 3.212-.253 4.519.327a2.013 2.013 0 0 0 2.549-.308 11.251 11.251 0 0 1 5.24-2.184c-.343-1.463-1.91-2.076-3.018-2.817-1.545-1.036-4.086-.5-4.832.993-.439.87-.715 1.337-2.083.94-1.59-.444-1.976-1.328-1.333-2.288a10.587 10.587 0 0 1 2.258-1.925c1.19-.921 2.047-.191 3.024.282.87.434 1.61 0 2.407-.324 4.052-1.594 4.907-1.353 6.2 1.61a4.149 4.149 0 0 0 3.6 2.9c2.836.419 2.848 2.46 3.749 3.834 1.464.228 1.919-.707 2.872-.921 1.553-.348 2.591.185 2.7 1.348.307 3.481 1.049 3.968 5.674 3.773 1.031-.037 2.066-.107 3.1-.16 2.043-1.523 4.4.6 6.5-.3a10.5 10.5 0 0 1 1.951-.132c2.21.113 4.4.385 6.606.473 1.991.087 3.863-.121 4.99-1.523 1.481-1.844 3.166-1.951 4.45-.007.964 1.458 2.541 1.464 4.315 1.684 3.27.423 6.9-.448 9.781 1.369 4.372-.012 8.747-.012 13.129-.045 1.23-.013 1.95.341 2.145 1.215-10.966.261-21.919-.054-32.87-.335-24.719-.627-49.437-1.255-74.187-1.368a267.988 267.988 0 0 1-37.533-2.706c-7.11-1.026-14.365-1.455-21.388-2.8 1.327-1.176 3.134-.883 4.794-.715a66.219 66.219 0 0 0 6.815.69 8.734 8.734 0 0 1 5.456.909z" class="cls-1" data-name="Path 1124" transform="translate(-85.997 -1100.596)"/>
            <path id="Path_1125" d="M184.6 1136.932c.062 1.1-52.886-8.055-52.585-7.032.57 1.943-.576 2.787-3.3 2.352-1.525-.241-2.877-.453-4.153.374-.473.3-.817.643-.429 1.083a1.612 1.612 0 0 0 1.485.489c2.67-.3 2.67-.282 4.381.405-.545 2.459-3.493 2.587-5.929 2.912-2.656.368-3.776-.755-3.006-2.724.221-.575.37-.936-.3-1.375-2.257-1.484-4.092-3.253-6.9-4.357-1.8-.7-4.033-1.083-5.049-2.825a2.758 2.758 0 0 0-3.774-.242 2.6 2.6 0 0 1-3.417.094c-1.434-.853-1.9-2.044-1.071-3.139a5.335 5.335 0 0 0 1.509-3.226c-7.911.52-8.771 1.009-9.358 5.571-2.534-1.41-4.971-.789-7.4-.019-2.17-2.014.225-3.106 1.8-4.208 2.449-1.725 2.857-2.107 2.543-3.789l9.775-.52c.9-.021 1.783-.08 2.684-.062 1.508.027 3.018.062 4.53.094 7.4-.385 14.464 1.236 21.657 1.984 1.807.187 51.208-.938 57.917 2.419 8.481 4.242-1.656 14.821-1.61 15.741z" class="cls-1" data-name="Path 1125" transform="translate(-71.707 -1094.546)"/>
            <path id="Path_1126" d="M455.7 1143.323c3.491 2.2 3.491 2.2.144 5.171 1.31 1.77 3.431.454 5.125.594 2.26.193 3 1.542 4.193 2.418 1.61-.541 1.043-1.376 1.023-2.044-.027-1.055.34-1.671 2.045-1.3.736.16 1.664.154 1.812-.467.178-.8-.561-1.509-1.584-1.711a11.386 11.386 0 0 0-4.321.323c-2.523.473-2.167-.43-1.141-1.479.435-.413 1.29-.32 1.719-.734h-.015a4.918 4.918 0 0 1 1.544-.854c2.652-.553 4.517-2.578 7.715-2.111a10.9 10.9 0 0 1 2.451.563c2.987 1.776-1.279 2.216-1.237 3.688a19.089 19.089 0 0 1 8.875 5.458c1.065 1.073 2.841 1.707 3.633 2.951.138.754.653 1.014 1.784.976 4.12-.16 8.264.066 12.4-.167 1.66-.039 3.294-.008 4.509.981a.955.955 0 0 1-.064 1.443q-11.5-.058-23.018-.12c-9.306-.041-18.619-.041-27.917-.108-1.909-.011-3.807-.252-5.708-.385a.931.931 0 0 1 .215-1.222c.539-.355 1.123-.676 1.6-1.063.5-.4.835-.874.332-1.41a1.8 1.8 0 0 0-1.9-.481c-1.61.549-2.783.621-3.238-.921-.239-.829-1.077-.876-2.012-.533a16.718 16.718 0 0 0-2.282.9c-2.327 1.227-6.383.374-7.093-1.544-.479-1.275 1.168-1.149 2.268-1.289a2.535 2.535 0 0 1 1.829.522c2.311-.33 4.7.492 7.009-.362.764-.278 1.9-.294 2.157-.907.6-1.423 2.484-.643 3.625-1.157-2.1-1.316-2.408-2.143-1.616-3.536.97-1.713 2.741-.533 4.144-.652.535.015.687.355.995.569z" class="cls-1" data-name="Path 1126" transform="translate(-269.571 -1101.307)"/>
            <path id="Path_1127" d="M130.636 1103.948a8.382 8.382 0 0 1 4.265.362c-2.217 1.139-4.88 1.174-7.018 2.068-.727.309-2.064.195-2.949.843a1.788 1.788 0 0 1-2.01-.088c-1.832-1.684-4.883-1.228-7.117-2.19a2.008 2.008 0 0 0-2.343.209 1.56 1.56 0 0 1-1.576.3c-5.357-1.594-11.162-1.223-16.732-1.89-3.93-.468-7.758.722-11.383 1.884-.655.215-1.228.676-1.99.557-3-.463-4.192-.13-2.127 2.1.475.516-.612.814-1.3.995a.677.677 0 0 1-.8-.154c-1.2-.954-3.349-1.077-4.116-2.4.329-.374.663-.736 1-1.108.288-1.014 1.731-1.311 2.487-2.039.8.047 1.621.1 2.428.148a13.087 13.087 0 0 1 5.826-.995c.951-.021 2.084.259 2.273-.831 3.3.082 6.6.167 9.908.249 4.876-1 9.43.7 14.183.841 6.384.183 12.603 1.834 19.091 1.139z" class="cls-1" data-name="Path 1127" transform="translate(-68.018 -1091.092)"/>
            <path id="Path_1128" d="M88.174 1131.192a3.041 3.041 0 0 1 2.8 2.311c1.846-.536 2.352-2.006 4.268-2.218 1.1-.121 1.885-.362 2.614.42.536.582 1.369.921.481 1.858-1.108 1.16-1.426 2.9-3.134 3.573-2.674 1.042-2.214 2.132-.992 3.562a10.383 10.383 0 0 1 1.01 1.723 3.07 3.07 0 0 1-2.734.415c-2.223-1.337-5.219-2.447-3.1-5.136l.076-.054c.417-.427.574-.871.11-1.322-.461-.247-.913-.489-1.382-.736-2.371-1.261-2.388-1.267-.7-3.02.417-.428.875-.804.683-1.376z" class="cls-1" data-name="Path 1128" transform="translate(-72.335 -1099.028)"/>
            <path id="Path_1129" d="M152.125 1119.914c-11.519-.954-22.989-2.169-34.414-3.561-.086-.32-.171-.635-.253-.954 4.588.047 9.022.888 13.533 1.328 11.209 1.11 22.372 2.547 33.76 2.454 1.087.113 2.354-.481 3.239.426a94.236 94.236 0 0 0 1.667-.052c1.2 1.759-.9 1.8-2.145 1.8-4.641.041-9.333.134-13.729-1.276-.551-.05-1.108-.11-1.658-.165z" class="cls-1" data-name="Path 1129" transform="translate(-82.782 -1094.97)"/>
            <path id="Path_1130" d="M142.618 1103.459c-.874 1.017-2.4.843-3.572.754-9.931-.775-19.879-1.456-29.708-2.737-.059-.394-.115-.789-.177-1.174a13.4 13.4 0 0 1 4.333.28q14.506 1.718 29.124 2.877z" class="cls-1" data-name="Path 1130" transform="translate(-80 -1090.74)"/>
            <path id="Path_1131" d="M88.319 1117.35c.019 1.745 1.887 2.09 3.973 2.5-3.265.356-5.884 1.137-7.669 2.973-.727.761-1.711 1.511-.646 2.52-.05.231-.1.467-.163.7-2.262-.619-3.578-1.355-1.56-3.186.885-.8-.227-2.424 2.27-2.745-1.34-.987-2.936.041-4.045-.7a3.039 3.039 0 0 1 3.092-.58 6.86 6.86 0 0 0 3.041-.166c-.092-.637-1.587-.483-1.4-.859.596-1.237 1.87-.984 3.107-.457z" class="cls-1" data-name="Path 1131" transform="translate(-70.38 -1095.273)"/>
            <path id="Path_1132" d="M392.684 1162.766c2.776-1.922 6.378-1.3 9.545-1.235 4.508.081 9.03.16 13.531.3 1.362.041 2.723-.138 3.007 1.2a40.386 40.386 0 0 1-7.067.129c-6.334-.147-12.682-.266-19.016-.394z" class="cls-1" data-name="Path 1132" transform="translate(-230.333 -1108.124)"/>
            <path id="Path_1133" d="M85.25 1092.447c-.066 1.357-1.568 1.141-2.775 1.4-2.043.453-4.709.086-5.718 2.044-2.139-.126-3.131-1.7-5.294-1.959a38.42 38.42 0 0 1 13.662-1.909c.358.047.484.121.4.232a.384.384 0 0 1-.275.192z" class="cls-1" data-name="Path 1133" transform="translate(-67.356 -1088.678)"/>
            <path id="Path_1134" d="M95.748 1148.353c.846-.08 1.68-.169 2.513-.247a51.047 51.047 0 0 0 9.467.676 20.672 20.672 0 0 1 6.362.888c1.23.4.207.748-.293 1.049-6-.557-12.111-.483-18.057-1.433-.506-.312-.49-.626.008-.933z" class="cls-1" data-name="Path 1134" transform="translate(-75.373 -1104.36)"/>
            <path id="Path_1135" d="M88.354 1101.552c.364.337.738.664 1.535 1.376a52.028 52.028 0 0 1-9.633.45c.093-.417.228-.83-.615-.951-.988-.124-2.086.209-3.505-.746 4.392-.421 8.264-.847 12.218-.129z" class="cls-1" data-name="Path 1135" transform="translate(-68.923 -1091.042)"/>
            <path id="Path_1136" d="M92.124 1092.047a.5.5 0 0 1-.125-.421c-.017-.288-.027-.576-.042-.862 5.781.134 11.615-.014 17.153 1.538.367.292.356.573-.025.847a2.735 2.735 0 0 1-2.563-.041 71.882 71.882 0 0 0-14.398-1.061z" class="cls-1" data-name="Path 1136" transform="translate(-74.229 -1088.278)"/>
            <path id="Path_1137" d="M93.112 1145.971c0 .316 0 .621-.009.933-1.042.142-2.226.255-2.492-.685a2.154 2.154 0 0 0-.992-1.243c-2.86-2-2.823-2.011.174-3.974-.039 1.487.147 2.85 2.355 3.64.501.186.652.875.964 1.329z" class="cls-1" data-name="Path 1137" transform="translate(-72.737 -1102.139)"/>
            <path id="Path_1138" d="M450.043 1162.127c-.073.4-.142.807-.219 1.215a97.942 97.942 0 0 1-14.143-.1c.666-1.258 2.256-1.018 3.605-1.156a1.61 1.61 0 0 1 1.8-.088 35.251 35.251 0 0 0 8.957.129z" class="cls-1" data-name="Path 1138" transform="translate(-249.773 -1108.253)"/>
            <path id="Path_1139" d="M71.709 1109.007c1.523.67 4.124.39 4.116 2.4-2.49-.166-4.758-1.108-7.314-1.036a.516.516 0 0 1-.133-.728z" class="cls-1" data-name="Path 1139" transform="translate(-66.288 -1093.267)"/>
            <path id="Path_1140" d="M379.336 1162.4c.05-.417 0-.9.568-1.129a7.722 7.722 0 0 1 6.679 1.269 29.466 29.466 0 0 1-7.247-.14z" class="cls-1" data-name="Path 1140" transform="translate(-220.623 -1107.984)"/>
            <path id="Path_1141" d="M77.173 1104.254c.669 1.624-.639 2-2.487 2.039-.886-2.146-.886-2.146 2.487-2.039z" class="cls-1" data-name="Path 1141" transform="translate(-68.269 -1091.913)"/>
            <path id="Path_1142" d="M67.372 1109.815c.045.241.091.489.133.728a3.055 3.055 0 0 1-.391.108c-.9.14-2.012.047-1.807-.688.18-.671 1.293-.501 2.065-.148z" class="cls-1" data-name="Path 1142" transform="translate(-65.283 -1093.436)"/>
            <path id="Path_1143" d="M109.667 1116.442a2.678 2.678 0 0 1-2.684.062 1.967 1.967 0 0 1 2.684-.062z" class="cls-1" data-name="Path 1143" transform="translate(-79.269 -1095.282)"/>
            <path id="Path_1144" d="M91.17 1138.931c.542.066 1.164.146 1.1.654-.058.467-.7.541-1.208.668.038-.453.069-.888.108-1.322z" class="cls-1" data-name="Path 1144" transform="translate(-73.928 -1101.824)"/>
            <path id="Path_1145" d="M542.133 1164.311c-.043-.407-.082-.808-.125-1.207a1.719 1.719 0 0 1 1.775-.1c.042.413.089.82.134 1.241a2.9 2.9 0 0 1-1.784.066z" class="cls-1" data-name="Path 1145" transform="translate(-305.391 -1108.601)"/>
            <path id="Path_1146" d="M506.416 1145.388l-1.775.1a10.37 10.37 0 0 0-4.5-.409c-2.329-3.074-5.907-.621-8.846-1.007-1.234-.543-2.375-1.538-3.99-.475a2.227 2.227 0 0 1-1.671-.2 9.5 9.5 0 0 1-3.817-2.371c2.539-.758 4.1-1.859 4.833-4a2.56 2.56 0 0 0-2.436-3.647c-3.372-.226-6.371-1.315-9.661-1.548a2.283 2.283 0 0 1-1.862-.522c-.274-.382-.028.132-.231-.267-.764-1.522-2.206-3.228-4.247-2.979a2.666 2.666 0 0 0-1.987 3.686c.256.75-.629 1.351-1.3 1.9-.584.033-1.174.074-1.765.113.125-1.577-.952-2.839-2.005-4.114-1.416-1.708-2.209-1.831-4.366-.575-.683.4-1.271.888-1.984 1.248-.427.228-1.038.557-1.537.121-.514-.44-.563-1.227 0-1.435a9.362 9.362 0 0 0 4.448-3.361 2.3 2.3 0 0 1 2.373-.448 9.254 9.254 0 0 0 3.047.234c.056-1.375 1.15-1.361 2.641-1.116 2.107.347 4.259.514 6.09-.662v-.006c-.185-.934-.025-1.91-.648-2.731a3.088 3.088 0 0 0-2.813.754c-.517.373-.914.966-1.717.882-3.405-.352-5.957 1.429-9.045 1.827-2.563.333-4.892 1.493-7.751.728-1.448-.4-2.773.558-4.142.913-1.4.362-2.163 1.02-1.444 2.223.245.415-.348.783-1 .829-2.361.173-4.777.908-6.9.781a11.659 11.659 0 0 1-5.07-1.663c-.568-.368-.99-.808-.576-1.391a2.9 2.9 0 0 1 1.765-.868c1.469-.368 3.4 1.176 4.4-.327.593-.888.267-2.075.41-3.126a9.515 9.515 0 0 1 .352-1.569c.4-1.322 2.02-1.6 3.389-1.517 1.3.072.875 1.174 1.026 1.864.234 1-.461 1.863-.916 2.759-.349.687-.222 1.276.742 1.616a2.077 2.077 0 0 0 2.233-.643c.191-.167.326-.358.505-.528.777-.719-.274-2.356 1.527-2.329 1.928.025 4.235-.222 5.781 1.1a1.5 1.5 0 0 0 1.688.36c.437-1.291-.679-1.778-2.282-2.036-.879-.132-1.317-.6-1.037-1.164.332-.655 1.156-.421 1.878-.3a7.89 7.89 0 0 1 3.241.942 4.4 4.4 0 0 0 2.793.818c1.2-.068 2.609-.06 2.957-1.049.432-1.182-1.416-.75-2.032-1.209-2.257-1.671-5.65-1.671-8.812-3.067 2.789-.866 4.546-2.734 7.71-1.4a1.572 1.572 0 0 0 1.513-.421c.677-.489.1-1.929 1.517-1.6 2.875.667 5.967-1.276 8.672.528.45.294.876.535 1.01.956.255.8.1 1.815 1.762 1.9 1.723.094 3.493-.214 4.244-1.33 1.172-1.729 2.248-2.159 4-.467a1.419 1.419 0 0 0 2.139.138.968.968 0 0 0-.329-1.694c-1.408-.57-2.891-.983-3.636-2.112 3.189-1.13 3.24-1.155 5.066.979a2.918 2.918 0 0 0 2.442 1.133c1.267-.013 1.8-.5 1.935-1.4.217-1.449 1.67-1.628 2.716-.734 1.634 1.41 4.233 1.912 5.678 3.388a2.588 2.588 0 0 0 2.743.475 13.227 13.227 0 0 1 3.389-.7 3.121 3.121 0 0 0 1.265 2.278c1.908 1.6 1.927 3.5-.32 4.48-1.883.823-2.035 1.583-1.262 2.8.186.286.553.728.413.867-2.256 2.11.255 3.72 1.187 5.426 1.4 2.531.789 5.169.725 7.7-.057 2.266.291 4.036 2.593 5.66 1.767 1.256 1.607 1.369-1.126 2.011z" class="cls-1" data-name="Path 1146" transform="translate(-268.023 -1090.986)"/>
            <path id="Path_1147" d="M304.894 1149.01a3.777 3.777 0 0 1-3.891.438 11.772 11.772 0 0 0-5.455-.776 6.024 6.024 0 0 1 1.742-3.56c2.587-.11 5.464 2.058 7.19.491 1.81-1.634-2.555-2.12-3.962-3.209-.635-.486-1.677-.814-1.585-1.526.966-1.072 3.006.354 4.051-.564-3.145-3.35-3.145-3.35-6.154-.869-3.1-1.933-2.291-4.377-2.879-6.529-.23-.8 1.793-1.259 3.423-1.285 1.149.534.467 1.146.3 1.73-.13.511 0 .979.8 1.316 1.283.541 8.122.35 9.255-.249 2.745-1.444 3.653-4.2.911-5.631-4.022-2.1-7.963-4.689-14.33-4.391-2.57.118-2.2-.894-2.449-1.675-.518-1.575-1.932-1.855-4.145-.972-1.239.492-2.4 1.385-3.972.547s-3.136-1.753-3.837-2.95c-.308-.527.41-1.082 1.187-1.214 2.963-.509 4.488-2.474 8.7-2.052 2.676.274 5.927-1.017 8.84-1.736a7.794 7.794 0 0 1 6.462.851c.79.541 1.057 1.536 2.82.925 1.325-.461 1.3-1.2.62-1.963-.3-.33-.461-.723.632-1.115 2.09 1.606 5.391 2.389 8.025 3.674 2.34-.861 1.258-2.181 2.118-3.156 1.119-1.244 2.788-1.51 4.878-1.379 2.036.135 2.091 1.082 2.316 1.96.606 2.378.43 2.517-4.356 3.169-.05.822.736 1.5 1.769 1.91 1.969.783 2.3 1.675 1.553 2.9a2.933 2.933 0 0 0-.141 1.844c.075.646 3.219-1.889 4.632-3 3.043.8 5.8 2.387 9.555 1.047 1.1-.4 2.542.135 2.215 1.2-.293.979-.05 2.154-.959 2.889-2.318 1.865 9.925 19.963 4.266 24.113 1.905 2.432-39.415-2.113-40.145-1.203z" class="cls-1" data-name="Path 1147" transform="translate(-187.003 -1097.17)"/>
            <path id="Path_1148" d="M172.115 1120.139c4.51.127 9.023.272 13.532.354.916.02 2.176.242 2.341-.882a5.455 5.455 0 0 1 .938-4.036c2.617-.1 4.089 1.369 5.9 2.446 1.037.608 1.591 1.33 1.065 2.212-.59.983-2.016.635-3.11.814-1.245.209-1.9-1.048-3.2-.613.085 3.058.438 3.314 3.96 2.518a48.8 48.8 0 0 1 7.761-1.147c1.779-.115 4.148-.235 3.173-2.406-.16-.346.106-.668.568-.7.93-.076 2.248.248 2.226.728-.118 2.5 1.715 4.65 2.113 7.027.064.419-.074 1.108-.621 1.05-3.316-.361-2.979 1.438-3.522 2.814-.227.574-.891 1.059-1.259 1.628s-.4 1.324-1.691 1.069c-1.031-.206-2.276-.554-2-1.416.358-1.135-.683-2.533 1.1-3.415.383-.191.768-.394.475-.746-.337-.429-.964-.4-1.551-.341-.826.086-1 .641-1.466 1-.941.734-1.8 2.142-3.783.952a1.55 1.55 0 0 0-.8-.039c-1.135 2.457-2.726.615-4.13.226-.829-.232-1.674-.481-1.186-1.361a1.855 1.855 0 0 1 2.222-1.135 4.359 4.359 0 0 0 3.594-.6c-1.113-.943-2.357-.542-3.425-.479-1.723.1-3.215.134-3.887-1.351-.222-.473-1.351-1.045-1.7-.6-1.348 1.75-2.684-1.13-3.856.1-2.38-2.027-6.167-1.47-9.045-2.561-.604-.22-.604-.702-.736-1.11z" class="cls-1" data-name="Path 1148" transform="translate(-119.801 -1094.492)"/>
            <path id="Path_1149" d="M438.045 1100a51.313 51.313 0 0 0-6.6-.189c-5.884.072-11.783.095-17.655-.094-4.412-.14-8.844.356-13.228-.212-.264-.09-.37-.2-.312-.321s.121-.195.2-.195c6.626-.468 13.249-.154 19.879-.121 4.273.021 8.573.107 12.813-.033 11.392-.368 22.762-.006 34.125.128a70.568 70.568 0 0 1 11.869.7c.494.508.6.975-.255 1.351-4.4-.115-8.882.578-13.115-.837a11.2 11.2 0 0 0-3.587-.14 2.815 2.815 0 0 1-2.693.027c-2.526.1-5.167-.863-7.524.487a.578.578 0 0 1-.627.882c-4.275-1.262-9.035-.133-13.29-1.433z" class="cls-1" data-name="Path 1149" transform="translate(-257.841 -1090.931)"/>
            <path id="Path_1150" d="M456.6 1100.542c4.691-.308 9.352-.508 13.916.559.365.576.816 1.23.356 1.818-.6.76-1.541 1.595-2.591.333-.975-1.168-2.026-1.328-3.6-.681-.919.381-1.523.689-.514 1.375.465.315.888.818.42 1.09-2.145 1.285-2.317 2.786-1.972 4.683.172.948-1.822.948-2.857.549a10.019 10.019 0 0 1-4.2-2.854 8.411 8.411 0 0 0 6.5-2.6c-1.465-1.633-4.866-2.054-5.458-4.272z" class="cls-1" data-name="Path 1150" transform="translate(-259.897 -1090.666)"/>
            <path id="Path_1151" d="M423.469 1150c-2.359.019-4.741 1.174-7.113-.195-.643-.374-1.762-.4-1.447-1.24.276-.711 1.111-.423 1.818-.378a25.854 25.854 0 0 0 3.063.016c.958-.047 1.689-.366 1.689-1.162.006-.72-.413-1.223-1.483-1.309-1.18-.088-2.607-.082-2.753-1.143a4.685 4.685 0 0 1 .7-2.44 2.434 2.434 0 0 1 2.139-.927c1.064-.058 1.739.327 1.916 1.014.377 1.519 4.693 1.11 3.229 3.506-.439.724-.81 1.357.069 2.3 1.688 1.826 1.424 1.987-1.827 1.958z" class="cls-1" data-name="Path 1151" transform="translate(-238.901 -1101.36)"/>
            <path id="Path_1152" d="M117.77 1093.691a3.25 3.25 0 0 0-.079-.614c4.955.493 9.924.948 14.876 1.476a187.1 187.1 0 0 0 19.362 1.108c1.4.008 2.958-.209 4.223.861-4.136 1-8.034-.113-11.948-.138-8.868-.068-17.515-1.706-26.355-2.085-.25-.119-.35-.247-.289-.39s.13-.209.21-.218z" class="cls-1" data-name="Path 1152" transform="translate(-82.81 -1089.054)"/>
            <path id="Path_1153" d="M310.54 1098.928c6.426-1.223 27.973-.808 31.453.453-10.932.319-21.193-.134-31.453-.453z" class="cls-1" data-name="Path 1153" transform="translate(-189.638 -1090.771)"/>
            <path id="Path_1154" d="M535.611 1102.686a2.342 2.342 0 0 1-.958 2c-.886-.076-1.788-.911-2.632.22-.4.54-3.543.563-4.133.14a5.883 5.883 0 0 0-3.518-1.123c-1.875-.025-2.456-.956-2.5-2.142 4.698-.571 9.416-1.345 13.741.905z" class="cls-1" data-name="Path 1154" transform="translate(-298.638 -1091.016)"/>
            <path id="Path_1155" d="M498.835 1100.894a90.84 90.84 0 0 1 13.537.349 3.187 3.187 0 0 1 1.151.4 3.009 3.009 0 0 0-1.959 1.624 1.238 1.238 0 0 1-1.728.508c-2.066-1.038-4.3-.6-6.447-.407-2.789.252-4.189-.568-4.554-2.474z" class="cls-1" data-name="Path 1155" transform="translate(-290.91 -1090.929)"/>
            <path id="Path_1156" d="M386.991 1098.87c.047.167.084.342.115.516-7.55.6-24.407.278-27-.506.27-.49.9-.5 1.428-.455 4.574.338 9.155-.148 13.716-.047 2.8.058 5.594.14 8.393 0 1.173-.055 2.392-.215 3.348.492z" class="cls-1" data-name="Path 1156" transform="translate(-214.056 -1090.813)"/>
            <path id="Path_1157" d="M520.271 1101.421l-1.151-.4c-.06-.288-.118-.582-.167-.863a135.612 135.612 0 0 1 20.12 1.188c1.192.176 2.1.349 1.076 1.371a15.928 15.928 0 0 1-5.518-.374c-1.6-1.008-3.59-.815-5.407-.734a77.714 77.714 0 0 1-8.329-.173c-.205-.015-.417-.015-.624-.015z" class="cls-1" data-name="Path 1157" transform="translate(-297.658 -1090.749)"/>
            <path id="Path_1158" d="M432.042 1141.562a8.319 8.319 0 0 1 3.051.241c.736.213 1.905-.508 2.256.413a2.776 2.776 0 0 1-.023 1.871 1.465 1.465 0 0 1-2.008.781c-1.531-.569-3.375-1.013-3.213-2.664-.212-.134-.3-.269-.249-.415s.118-.221.186-.227z" class="cls-1" data-name="Path 1158" transform="translate(-246.318 -1102.441)"/>
            <path id="Path_1159" d="M128.579 1145.756c-1.335-1.091-1.009-2.186-1.172-3.16-.089-.6-.294-1.295.7-1.677a1.509 1.509 0 0 1 1.569.226c.667.569 1.367 1.149.78 1.97-.568.803-1.141 1.598-1.877 2.641z" class="cls-1" data-name="Path 1159" transform="translate(-86.092 -1102.148)"/>
            <path id="Path_1160" d="M207.127 1097.752c3.364-.423 6.733-.958 10.119-.255-3.351 1.234-6.741.582-10.119.255z" class="cls-1" data-name="Path 1160" transform="translate(-135.639 -1090.422)"/>
            <path id="Path_1161" d="M149.955 1152.459a10.8 10.8 0 0 1-5.445-.907c.106-1.591 1.752-1.465 3.177-1.379a2.1 2.1 0 0 1 2.268 2.286z" class="cls-1" data-name="Path 1161" transform="translate(-91.856 -1104.349)"/>
            <path id="Path_1162" d="M471.436 1110.236c.992-.769 2.678-.167 3.55-1.1.562-.6 1.257-.263 1.8.118.429.28.867.588.629 1.061s-.854.508-1.427.571c-1.606.144-3.188.232-4.552-.65z" class="cls-1" data-name="Path 1162" transform="translate(-265.947 -1093.216)"/>
            <path id="Path_1163" d="M436.585 1123.89c-.346.673-.742 1.3-.208 2.078.669.97-.6 1.2-1.436 1.557a1.09 1.09 0 0 1-1.152-.142 1.061 1.061 0 0 1-.052-1.723c.811-.676 1.315-1.663 2.84-1.776z" class="cls-1" data-name="Path 1163" transform="translate(-246.636 -1097.441)"/>
            <path id="Path_1164" d="M232.323 1097.6c-2.768 1.338-4.643.549-6.536.067a13.973 13.973 0 0 1 6.536-.067z" class="cls-1" data-name="Path 1164" transform="translate(-144.619 -1090.448)"/>
            <path id="Path_1165" d="M190.214 1133.3c.806-.039 1.469.14 1.644.75.118.467-.264.9-.916.835-.8-.082-1.854-.16-1.963-.948-.079-.547.677-.566 1.235-.637z" class="cls-1" data-name="Path 1165" transform="translate(-126.211 -1100.203)"/>
            <path id="Path_1166" d="M489.385 1100.752c.891-.006 1.793-.022 2.693-.027-.048.662.326 1.555-1.049 1.676-1.696.146-1.429-.915-1.644-1.649z" class="cls-1" data-name="Path 1166" transform="translate(-281.12 -1090.925)"/>
            <path id="Path_1167" d="M438.145 1122.821c.071-.7-.528-1.435.267-2.107 1.135.134 2.072.549 1.91 1.406-.15.8-1.365.58-2.169.707z" class="cls-1" data-name="Path 1167" transform="translate(-248.781 -1096.603)"/>
            <path id="Path_1168" d="M440.559 1152.515a2.165 2.165 0 0 1-1.829-.522c.081-.569-.4-1.612.681-1.536 1.527.092.848 1.324 1.148 2.058z" class="cls-1" data-name="Path 1168" transform="translate(-249.041 -1104.459)"/>
            <path id="Path_1169" d="M116.539 1094c.021.2.042.407.078.608-1.283 1.116-2.183.936-2.745-.415.891-.058 1.775-.134 2.667-.193z" class="cls-1" data-name="Path 1169" transform="translate(-81.579 -1089.364)"/>
            <path id="Path_1170" d="M231.294 1124.968a1.128 1.128 0 0 1-1.318.427c-.427-.1-.689-.415-.439-.668a1.7 1.7 0 0 1 1.029-.322c.414-.012.805.161.728.563z" class="cls-1" data-name="Path 1170" transform="translate(-146.066 -1097.692)"/>
            <path id="Path_1171" d="M191.857 1121.147a6.5 6.5 0 0 1-3.239-.426c1.182-.275 2.674-1.721 3.239.426z" class="cls-1" data-name="Path 1171" transform="translate(-126.056 -1096.429)"/>
            <path id="Path_1172" d="M215 1118.931c-.082.181-.113.453-.284.522s-.486-.1-.742-.161c.09-.179.109-.46.287-.52s.498.1.739.159z" class="cls-1" data-name="Path 1172" transform="translate(-138.399 -1096.091)"/>
            <path id="Path_1173" d="M109.212 1133.677c-.094.187-.116.461-.278.52s-.494-.094-.754-.159c.1-.179.113-.462.282-.514s.491.093.75.153z" class="cls-1" data-name="Path 1173" transform="translate(-79.671 -1100.306)"/>
            <path id="Path_1174" d="M452.947 1115.692c.255.066.641.08.731.207s-.084.448-.248.508a.946.946 0 0 1-.708-.181c-.08-.119.13-.349.225-.534z" class="cls-1" data-name="Path 1174" transform="translate(-255.782 -1095.215)"/>
            <path id="Path_1175" d="M442.906 1161.645c-.593.027-1.2.053-1.8.088.037-.387.042-.888.619-.995.956-.16 1.004.455 1.181.907z" class="cls-1" data-name="Path 1175" transform="translate(-250.218 -1107.9)"/>
            <path id="Path_1176" d="M483.178 1102.093c.229.08.455.161.685.233a1.988 1.988 0 0 1-.633.288 2.1 2.1 0 0 1-.685-.216c.206-.098.416-.206.633-.305z" class="cls-1" data-name="Path 1176" transform="translate(-278.177 -1091.332)"/>
            <path id="Path_1177" d="M200.712 1111.093l-.676-.249a1.015 1.015 0 0 1 1.322-.033c-.22.089-.431.189-.646.282z" class="cls-1" data-name="Path 1177" transform="translate(-131.563 -1093.76)"/>
            <path id="Path_1178" d="M478.738 1145.622a2 2 0 0 1-1.719.734 2.021 2.021 0 0 1 1.719-.734z" class="cls-1" data-name="Path 1178" transform="translate(-275.938 -1103.766)"/>
            <path id="Path_1179" d="M465.543 1144.067a78.71 78.71 0 0 1-.99-.575c1.271-.648.737.315.99.575z" class="cls-1" data-name="Path 1179" transform="translate(-261.607 -1103.091)"/>
            <path id="Path_1180" d="M431.928 1141.582l.063.643c-.626-.182-.651-.394-.063-.643z" class="cls-1" data-name="Path 1180" transform="translate(-245.272 -1102.616)"/>
            <path id="Path_1181" d="M304.777 1158.707c-.946-.407-1.111-1.1-.206-1.391 1.547-.492 1.714.516 1.959 1.279-.578.031-1.165.072-1.753.112z" class="cls-1" data-name="Path 1181" transform="translate(-182.821 -1106.717)"/>
            <path id="Path_1182" d="M256.6 1157.627c-.255-.06-.64-.082-.722-.2s.129-.346.222-.533c.25.066.635.08.719.2s-.129.354-.219.533z" class="cls-1" data-name="Path 1182" transform="translate(-158.99 -1106.619)"/>
            <path id="Path_1183" d="M495.267 1142.212c.124-.674.2-1.291 1.582-.821 3.287 1.108 6.66 1.963 10.313 1.041.783.827.1 1.715 1.2 2.613 2.212 1.808 1.888 2.029-1.136 3.444.183 1.143 2.371.167 2.626 1.437a19.034 19.034 0 0 1-7.324 1.478c-2.571-2.025-4.383-4.693-9-4.911-1.459-.066-1.338-1.142-.779-2.025.508-.822 1.6-.8 2.5-1.088.938-.299.751-.774.018-1.168z" class="cls-1" data-name="Path 1183" transform="translate(-288.739 -1101.364)"/>
            <path id="Path_1184" d="M481.831 1141.6c-.072-1.154 1.482-2.465-.643-3.433-.162-.082-.193-.539-.169-.547 2.4-.549 2.537-2.373 3.883-3.5.277-.233 1.051-.179 1.1.123.277 1.528 2.121 1.749 3.512 2.438s.534 1.7.082 2.578a7.3 7.3 0 0 0-4.344 1.11 6.628 6.628 0 0 1-3.421 1.231z" class="cls-1" data-name="Path 1184" transform="translate(-278.277 -1100.076)"/>
            <path id="Path_1185" d="M513.049 1159.555c.595-.041 1.206-.089 1.812-.128a3.829 3.829 0 0 1 3.594.436 9.981 9.981 0 0 0 2.951-.449c3.87-1.61 4.856-1.309 6.152 1.824-5.039.052-10.082.112-15.216.173.265-.701.487-1.282.707-1.856z" class="cls-1" data-name="Path 1185" transform="translate(-295.44 -1107.143)"/>
            <path id="Path_1186" d="M482.089 1158.306c1.4.562 1.728-.121 2.107-.883s1.3-.767 2.2-.627a1.118 1.118 0 0 1 1.092 1.2c.039.794-.671 1.174-1.63 1.2a9.233 9.233 0 0 0-3.9 1.33 2.694 2.694 0 0 1-2.465-.022.651.651 0 0 1-.049-.839c.733-.516.491-1.811 2.256-1.505a1.865 1.865 0 0 1 .389.146z" class="cls-1" data-name="Path 1186" transform="translate(-277.474 -1106.564)"/>
            <path id="Path_1187" d="M505.717 1160.809c-.1.621-.717.681-1.293.706-1.079.041-2.15-.066-2.361-1.022-.115-.561.594-.714 1.178-.654.974.108 2.059.181 2.476.97z" class="cls-1" data-name="Path 1187" transform="translate(-291.989 -1107.603)"/>
            <path id="Path_1188" d="M471.236 1160.589c.72-.021 1.453.072 1.628.706.169.615-.3 1.009-1.169 1.009-.938.009-1.74-.274-1.753-1.047-.007-.52.658-.589 1.294-.668z" class="cls-1" data-name="Path 1188" transform="translate(-264.623 -1107.857)"/>
            <path id="Path_1189" d="M499.261 1156.756c-1.562-.708-2.084-1.3-1.764-2.359 1.474.494 2.16 1.057 1.764 2.359z" class="cls-1" data-name="Path 1189" transform="translate(-290.431 -1105.781)"/>
            <path id="Path_1190" d="M463.273 1155.04c-.088.316-.282.627-.779.442-.741-.268-1.526-.6-1.518-1.3 0-.335.4-.543.855-.456.88.187 1.413.621 1.442 1.314z" class="cls-1" data-name="Path 1190" transform="translate(-260.086 -1105.549)"/>
            <path id="Path_1191" d="M491.577 1154.182c-.089.187-.178.368-.263.548-.248-.058-.638-.08-.719-.2s.136-.352.216-.536c.256.069.51.13.766.188z" class="cls-1" data-name="Path 1191" transform="translate(-281.455 -1105.647)"/>
            <path id="Path_1192" d="M513.267 1122.2a3.058 3.058 0 0 1-.623-.387c-1.854-1.889-2.7-1.908-4.21-.094-1.391 1.685-2.41 1.959-4.572 1.27a1.825 1.825 0 0 1-1.366-1.135c-.193-.709.7-.875 1.3-1.083a10.521 10.521 0 0 1 2.108-.385c2.414-.329 3.984-1.151 4.13-3.094.07-.907 3.8-2.062 4.775-1.6.907.429 1.342 2.718.23 3.52a3.724 3.724 0 0 0-1.772 2.988z" class="cls-1" data-name="Path 1192" transform="translate(-292.129 -1094.961)"/>
            <path id="Path_1193" d="M519.727 1159.716a8.029 8.029 0 0 1-3.593-.436c.037-.689.247-1.309 1.444-1.256a1.982 1.982 0 0 1 2.149 1.692z" class="cls-1" data-name="Path 1193" transform="translate(-296.712 -1106.997)"/>
            <path id="Path_1194" d="M480.948 1133.446c-.113.233-.126.508-.278.549a.7.7 0 0 1-.911-.335c-.043-.127-.778-.547.152-.522a3.92 3.92 0 0 1 1.037.308z" class="cls-1" data-name="Path 1194" transform="translate(-276.917 -1100.191)"/>
            <path id="Path_1195" d="M495.6 1122.129c-.113-.052-.222-.1-.331-.167.115-.045.23-.14.34-.14s.213.1.326.148c-.12.054-.224.106-.335.159z" class="cls-1" data-name="Path 1195" transform="translate(-289.714 -1096.98)"/>
            <path id="Path_1196" d="M492.689 1130.405c.127.041.37.1.358.127-.033.212-.188.175-.362-.121z" class="cls-1" data-name="Path 1196" transform="translate(-288.847 -1099.438)"/>
        </g>
        <g id="Group_15662" class="cls-2" data-name="Group 15662" transform="translate(70.978 1087.578)">
            <path id="Path_1197" d="M451.025 1147.027a30.548 30.548 0 0 1-9.049.854 176.838 176.838 0 0 0-20.518.5c-2.142.233-4.343.107-6.505.14a5.879 5.879 0 0 1-2.765.152c-1.6.107-3.2.222-4.793.327-2.729 1.344-5.769.316-8.647.557-7.612.635-15.286-.2-22.913.333-10.911-.193-21.814-.426-32.716-.8-12.235-.423-24.428-1.33-36.68-1.4-4.247-.021-8.446-.734-12.748-.354a12.175 12.175 0 0 1-3.727-.69c-2.975-.72-6.12-1.575-9.354-.5-.046.012-.107.07-.125.067-3.58-1.431-5.86-1.564-10.5-1.778-7.5-.352-15.042-.1-22.485-.928-3.606-.407-7.394.187-10.861-1-.49-.835.007-1.476.806-2.058a5.621 5.621 0 0 1 1.194-.373 11.342 11.342 0 0 1 1.3-.14c1.967-.041 3.942-.058 5.906 0a11.259 11.259 0 0 1 1.289.113c1.029.167 2.018.434 3.022.64a7.91 7.91 0 0 0 2.936.316c.226-.729-1.715-1.244-.429-2.064 11.65.473 23.258 1.341 34.883 2.015 11.762.689 23.559 1.125 35.344 1.676.877.041 1.755.173 2.619.274a3.591 3.591 0 0 0 2.791.016 23.576 23.576 0 0 1 6.14.452 3.816 3.816 0 0 0 3.639.114 26.232 26.232 0 0 1 6.1.242 8.192 8.192 0 0 0 1.859.177c.882 0 1.773-.011 2.658-.017.894.027 1.779.027 2.675.053 5.07 0 10.2-.627 15.15.716 1.537.4 2.989-.088 4.472-.214a8.549 8.549 0 0 1 3.539.193 6.74 6.74 0 0 0 4.524-.333c.53 0 1.068.006 1.594.006 1.91.822 4.04.58 6.084.58 6.061-.014 12.1-.207 18.133-.682.289.054.581.115.874.167a2.765 2.765 0 0 0 2.514 1.2c1.821.041 3.574-.516 5.4-.3 2.4.381 4.715-.467 7.1-.3a17.972 17.972 0 0 0 4.006-.427 37.8 37.8 0 0 1 5.79-.209 5.9 5.9 0 0 1 2.728.8c2.954 1.281 6.207.874 9.391.861 2.8-.006 5.593-.047 8.392-.08a.732.732 0 0 1-.037 1.106z" class="cls-1" data-name="Path 1197" transform="translate(-204.601 -1102.288)"/>
            <path id="Path_1198" d="M324.655 1127.35c11.111.041 22.19.8 33.293.983 17.321.275 34.64 1.127 51.995.635 5.768-.16 11.545-.461 17.306-.36a34.74 34.74 0 0 1 10.313 1.242c.855.278 1.08.605.933 1.188-1.717 1.918-4.524 1.384-6.988 1.61-7.521.574-15.025 1.5-21.609 1.149 10.49.04 21.977.788 33.507 1.083a4.647 4.647 0 0 1 1.378.4c.575.463.677.931.049 1.418-10.627.214-21.254.5-31.893.6-2.629.021-5.274-.453-7.942-.218-1.877.2-3.745.534-5.575-.148a36.374 36.374 0 0 0-7.01-.08c-1.521-.508-3.463-.763-2.991-2.5 1.852-1.25 4.235.307 6.317-.684-2.377-.44-4.656.014-6.91-.1-3.3-.094-6.584-.374-9.875-.6-.885-.138-1.731-.391-2.625-.485a10.012 10.012 0 0 0-.918.006 1.223 1.223 0 0 0-.669.374 5.085 5.085 0 0 0-.267.635 2.366 2.366 0 0 1-.318.674 2.779 2.779 0 0 1-.695.563 7.32 7.32 0 0 1-2.928 1.056 1.465 1.465 0 0 1-.887-.5c-.82-.893 1.564-2.492-1.267-2.932a18.386 18.386 0 0 0-2.2-.4 6.975 6.975 0 0 0-3.7.876c-1.062.516-1.183 1.484-2 2.119-1.8.761-3.361.89-4.271-.8 1.045-1.6 1.045-1.6-3.324-2.193-5.868-.3-11.722-.66-17.583-.819a25.069 25.069 0 0 0-3.469-.46 28.607 28.607 0 0 1-4.834-.342 5.185 5.185 0 0 1-2.215-1.174 1.858 1.858 0 0 1-.548-.9 1.1 1.1 0 0 1 .42-.916z" class="cls-1" data-name="Path 1198" transform="translate(-234.045 -1099.033)"/>
            <path id="Path_1200" d="M185.217 1139.25c-.276.52-.54 1.05-.806 1.57-5.761.432-11.5-.187-17.24-.288-7.081-.113-14.153-.613-21.253.008a21.082 21.082 0 0 1-5.634-.607c-3.861-.758-7.665.38-11.512.037a190.391 190.391 0 0 0-22.767-.861c-1.335.041-2.661.007-3.988.1-7.115.522-14.149.514-20.928-1.422-.515-.442-.465-.876.024-1.31a6.111 6.111 0 0 1 2.671 0 54.094 54.094 0 0 1 11.144-.645c-1.074-.374-3.425-.035-2.249-1.9q5.784-.009 11.575-.006c1.183-.007 2.369-.007 3.552.006q6.66.248 13.317.5c3.158-.641 5.151 1.322 7.812 1.8 5.581.467 11.2.434 16.779.512 11.684.183 23.329 1.117 35.032.81a9.844 9.844 0 0 1 1.493.187c1.168.325 2.439.545 2.978 1.509z" class="cls-1" data-name="Path 1200" transform="translate(-72.158 -1101.037)"/>
            <path id="Path_1202" d="M167.272 1101.653c-.429.017-.851.017-1.281.029a1.843 1.843 0 0 1-1.133-.1c-1.945-1.588-4.459-.214-6.633-.668a2.511 2.511 0 0 1-.985-.484c-2.215-.027-4.432-.035-6.645-.066a35.906 35.906 0 0 1-6.742-.831c-1.941-.4-4.591.156-6.936.107a5.174 5.174 0 0 1-2.455-.621c-1.057-.66-1.726-.962-2.636.113-.48.568-1.545.508-2.446.53-9.136.2-18.243.934-27.4.679-1.15-.031-2.4.224-3.271-.607 1.081-2.338 4.025-1.542 6.242-1.83a123.283 123.283 0 0 1 18.647-.641c.351-.187.756-.555 1.048-.516 6.758.915 13.59.1 20.356.469 3.071.173 6.087-.006 9.136-.019 6.078-.016 11.869 1.295 17.74 2.225a.775.775 0 0 1-.222 1.18c-1.309.685-3.192.126-4.384 1.051z" class="cls-1" data-name="Path 1202" transform="translate(-78.191 -1090.769)"/>
            <path id="Path_1204" d="M159.6 1103.525l.421-.019c-1.228 1.2-2.993.627-4.5.635-14.638.045-29.275.025-43.933.606h22.427c-.447.615-.593.937-.7.929-9.3-.553-18.614.053-27.9-.292-4.128-.154-7.7 1.229-11.7 1.414a23.907 23.907 0 0 1-7.248-.652 19.984 19.984 0 0 0-5.1-.991c-.161-.177-.324-.351-.486-.534 2.556-.467 4.65-2.337 7.485-1.7 3.431.767 6.73.066 10.088.031 9.023-.084 18.046-.2 27.061-.072 6.934.1 13.884-.335 20.81.432a6.829 6.829 0 0 0 4.921-1.045 1.012 1.012 0 0 0 .643-.062c2.448.819 5.573-.425 7.711 1.32z" class="cls-1" data-name="Path 1204" transform="translate(-72.213 -1091.928)"/>
            <path id="Path_1205" d="M192.507 1156.141c0 .343-.009.676-.009 1.022-12.44.286-24.877-.153-37.317-.272-2.72 1.215-5.673.625-8.584.647-7.452.063-14.9-.454-22.357.107l-.292-.012-.276.047c-2.315-.115-4.679.086-6.91-.576-1.3-.72-2.911-.709-4.4-1-1.158-.222-2.694-.467-1.6-1.8q27.431.462 54.863.928c4.723.08 9.431.121 14.151.061 4.238-.062 8.49.532 12.731.848z" class="cls-1" data-name="Path 1205" transform="translate(-82.108 -1107.106)"/>
            <path id="Path_1206" d="M294.308 1127.971a2.047 2.047 0 0 1 1.984 1.2c.677 1.1 1.208 2.278-.223 3.213a2.03 2.03 0 0 1-2.641-.354c-.124-.125-.225-.107-.475.066a4.865 4.865 0 0 1-5.519.148h.009c-.922-.674-.2-1.564-.593-2.239-.018.717.453 1.54-.387 2.245-3.013.2-5.908-.5-8.877-.639-6.483-.44-13.109.36-19.44-1.3-2.091-.553-4.445.871-6.455-.429-1.751-.652-3.45.649-5.194.074-1.477-.306-3.09.117-4.526-.407a2.248 2.248 0 0 0-1.929.167 2.927 2.927 0 0 1-2.826 0c-.18-.173-.405-.319-.584-.48-.79-.7-2.938-.756-2.507-1.912.379-1.015 2.154-.9 3.45-1.034 3.283-.4 6.63-2.346 9.78.214.283.08.568.167.851.247 2.36-.642 4.806-.416 7.247-.389a17.315 17.315 0 0 1 2.231.234c12.198.666 24.322 2.235 36.624 1.375z" class="cls-1" data-name="Path 1206" transform="translate(-156.304 -1098.496)"/>
            <path id="Path_1207" d="M454.8 1099.365c-6.3.481-12.522-.313-18.782-.493-.563-.876.138-1.368 1.033-1.818a2.47 2.47 0 0 1 .835.013c2.1 1.044 2.172-1.4 3.776-1.129 1.2.209 1.442 2.058 3.384 1.032.221-.268.452-.29.685-.01a19.279 19.279 0 0 1 7.692-.2 19.068 19.068 0 0 0 6.146-.047c2.868-.383 5.557.339 8.34.325a1.422 1.422 0 0 1 1.1.316c1.295 1.2 1.486 1.281 2.821.308a3.961 3.961 0 0 1 2.815-.508c.972.058 2.664.148.511 1.1-.483.214-.132.556.377.588 1.158.08 2.568.5 3.425-.115 2.414-1.723 5.106-1.156 7.832-.847.29 1.931-.956 2.438-3.428 2.358-5.444-.187-10.893-.22-16.338-.272-3.225-.029-6.362-.923-9.624-.51a2.919 2.919 0 0 0-2.6-.091z" class="cls-1" data-name="Path 1207" transform="translate(-271.472 -1090.491)"/>
            <path id="Path_1209" d="M314.366 1134.161c1.751-.508 4.129.835 5.468-1.007.444-.63.635.094.677.226a1.493 1.493 0 0 0 2 .775c1.166-.36.464-1.024.181-1.59s.384-.976.531-1.476a24.353 24.353 0 0 1 5.145-.008c.781 1.271-1.847 1.042-1.822 2.014 1.3-1 3.1-1.1 4.665-1.572 6.555-.035 13.088.339 19.613.748.1 2.05-2.2 1.877-3.951 2.157-1.632.255-3.158-.432-4.841-.373-.422-.226-.265.675-.079.275.034-.061.166-.008.429.074a3.41 3.41 0 0 1 1.667 1.007c.455.915-.1 1.51-1.2 1.933a209.676 209.676 0 0 0-23.2-1.271c-2.167.019-4.549.18-5.283-1.912z" class="cls-1" data-name="Path 1209" transform="translate(-194.724 -1100.197)"/>
            <path id="Path_1210" d="M357.223 1138.085c.279-.609.551-1.219.823-1.824a3.855 3.855 0 0 1 3.824-1 30.641 30.641 0 0 0 6.051.261c1 1.531 1.368 1.6 3.487.681.932-.481.9-1.322 1.4-1.965 1.17-1.269 2.982-1.1 4.727-1.075.684.019.529 1.782 1.87.473 2.377-.534 2.948.475 2.664 1.8-.133.594-.517 1.17-.38 1.81l.029.16.017-.168a5.224 5.224 0 0 1 2.985-1.09l-.017.033c-.01-.434-.017-.867-.017-1.3.7-.335 1.22-.81 1.953-1.124.94-.025 1.981-.313 2.642.481.84 1.805 3.383 2.754 4.372 4.478a2.3 2.3 0 0 1-1.891.641c-8.86-.9-17.8-.45-26.684-.729-2.632-.076-5.178-.828-7.855-.543z" class="cls-1" data-name="Path 1210" transform="translate(-216.775 -1100.843)"/>
            <path id="Path_1211" d="M113.353 1146.093a27 27 0 0 1 9.776-.123 59.813 59.813 0 0 0 8.742.142c5.665-.16 11.349-.014 17.026.052 1.911.019 3.167 1.618 5.3 1.25l-.017-.014c-1.067 2.1-3.815 1.729-5.9 1.765a69.941 69.941 0 0 1-11.306-.59 24.469 24.469 0 0 0-9.479.417 7.148 7.148 0 0 1-3.419-.421 11.086 11.086 0 0 0-5.621-.183 5.669 5.669 0 0 1-5.206-.988c-.523-.46-.523-.892.104-1.307z" class="cls-1" data-name="Path 1211" transform="translate(-83.009 -1100.693)"/>
            <path id="Path_1212" d="M485.47 1133.62c2.355-.222 4.8.033 7.041-.722 1.833 1.5 4.269.689 6.25.561 5.007-.319 9.857-.7 14.924.148 3.192.541 6.747.035 10.139-.008l11.321.066c-1.3 2.187-4.168 1.938-6.624 2-5.771.161-11.546.029-17.318.067-1.866.015-3.588-.171-5.252 1.037-1.84 1.338-4.49.556-6.811.361-3.089-.02-6.191-.047-9.282-.058-1.658 0-1.321-.131-2.189-1.459-.42-.632-3.107-.295-2.199-1.993z" class="cls-1" data-name="Path 1212" transform="translate(-288.062 -1100.833)"/>
            <path id="Path_1213" d="M192.156 1091.728c7.249-.617 14.41.506 21.629.565 7.64.068 15.275-.092 22.924.189 4.257.153 8.422.067 12.552.968a10.049 10.049 0 0 0 4.8-.228.875.875 0 0 1 1.031.4c.205.446-.059.9-.685 1.014a10.575 10.575 0 0 1-4.37-.025 25.455 25.455 0 0 0-5.693-.45c-9.95-.294-19.909-.662-29.858-.888-3.977-.085-7.978.289-11.934.142-3.434-.134-6.921.133-10.307-.5-.528-.373-.545-.772-.089-1.187z" class="cls-1" data-name="Path 1213" transform="translate(-133.863 -1089.024)"/>
            <path id="Path_1214" d="M216.638 1126.771c-.138.89-.895 1.157-2.072 1.289-3.422.381-6.6-.72-9.948-.773a1.179 1.179 0 0 1-1.282-1.41c.209-1.5-1.483-1.57-2.72-2a1.373 1.373 0 0 1-.522-1.21c0-.346.728-.845.146-1.006-1.117-.316-1.579.66-2.456.927a3.1 3.1 0 0 1-1.8-.1 4 4 0 0 0-2.914-.982c-1.558.113-2.84-.276-2.793-1.684.9-1.745 2.965-1.531 4.859-1.416 2.068.127 4.094.5 6.188.446.764-.006 1.529-.006 2.293-.006a84.425 84.425 0 0 1 16.594.942c1.074.347 1.625.908 1.089 1.749a2.6 2.6 0 0 1-2.958.824c-2.7-.665-5.494-.368-8.251-.509a6.239 6.239 0 0 0-4.344.981c1.244.931 1.776-.052 2.514-.461a1.84 1.84 0 0 1 2.549.281c-.276 2.989 4.39 2.375 5.828 4.118z" class="cls-1" data-name="Path 1214" transform="translate(-130.473 -1096.466)"/>
            <path id="Path_1216" d="M83.871 1126.5c.611-.019 1.229-.04 1.836-.066 1.126-.068 1.77-.516 1.992-1.3a4.773 4.773 0 0 1 2.414-.231c-.042.352.53.734.592.673 2.757-2.811 6.308-1.055 9.479-1-.532-.607-2.362.429-2.569-.86 1.786-1.571 4.364-1.517 6.809-1.742a24.433 24.433 0 0 1 5.564.125c1.416.253 2.912.58 2.152 2.056l-.262-.1c-1.022.938-2.275.72-3.615.352.79.651 2.79.121 2.773 1.311-.008.888-1.252.58-2.059.619.067.156.221.035.334.06.865.209 1.768.41.618 1.171q-11.966.181-23.926.368a5.7 5.7 0 0 1-3.325-.649c-.155-.681.275-.922 1.193-.787z" class="cls-1" data-name="Path 1216" transform="translate(-72.803 -1097.597)"/>
            <path id="Path_1217" d="M113.245 1097.281c-1.416.76-3.063.534-4.645.528a92.872 92.872 0 0 0-20.244 1.943c-6.808-.512-13.625.481-20.522-.253.888-.187 1.77-.373 2.656-.555a8.686 8.686 0 0 1 3.647-1.045c10.214-1.024 20.51-.911 30.787-1.1a57.473 57.473 0 0 1 8.321.482z" class="cls-1" data-name="Path 1217" transform="translate(-67.835 -1090.784)"/>
            <path id="Path_1218" d="M526.077 1145.9a6.711 6.711 0 0 1-2.711.025c-2.114-.166-4.331-1.235-6.207.395a7.171 7.171 0 0 1-3.605.209.848.848 0 0 1-.327-1.151c.633-.808 2.035-.728 2.9-1.281 3.647-.277 7.339-1.223 10.928-.711 3.76.542 7.075-1.479 10.731-.52 3.211-1.7 7.4.209 10.464-1.649.885.874-1 1.014-.484 1.731.431.586 1.841.238 1.895 1.407-3.65-.662-7.076.489-10.947-.052-3.847-.53-8.088.413-12.152.762-.207.024-.331.551-.485.835z" class="cls-1" data-name="Path 1218" transform="translate(-297.399 -1103.212)"/>
            <path id="Path_1219" d="M166.664 1091.549c.025.391.051.793.084 1.188q-12.789.009-25.568.006h-25.355c.655-1.162 1.908-1.135 3.007-1.121 7.626.118 15.224-.113 22.832-.594a27.743 27.743 0 0 1 4.771.421c4.7.534 9.376-.027 14.064-.014 2.052.007 4.119-.356 6.165.114z" class="cls-1" data-name="Path 1219" transform="translate(-83.931 -1088.845)"/>
            <path id="Path_1220" d="M368.465 1098.081c-6.786-.033-13.637.327-20.336-.228-5.07-.413-10.267.188-15.211-.981-.705-.769.276-.99.841-1.342 7.5.206 15.027.234 22.487.7 3.263.207 6.292.508 9.417-.434.773-.234 1.967.251 2.97.4.667.67.593 1.291-.168 1.885z" class="cls-1" data-name="Path 1220" transform="translate(-204.138 -1090.361)"/>
            <path id="Path_1221" d="M81.574 1120.608a30.267 30.267 0 0 1-10.169-.95c-.222-1.215 1.82-.786 2.158-1.555 1.535-.908 3.726-.4 5.26-1.309-1.1-.847-4.73.006-3.484-2.537h.009a3.993 3.993 0 0 1 2.017-.782 99.365 99.365 0 0 1 12.92.12 3.828 3.828 0 0 1 1.2.493c1.236 2.025-.452 2.627-2.762 2.792-1.745.128-3.574.01-3.754 1.77-.512 1.208-2.103 1.45-3.395 1.958z" class="cls-1" data-name="Path 1221" transform="translate(-69.027 -1095.094)"/>
            <path id="Path_1222" d="M260.534 1131.625c1.992-.407 4.411.483 6.045-1.059.274-.257 1.116-.142 1.152.093.456 2.969 3.6 1.307 5.355 1.436 3.013.206 6.166.829 9.162-.16 1.01-.327 1.252.152 1.519.659.5.952 1.751.551 2.662.765-.18 1.248-.832 1.978-2.867 1.556-.964-.195-2.063-.041-3.031-.222-6.149-1.133-12.544-.246-18.735-1.241-2.015-.328-1.167-1.111-1.262-1.827z" class="cls-1" data-name="Path 1222" transform="translate(-165.791 -1100.115)"/>
            <path id="Path_1223" d="M505.626 1137.133a4.523 4.523 0 0 1 2.506-.294c1.852.274 1.872.214 4.273-1.256a5.308 5.308 0 0 1 2.912-.346c6.757.109 13.513 0 20.271-.175a17.591 17.591 0 0 0 6.264-1.008h6.089c-.025 1.359-1.908 1.069-2.273 1.818-6.011.7-12.078 1.069-18.118 1.591-1.279-.075-2.563-.069-3.842-.075-.754 0-1.5.006-2.246.039-4.4.088-8.662 1.19-13.109.995a9.79 9.79 0 0 1-2.9-.333l-.05-.166.2-.094c-.283-.163-.377-.323-.277-.474s.203-.222.3-.222z" class="cls-1" data-name="Path 1223" transform="translate(-294.769 -1101.177)"/>
            <path id="Path_1224" d="M214.906 1139.021h.05c-9.064-1.116-18.285-.575-27.393-1.3-2.778-.22-5.619.288-8.387-.333-.8-.442-.857-.97-.314-1.55 6.746-.354 13.482.14 20.22.288 4.7.1 9.386.314 14.074.473a8.017 8.017 0 0 1 3 .36.954.954 0 0 1 .446.857c-.297.605-.527 1.243-1.696 1.205z" class="cls-1" data-name="Path 1224" transform="translate(-124.906 -1101.701)"/>
            <path id="Path_1225" d="M316.494 1096.08c-2.034.947-4.406.693-6.423.377a60.261 60.261 0 0 0-11.827-.426c-2.811.115-5.429-.988-8.254-.385-.712.153-.953-.409-1-.829a.873.873 0 0 1 .689-1.069c1.68-.34 3.889-.9 5.064-.281 2.231 1.168 5.159-.222 7 1.383 2.05-1.548 4.515.013 6.62-.437 2.051-.438 3.714.565 5.611.376.579.696 2.968-.446 2.52 1.291z" class="cls-1" data-name="Path 1225" transform="translate(-180.504 -1089.575)"/>
            <path id="Path_1226" d="M446.178 1154.958a11.719 11.719 0 0 1 5.05-.9c8.832.027 17.678.011 26.511.011.166 1.392 2.1.582 2.717 1.005-6.873.473-14.048-.643-20.94.974-1.5.356-2.561-1.256-3.78-.039-4.525-.641-4.6-.782-7.323-.066-1.701.437-1.471-.708-2.235-.985z" class="cls-1" data-name="Path 1226" transform="translate(-268.538 -1107.104)"/>
            <path id="Path_1227" d="M131.228 1158.821a2.967 2.967 0 0 1 2.583-.987c9.453.011 18.909-.162 28.358.233.009 1.155-.668 1.7-2.394 1.748a48.641 48.641 0 0 1-9.227-.646 2.514 2.514 0 0 0-2.69.066c-1.107 1.275-2.165 2.377-4.328.707a4.336 4.336 0 0 0-3.706-.7c-3.065 1.089-5.739-.402-8.596-.421z" class="cls-1" data-name="Path 1227" transform="translate(-89.097 -1108.149)"/>
            <path id="Path_1228" d="M226.494 1128.14c-1.544-.335-3.108-.635-4.629-1.022-2.577-.654-2.561-.681-1.646-2.951 1.939-1.057 4.162-.783 6.328-.668 1.793.086 3.33.647 5.134-.689 1.6-1.188 1.614.627 2.085 1.322a2.362 2.362 0 0 1-1.023 2.079c-.848.039-1.688.072-3.165.138 1.649.683 3.045 1.11 3.329 2.231-.247.368-.59.427-1.045.188-1.778-.268-3.48-.863-5.368-.628z" class="cls-1" data-name="Path 1228" transform="translate(-144.075 -1097.738)"/>
            <path id="Path_1229" d="M409.726 1139.279c-2.551-.936-5.32-1.772-4.372-4.47 3.568.091 7.195-.193 10.618.849.593.315 1.048.681 1.014 1.25.009.566.31.974 1.132 1.121.972.166 1.394.647 1.437 1.33l.229.086-.069.181c-1.631.418-3.035-.524-4.62-.4l-5.369.053z" class="cls-1" data-name="Path 1229" transform="translate(-237.318 -1101.376)"/>
            <path id="Path_1230" d="M330.172 1103.184c-.4.777-.789 1.554-1.22 2.418-1.45-.456-2.377-1.583-4.079-.1-.816.72-3.671.621-5.424.333-3.793-.629-7.607-.12-11.366-.474-1.037-.441-2.593-.606-1.913-1.924 4.412.193 8.85-.253 13.246.348a2.534 2.534 0 0 0 2.135.012c2.708-1.44 5.734-.521 8.621-.613z" class="cls-1" data-name="Path 1230" transform="translate(-188.723 -1092.173)"/>
            <path id="Path_1231" d="M122.222 1128.673c-.216-1.236-2.054-.489-2.922-1.236 1-.613 2.243-.212 3.207-.555-.636-.676-2.31-.391-2.66-1.481 1.449-.078 2.891-.162 4.326-.24.377.767 1.346.993 2.215 1.4 2.54 1.209 2.49 1.195 4.007 1.3 5.864.4 11.746.627 17.644.609.953-.009 1.788.133 1.819 1-8.216.239-16.388-.676-24.613-.409a19.9 19.9 0 0 1-3.023-.388z" class="cls-1" data-name="Path 1231" transform="translate(-85.096 -1098.597)"/>
            <path id="Path_1232" d="M235.21 1138.193c-.02-.2-.037-.4-.062-.6 5.709.095 11.454-.127 17.076.89.155.286.2.654.484.855.815.588 3.242.241 2.473 1.649-.517.942-2.363.508-3.635.442a10.612 10.612 0 0 1-2.07-.534c-.816-.5-1.56-1.142-2.8-.591l-.282.035-.284-.018c-2.447-1.018-4.909-.675-7.376-.035l-.368.047-.379-.039c-.848-.752-2.642-.864-2.777-2.101z" class="cls-1" data-name="Path 1232" transform="translate(-152.393 -1102.22)"/>
            <path id="Path_1233" d="M477.639 1146.677a1.756 1.756 0 0 1-1.65.9c-6.519-.238-12.9 1.156-19.446.763-1.6-.093-3.024-.058-3.121-1.563a3.456 3.456 0 0 1 .819-.234c7.805-.204 15.607-.434 23.398.134z" class="cls-1" data-name="Path 1233" transform="translate(-263.56 -1104.842)"/>
            <path id="Path_1234" d="M295.725 1103.064q.951.964 1.913 1.924c-2.078.436-4.095-.121-6.061-.333-5.452-.6-11.078.026-16.417-1.2a.775.775 0 0 1 .146-1.311c2.373-.222 4.741.822 7.117.012.209-.333.49-.385.869-.119a40.337 40.337 0 0 0 9.023.742 8.714 8.714 0 0 1 3.41.285z" class="cls-1" data-name="Path 1234" transform="translate(-172.758 -1091.846)"/>
            <path id="Path_1235" d="M393.612 1105.338c-2.725 1.945-2.717 1.883-8.159 1.706-1.982-.067-3.994.36-6.019.16-.6-.45-.532-.907-.034-1.369 1.571-.389 3.282.1 4.5-.208-2.045 0-4.423.119-6.809.253a3.431 3.431 0 0 1-1.158-.594 2.557 2.557 0 0 0-.3-.6c1.066-1 2.611-.655 3.994-.676 2.3-.041 4.609-.017 6.913-.017a2.531 2.531 0 0 0 1.818.233 9.22 9.22 0 0 1 4.836.5c.377-.047.579.06.6.333.015.18-.066.279-.182.279z" class="cls-1" data-name="Path 1235" transform="translate(-223.057 -1092.458)"/>
            <path id="Path_1237" d="M471.024 1105.518q-8.059-.082-16.123-.148c-1.184-.011-2.431.047-2.507-1.176 9.273.066 18.546-.259 27.8.167.3.019.579.42 1 .748-1.973.6-3.9.226-5.732.373a.735.735 0 0 1-.983.012z" class="cls-1" data-name="Path 1237" transform="translate(-270.583 -1092.529)"/>
            <path id="Path_1239" d="M511.129 1105.227c7.491-.173 14.885 1.024 22.424.789-2.051 1.622-4.689.995-7.05.978a69.9 69.9 0 0 0-7.846.633c-2.721.275-5.1-.867-7.659-1.317-.428-.388-.598-.759.131-1.083z" class="cls-1" data-name="Path 1239" transform="translate(-296.563 -1092.831)"/>
            <path id="Path_1241" d="M265.935 1101.838c-.05.434-.1.877-.146 1.311a131.937 131.937 0 0 1-18.655-.5.514.514 0 0 1 .07-.874c1.313-.931 2.967-.849 4.6-.775 4.712.215 9.469.148 14.131.838z" class="cls-1" data-name="Path 1241" transform="translate(-158.23 -1092.181)"/>
            <path id="Path_1242" d="M78.34 1110.187c3.718.693 7.512.133 11.254.347 2.464.134 4.945.086 7.418.121a1.171 1.171 0 0 1 .582 1.306c-.523 1.065-1.826 1.334-3.15 1.587a2.464 2.464 0 0 1-1.814-.436l.009.021c-4.917-1.244-10.035-.269-15.033-.681-1.7-.389-3.544-.722-1.568-2.358.762.033 1.535.058 2.302.093z" class="cls-1" data-name="Path 1242" transform="translate(-70.3 -1094.239)"/>
            <path id="Path_1244" d="M537.206 1137.434c6.243-.319 12.447-1.006 18.734-.687a3.964 3.964 0 0 0 .761.067c.251.107.34.225.276.354s-.134.2-.213.2c-4.586.442-9.274.415-13.655 1.766a10.68 10.68 0 0 1-6.752.187c-.998-.93-.184-1.433.849-1.887z" class="cls-1" data-name="Path 1244" transform="translate(-305.039 -1101.984)"/>
            <path id="Path_1245" d="M386.528 1098.42c.058-.629.109-1.256.169-1.879l19.316.708c.765.133 1.219.415.989 1.036-5.192 1.2-10.451.121-15.668.181-1.606.014-3.204-.034-4.806-.046z" class="cls-1" data-name="Path 1245" transform="translate(-228.96 -1090.7)"/>
            <path id="Path_1246" d="M534.7 1117.56a5.516 5.516 0 0 1-3.948 1.209c1.467-1.221-2.709-2.256.419-3.532-2.66-.73-5.7-.322-8.13-1.541q8.229.024 16.454.041c.052.249.1.5.151.742-2.36.722-4.291 2.078-7.168 1.971.052 1.36 1.36.977 2.222 1.11z" class="cls-1" data-name="Path 1246" transform="translate(-300.725 -1095.254)"/>
            <path id="Path_1247" d="M402.474 1105.394c-.14-.2-.285-.413-.421-.613 2.591-1.209 5.458-.366 8.079-.288 4.943.148 9.891.041 14.835.233-.774 1.13-2.165 1.182-3.71 1.243a117.51 117.51 0 0 1-13.469-.479c-1.804-.148-3.638 1.382-5.314-.096z" class="cls-1" data-name="Path 1247" transform="translate(-237.244 -1092.524)"/>
            <path id="Path_1249" d="M94.224 1133.825c1.3 1.13 1.3 1.13 4.671 1.71-5.058.989-9.186 1.676-13.566.833.712-.361 1.193-.8.977-1.469.407-1.6 2.749-.132 3.522-1.148a12.935 12.935 0 0 1 4.396.074z" class="cls-1" data-name="Path 1249" transform="translate(-73.702 -1101.087)"/>
            <path id="Path_1250" d="M540.02 1111.081c-.055.779-.754.813-1.273.819-4.867.043-9.748.054-14.613.048-.879 0-2.053-.035-2.09-.81-.034-.814 1.141-.9 2-.795 4.257.555 8.551.207 12.825.294a6.221 6.221 0 0 1 3.151.444z" class="cls-1" data-name="Path 1250" transform="translate(-300.391 -1094.332)"/>
            <path id="Path_1252" d="M86.708 1122.9c-.191-1.484 1.945-.869 2.687-1.531 1.475-1.77 3.664-1.18 5.768-.9 1.3.942 4.412 1.049 2.954 3.275-2.071.072-4.147.393-6.182-.16a24.026 24.026 0 0 1-5.227-.684z" class="cls-1" data-name="Path 1252" transform="translate(-74.161 -1097.156)"/>
            <path id="Path_1253" d="M509.708 1139.3a52.763 52.763 0 0 0 8.226-.8 9.534 9.534 0 0 1 4.753-.025c.936.152 1.849-.173 2.793-.06.705.435.843.9.159 1.406-5.276.792-10.618.3-15.932.449-.576-.323-.594-.645.001-.97z" class="cls-1" data-name="Path 1253" transform="translate(-296.106 -1102.463)"/>
            <path id="Path_1254" d="M367.185 1104.45a3.227 3.227 0 0 1-3.456 1.923c-1.753-.094-3.541.148-5.28.039-1.9-.113-3.839-.379-4.541-1.984.712.027 1.421.054 2.143.088a8.655 8.655 0 0 1 2.47-.08c1.965.627 1.473-.763 2.113-1.19 2.266.174 4.624.102 6.551 1.204z" class="cls-1" data-name="Path 1254" transform="translate(-211.365 -1092.25)"/>
            <path id="Path_1255" d="M228.558 1101.792c-4.044.922-8.179.28-12.269.4a2.593 2.593 0 0 1-3.079-.35 1.1 1.1 0 0 1 .4-1.419 31.434 31.434 0 0 1 6.292.027c2.063-.475 4.14.855 6.191-.035.861 0 1.721-.006 2.578-.006.739.491.763.963-.113 1.383z" class="cls-1" data-name="Path 1255" transform="translate(-140.933 -1091.948)"/>
            <path id="Path_1257" d="M499.327 1148.188c-1.778.749-3.71.08-5.55.313-1.208-.545-.959-1.221-.306-1.921.18-.758.865-1.055 1.866-1.049 2.187.007 4.42-.3 6.55.34a1.23 1.23 0 0 1-.019 1.275 3.564 3.564 0 0 1-2.541 1.042z" class="cls-1" data-name="Path 1257" transform="translate(-290.624 -1104.548)"/>
            <path id="Path_1258" d="M92.25 1089.759c-2.548-.019-5.106-.045-7.654-.066a2.917 2.917 0 0 1 2.153-.995c4.67-.339 9.282-1.143 14.019-.9.413.02.859.088.989.775-2.937 1.066-6.525.127-9.507 1.186z" class="cls-1" data-name="Path 1258" transform="translate(-73.457 -1087.752)"/>
            <path id="Path_1259" d="M543.411 1096.515c-5.771.7-11.244-.088-16.7-1.055a73.43 73.43 0 0 1 16.7 1.055z" class="cls-1" data-name="Path 1259" transform="translate(-301.956 -1090.29)"/>
            <path id="Path_1260" d="M78.6 1094.4c-.242-.968.548-1.188 1.666-1.435 3.268-.729 6.685-.242 9.964-.762.886.072 1.771.138 2.664.214.283.165.351.322.222.44a.492.492 0 0 1-.342.181c-4.54 1.428-9.508.562-14.174 1.362z" class="cls-1" data-name="Path 1260" transform="translate(-71.432 -1089.245)"/>
            <path id="Path_1261" d="M169.645 1135.574c-.009.3-.021.607-.027.915a1.8 1.8 0 0 1-2.095.795c-4.9-.921-9.916-.039-14.829-.536-.728-.086-1.579-.218-1.658-.793-.119-.794.859-.917 1.7-1.035l16.909.654z" class="cls-1" data-name="Path 1261" transform="translate(-109.809 -1101.501)"/>
            <path id="Path_1263" d="M253.787 1156.986a10.2 10.2 0 0 1-3.32-.128c.015-.479-.249-1.476.471-1.281 2.49.67 4.6-.754 7.041-.335 2.367.417 4.857.489 7.253 1.151h-8.75c-.982-.001-2.102-.314-2.695.593z" class="cls-1" data-name="Path 1263" transform="translate(-159.593 -1107.434)"/>
            <path id="Path_1264" d="M479.754 1109.846c-1.762-.067-3.532-.24-5.284-.184a4.8 4.8 0 0 1-4.052-1.694c1.1-.35 2.083-1.448 3.055.129 1.031 1.665 2.343.568 3.58.2q4.342.322 8.679.641c.65.261.663.522.01.791-1.99.038-3.997.071-5.988.117z" class="cls-1" data-name="Path 1264" transform="translate(-276.81 -1093.431)"/>
            <path id="Path_1265" d="M238.018 1131.505c.343-.058.695-.127 1.045-.187a5.363 5.363 0 0 0 2.352-.533 1.952 1.952 0 0 1 1.917.093c.249.1.564.316.736.267 2.4-.649 2.4-.655 3.753.617a1.167 1.167 0 0 1-1.047.859c-2.25.074-4.507.088-6.766.127-1.184.021-1.88-.375-1.99-1.243z" class="cls-1" data-name="Path 1265" transform="translate(-152.917 -1100.242)"/>
            <path id="Path_1266" d="M107.158 1146.292c-.037.434-.07.872-.107 1.308a11.3 11.3 0 0 0-3.407.462 11.611 11.611 0 0 1-1.932.166 12.372 12.372 0 0 1-7.314-1.095c4.928.228 8.662-1.382 12.76-.841z" class="cls-1" data-name="Path 1266" transform="translate(-76.744 -1104.798)"/>
            <path id="Path_1267" d="M194.187 1123.84c.618.008 1.228.013 1.838.013a2.43 2.43 0 0 1 2.625.06c.011.52.011 1.042.019 1.562-1.462-.068-2.928-.134-4.39-.2-1.312-.934-2.459-.094-3.661.187a2.016 2.016 0 0 1-1.759-.226c-.565-.889-1.475-.8-2.456-.434-1.3.5-1.8.061-1.938-.829 1.365-1.053 3.082-.943 4.816-.748.49.027.97.035 1.459.035a5.275 5.275 0 0 1 3.447.58z" class="cls-1" data-name="Path 1267" transform="translate(-126.408 -1098.05)"/>
            <path id="Path_1269" d="M236.361 1101.841c.037-.462.079-.921.113-1.385a14.036 14.036 0 0 1 7.188 1.132c-.021.292-.046.586-.07.874-2.601.981-4.892.005-7.231-.621z" class="cls-1" data-name="Path 1269" transform="translate(-151.876 -1091.996)"/>
            <path id="Path_1272" d="M149.548 1134.724c.129.555-2.088.391-.774 1.309.352.617-.326.843-.813 1.137-.147 0-.379.045-.414 0-1.39-1.61-3.881-1.907-6.036-2.594a25.887 25.887 0 0 1 8.037.148z" class="cls-1" data-name="Path 1272" transform="translate(-92.546 -1101.315)"/>
            <path id="Path_1273" d="M94.258 1125.271q3.283-.052 6.583-.088l.276-.013c1.254.173 2.6-.195 4.654.627h-9.454c-.1.9 1.846.888.947 1.649a2.94 2.94 0 0 1-3.574-.526c-.18-.215.052-.609.094-.915.165-.247.316-.494.474-.734z" class="cls-1" data-name="Path 1273" transform="translate(-76.484 -1098.649)"/>
            <path id="Path_1276" d="M99.95 1092.81a1.033 1.033 0 0 1 .12-.621 11.8 11.8 0 0 1 8.413.226c-2.945 1.591-5.82.095-8.533.395z" class="cls-1" data-name="Path 1276" transform="translate(-78.604 -1089.018)"/>
            <path id="Path_1277" d="M78.087 1137.543c-.009.434-.016.874-.024 1.31-2.181.053-4.388.177-6.363-1.123 2.2-1.143 4.311-.415 6.387-.187z" class="cls-1" data-name="Path 1277" transform="translate(-69.131 -1102.162)"/>
            <path id="Path_1278" d="M542.8 1100.7c3.827-.668 6.4-.4 8.716.921a26.823 26.823 0 0 1-8.716-.921z" class="cls-1" data-name="Path 1278" transform="translate(-307.351 -1091.977)"/>
            <path id="Path_1279" d="M533.934 1126.17c.058-.722-.143-1.638 1.278-1.745a29.323 29.323 0 0 1 4.844 0c.6.06.217.7-.028 1.074a36.752 36.752 0 0 0-6.094.671z" class="cls-1" data-name="Path 1279" transform="translate(-304.379 -1098.425)"/>
            <path id="Path_1280" d="M559.315 1150.454c.009-.368.027-.742.037-1.11 2.216-.418 4.4-.066 7.119.156-2.413 1.468-4.855.959-7.156.954z" class="cls-1" data-name="Path 1280" transform="translate(-312.892 -1105.699)"/>
            <path id="Path_1281" d="M505.693 1146.9c.158-.349.31-.693.467-1.042a30.9 30.9 0 0 1 7.47-.346c-.349.987-1.692.981-2.647 1.375a7.479 7.479 0 0 1-5.29.013z" class="cls-1" data-name="Path 1281" transform="translate(-294.907 -1104.591)"/>
            <path id="Path_1282" d="M434.9 1097.575c-.342.61-.685 1.209-1.033 1.818a1.119 1.119 0 0 1-1.746.078c-.359-.987-3.033.255-2.692-1.429 1.695-.959 3.633-.406 5.471-.467z" class="cls-1" data-name="Path 1282" transform="translate(-247.818 -1091.012)"/>
            <path id="Path_1283" d="M229.528 1099.868c-2.042 1.478-4.111.9-6.191.035.869-1.089 1.847-1.91 3.445-.574.781.648 1.864.29 2.746.539z" class="cls-1" data-name="Path 1283" transform="translate(-145.295 -1091.403)"/>
            <path id="Path_1284" d="M448.741 1146.9c-1.329 1.982-2.6 2.084-4.524.333 1.383-.943 2.995-.316 4.524-.333z" class="cls-1" data-name="Path 1284" transform="translate(-255.012 -1104.971)"/>
            <path id="Path_1285" d="M88.24 1133.7c-.687 1.154-2.662.272-3.522 1.148l-3.561-.078c-.764-.442-.739-.89.017-1.326 2.353.095 4.714.174 7.066.256z" class="cls-1" data-name="Path 1285" transform="translate(-72.115 -1101.106)"/>
            <path id="Path_1288" d="M436.635 1147.006c-2.744 1.649-3.031 1.669-4.472.214a5.09 5.09 0 0 1 4.472-.214z" class="cls-1" data-name="Path 1288" transform="translate(-249.008 -1104.94)"/>
            <path id="Path_1289" d="M212.1 1100.105c0 .384-.008.761-.008 1.148a3.05 3.05 0 0 1-3.5-.066c.05-.3.1-.6.143-.9 1.014-1.097 2.112-1.399 3.365-.182z" class="cls-1" data-name="Path 1289" transform="translate(-137.764 -1091.632)"/>
            <path id="Path_1290" d="M80.4 1090.57c-2.6 1.486-5.525.657-8.34.622 2.627-1.249 5.564-.407 8.34-.622z" class="cls-1" data-name="Path 1290" transform="translate(-69.252 -1088.67)"/>
            <path id="Path_1291" d="M437.367 1141.7a17.791 17.791 0 0 1 5.575.148c-2.36 1.101-3.967 1.052-5.575-.148z" class="cls-1" data-name="Path 1291" transform="translate(-251.796 -1103.488)"/>
            <path id="Path_1292" d="M427.656 1098.215c.4.962 2.492.288 2.692 1.429-1.616-.06-3.24-.1-4.853-.2-.551-.025-1.236-.033-1.366-.567-.183-.769.714-.863 1.386-.888a13.172 13.172 0 0 1 2.141.226z" class="cls-1" data-name="Path 1292" transform="translate(-245.312 -1091.184)"/>
            <path id="Path_1293" d="M420.107 1141.219c1.755-1.154 3.1.18 4.62.4-1.797 1.411-3.175.312-4.62-.4z" class="cls-1" data-name="Path 1293" transform="translate(-243.038 -1103.237)"/>
            <path id="Path_1296" d="M329.107 1096.789c-.377-.9-2.059-.481-2.526-1.291a18.882 18.882 0 0 1 5.135-.045c-.282.446-.554.9-.841 1.342-.59-.006-1.175-.006-1.768-.006z" class="cls-1" data-name="Path 1296" transform="translate(-196.588 -1090.284)"/>
            <path id="Path_1297" d="M416.839 1098.574c-.326-.346-.649-.689-.98-1.036a2.843 2.843 0 0 1 2.419.263c.415.354 1.137.9.34 1.309a1.482 1.482 0 0 1-1.779-.536z" class="cls-1" data-name="Path 1297" transform="translate(-240.669 -1090.989)"/>
            <path id="Path_1298" d="M80.3 1133.339c-.007.444-.007.884-.017 1.326-1.119.2-2.337-.068-2.292-.831.071-1.007 1.354-.721 2.309-.495z" class="cls-1" data-name="Path 1298" transform="translate(-71.241 -1101.003)"/>
            <path id="Path_1299" d="M119.682 1133.733a2.782 2.782 0 0 1-3.552-.006 4.018 4.018 0 0 1 3.552.006z" class="cls-1" data-name="Path 1299" transform="translate(-84.033 -1101.079)"/>
            <path id="Path_1300" d="M533.373 1139.657a1.049 1.049 0 0 0-.8-1.2c-.221-.115-.3-.228-.229-.347s.14-.173.211-.173a10.434 10.434 0 0 1 3.445-.156c-.353.614-.919 1.174-.85 1.885-.59-.009-1.177-.009-1.777-.009z" class="cls-1" data-name="Path 1300" transform="translate(-303.839 -1102.329)"/>
            <path id="Path_1301" d="M387.529 1145.662c-1.667 1.455-2.19 1.443-3.639-.114a10.254 10.254 0 0 1 3.639.114z" class="cls-1" data-name="Path 1301" transform="translate(-224.874 -1104.619)"/>
            <path id="Path_1303" d="M517.689 1110.852a4.433 4.433 0 0 1-3.907.327 3.713 3.713 0 0 1 3.907-.327z" class="cls-1" data-name="Path 1303" transform="translate(-297.62 -1094.382)"/>
            <path id="Path_1304" d="M508.457 1139.817v.968a7.129 7.129 0 0 1-2.816.066c-.033-.292-.07-.574-.1-.867a6.04 6.04 0 0 1 2.916-.167z" class="cls-1" data-name="Path 1304" transform="translate(-294.854 -1102.947)"/>
            <path id="Path_1305" d="M373.243 1144.829c-.956 1.363-1.878 1.382-2.791-.016a5.619 5.619 0 0 1 2.791.016z" class="cls-1" data-name="Path 1305" transform="translate(-218.071 -1104.389)"/>
            <path id="Path_1306" d="M408.018 1146.289a1.779 1.779 0 0 1-2.675-.052 3.084 3.084 0 0 1 2.675.052z" class="cls-1" data-name="Path 1306" transform="translate(-235.374 -1104.786)"/>
            <path id="Path_1307" d="M89.381 1146.751c.471-.023.93.084.994.427.088.413-.438.484-.857.467-.274-.014-.686-.107-.764-.242-.181-.354.162-.562.627-.652z" class="cls-1" data-name="Path 1307" transform="translate(-74.834 -1105.018)"/>
            <path id="Path_1308" d="M492.868 1147.135c.1.646.208 1.287.306 1.921-2.41.282-2.026-.927-2.014-1.937.576 0 1.14.01 1.708.016z" class="cls-1" data-name="Path 1308" transform="translate(-290.023 -1105.08)"/>
            <path id="Path_1310" d="M486.175 1113.332a1.4 1.4 0 0 1-1.667.453c-.671-.267-.952-.66-.283-1.143a3.369 3.369 0 0 1 1.95.69z" class="cls-1" data-name="Path 1310" transform="translate(-287.578 -1095.022)"/>
            <path id="Path_1311" d="M83.461 1128.509c-.395.266-.8.528-1.194.794-1.065-.208-.987-.807-.506-1.19.703-.547 1.263-.046 1.7.396z" class="cls-1" data-name="Path 1311" transform="translate(-72.392 -1099.474)"/>
            <path id="Path_1312" d="M495.2 1113.691c-1.051 1.509-1.093 1.509-2.734.053.909-.02 1.82-.044 2.734-.053z" class="cls-1" data-name="Path 1312" transform="translate(-290.47 -1095.331)"/>
            <path id="Path_1313" d="M551.207 1106.771c-.157.308-.552.386-.99.266-.4-.107-.78-.327-.606-.675.067-.121.515-.214.77-.2.449.019.876.128.826.609z" class="cls-1" data-name="Path 1313" transform="translate(-309.622 -1093.129)"/>
            <path id="Path_1314" d="M89.244 1126.775c.379 1.25-.461 1.545-1.992 1.3q1.006-.646 1.992-1.3z" class="cls-1" data-name="Path 1314" transform="translate(-74.347 -1099.154)"/>
            <path id="Path_1315" d="M505.983 1110.032a347.5 347.5 0 0 0-.1 1.061c-.431-.017-.849-.047-1.279-.066-.972-.242-.8-.668-.343-1.135z" class="cls-1" data-name="Path 1315" transform="translate(-294.303 -1094.218)"/>
            <path id="Path_1316" d="M493.475 1110.554v-.791c1.116.025 2.29-.241 3.5.409-1.115.748-2.35.415-3.5.382z" class="cls-1" data-name="Path 1316" transform="translate(-290.809 -1094.175)"/>
            <path id="Path_1317" d="M447.38 1105.02c-.142.444-.052 1.075-1 1.02-.615-.035-.649-.522-.67-.9.565-.04 1.11-.084 1.67-.12z" class="cls-1" data-name="Path 1317" transform="translate(-255.229 -1092.794)"/>
            <path id="Path_1318" d="M500.878 1153.505c.916-.052 1.836-.1 2.765-.152-.764 1.529-1.762.847-2.765.152z" class="cls-1" data-name="Path 1318" transform="translate(-293.292 -1106.952)"/>
            <path id="Path_1319" d="M105.4 1149.025a1.407 1.407 0 0 1 1.932-.166c-.539.686-1.139 1.007-1.932.166z" class="cls-1" data-name="Path 1319" transform="translate(-80.435 -1105.545)"/>
            <path id="Path_1320" d="M175.04 1148.025a2.478 2.478 0 0 1 2.917-.3 7.722 7.722 0 0 1-2.934.288z" class="cls-1" data-name="Path 1320" transform="translate(-121.057 -1105.222)"/>
            <path id="Path_1321" d="M400.406 1146.233c-.782.831-1.378.6-1.859-.177a1.986 1.986 0 0 1 1.859.177z" class="cls-1" data-name="Path 1321" transform="translate(-231.87 -1104.77)"/>
            <path id="Path_1322" d="M312.9 1134.758c.241-.674-.36-1.462.514-2.07.919.608.318 1.382.467 2.063-.326.001-.652.007-.981.007z" class="cls-1" data-name="Path 1322" transform="translate(-189.293 -1100.862)"/>
            <path id="Path_1323" d="M464.385 1100.852a1.814 1.814 0 0 1 2.6.094 6.275 6.275 0 0 1-2.6-.094z" class="cls-1" data-name="Path 1323" transform="translate(-264.668 -1091.977)"/>
            <path id="Path_1324" d="M156.251 1159.657a1.891 1.891 0 0 1 2.69-.066c-.895.019-1.789.045-2.69.066z" class="cls-1" data-name="Path 1324" transform="translate(-104.453 -1108.64)"/>
            <path id="Path_1325" d="M449.629 1178.567c-.12.035-.244.115-.351.094-.37-.066-.414-.219-.1-.36a.543.543 0 0 1 .371.048c.064.033.051.151.08.218z" class="cls-1" data-name="Path 1325" transform="translate(-256.659 -1114.277)"/>
            <path id="Path_1328" d="M502.143 1113.744a1 1 0 0 1-1.733-.053c.584.009 1.16.033 1.733.053z" class="cls-1" data-name="Path 1328" transform="translate(-293.135 -1095.342)"/>
            <path id="Path_1330" d="M450.395 1097.272l-.339.014h-.346c.109-.148.221-.3.334-.436.109.136.23.284.351.422z" class="cls-1" data-name="Path 1330" transform="translate(-257.031 -1090.802)"/>
            <path id="Path_1331" d="M567.258 1137.442a1.319 1.319 0 0 0-.062-.553c.217.08.422.159.639.249-.192.099-.389.199-.577.304z" class="cls-1" data-name="Path 1331" transform="translate(-315.535 -1102.142)"/>
            <path id="Path_1332" d="M490.563 1113.75c-.312.384-.593.315-.86-.018.284.012.565.018.86.018z" class="cls-1" data-name="Path 1332" transform="translate(-289.544 -1095.359)"/>
            <path id="Path_1333" d="M301.442 1126.955c.071 1.151-1.087 1.043-2.11 1.049-3.847.019-7.7.173-11.53.012-7.335-.32-14.648-.808-21.961-1.262a5.957 5.957 0 0 1-1.573-.541 1.384 1.384 0 0 0-1.83-.019c-2.368-.129-4.8.187-7.1-.468.464-.9 1.107-1.772.909-2.778a1.566 1.566 0 0 1 1.846-.729 1.266 1.266 0 0 0 2.028.4 2.919 2.919 0 0 1 1.63.16 4.98 4.98 0 0 0 4.928 1.037 4.635 4.635 0 0 1 1.726.08c.447.52.831.52 1.152-.08a3.791 3.791 0 0 1 3.614-.428 4.517 4.517 0 0 0 1.33.339c.446-.052.893-.119 1.34-.132.3-.006.6-.006.893-.012 2.239-1.47 5.072.794 7.324-.6.76.209 1.525.423 2.292.631a6.689 6.689 0 0 1 1.769 1.2c1.372 1.569 3.681.685 5.5 1.053 2.544.516 5.418-.146 7.805 1.057z" class="cls-1" data-name="Path 1333" transform="translate(-165.47 -1097.684)"/>
            <path id="Path_1334" d="M342.933 1117.408a5.218 5.218 0 0 1-4.13 1.354c-5.364-.421-10.774-.421-16.154-.713-8.588-.463-17.2-.681-25.757-1.483-.944-.467-.936-.923.017-1.376 6.655.148 13.326.107 19.955.487 5.185.294 10.341.31 15.523.3a45.719 45.719 0 0 1 10.511.934c.219.1.3.207.237.32s-.135.177-.202.177z" class="cls-1" data-name="Path 1334" transform="translate(-186.867 -1095.719)"/>
            <path id="Path_1335" d="M366.506 1118.155a3.37 3.37 0 0 1-.037-.5c7.927-.728 15.784.421 23.683.429 3.229.006 6.455-.021 9.675-.039 1.778-.015 3.544-.035 4.988.894v.354a25.7 25.7 0 0 1-9.3.3 10.688 10.688 0 0 0-4.348.012c-3.208.837-6.479.062-9.734.469-3.27.4-6.74-.127-10.115-.06-2.218.044-3.368-1.027-4.812-1.859z" class="cls-1" data-name="Path 1335" transform="translate(-221.882 -1096.385)"/>
            <path id="Path_1336" d="M199.363 1113.222c-6.621-.16-13.23-.48-19.85-.44-7.508.045-14.969-.863-22.483-.434a7.321 7.321 0 0 1-3.1.641c-5.393-.132-10.838.588-16.178-.465-.832-.409-.908-.937-.461-1.547a127.457 127.457 0 0 1 15.377.167c10.009.5 20.028.182 30.034.4 5 .107 9.936.835 14.949.621.973-.051 1.761.194 1.712 1.057z" class="cls-1" data-name="Path 1336" transform="translate(-97.935 -1094.463)"/>
            <path id="Path_1337" d="M278.533 1114.05c0 .459-.008.917-.017 1.376-.952.047-1.908.1-2.866.152a2.416 2.416 0 0 1-2.706.068c-2.069-.3-4.1-.909-6.275-.427a166.568 166.568 0 0 0-18.143-.9c-2.49 0-5.03-.008-7.125-1.235 1.916-.023 3.829-.013 5.743-.06.832-.014 1.984.514 1.917-.917-.029-.487 2.214-.36 3.07.076a7.8 7.8 0 0 0 5.821.368 14.131 14.131 0 0 1 3.949-.023c4.9.3 9.685 1.664 14.734.823.536-.09 1.265.449 1.898.699z" class="cls-1" data-name="Path 1337" transform="translate(-157.239 -1094.718)"/>
            <path id="Path_1338" d="M425.757 1114.3c8.292-1 16.554-.382 24.841-.66-.045 1.957-1.616 2.044-3.12 1.945-4.063-.284-8.244.659-12.2-.617-2.265 1.176-4.755-.52-7.084.3a1.729 1.729 0 0 1-2.437-.968z" class="cls-1" data-name="Path 1338" transform="translate(-249.642 -1095.3)"/>
            <path id="Path_1339" d="M424.167 1119.779a1.265 1.265 0 0 0 0-.354 6.163 6.163 0 0 1 3.375-.528c5.973.629 11.965.033 17.942.2q4.844.134 9.684.282c.395.239.463.522.2.843-1.15-.015-2.3-.029-3.443-.04-2.644.987-5.5.582-8.278.667-1.905.06-3.853-.12-5.6.649l-2.026-.041c-.806-.026-1.346-.588-2.181-.569-1.362.6-2.649-.346-3.853-.167-1.236.189-2.262.915-2.944-.514-.15-.306-.911.086-1.4.348-1.389.734-.702-.776-1.476-.776z" class="cls-1" data-name="Path 1339" transform="translate(-250.159 -1096.809)"/>
            <path id="Path_1340" d="M484.439 1119.667c8.21-1.337 16.523-1.077 24.823-.9-8.187 1.367-16.503 1.04-24.823.9z" class="cls-1" data-name="Path 1340" transform="translate(-287.778 -1096.773)"/>
            <path id="Path_1341" d="M445.053 1122.057c.326-1.085 1.153-1.583 2.808-1.525 3.687.127 7.374.148 11.068.209a2.786 2.786 0 0 1-2.922 1.582c-3.647-.061-7.329.377-10.954-.266z" class="cls-1" data-name="Path 1341" transform="translate(-257.213 -1097.315)"/>
            <path id="Path_1342" d="M243.753 1121.461c.873.011 1.749.019 2.623.033.484 1.416 2.852 2.118 2.749 3.748-3.443-1.224-6.56.16-9.78.649.021-.641.034-1.291.052-1.933 1.485-.807 1.925-2.544 4.356-2.497z" class="cls-1" data-name="Path 1342" transform="translate(-153.578 -1097.521)"/>
            <path id="Path_1343" d="M317.4 1127.869c-4.258.388-8.423-.683-12.7-.394-1.529.108-1.383-1.156-1.742-1.917a8.62 8.62 0 0 1 6.633.218c2.644.263 5.281.522 7.928.783-.044.434-.08.876-.119 1.31z" class="cls-1" data-name="Path 1343" transform="translate(-185.96 -1098.589)"/>
            <path id="Path_1344" d="M516.667 1129.049c-3.414.817-6.769 1.316-10.327.455-1.362-.325-2.967-.714-4.378.393a1.772 1.772 0 0 1-2.175-.582c-.36-.861.632-1.061 1.568-1.094a18.3 18.3 0 0 1 4.4-.025c3.605.849 7.281.582 10.912.853z" class="cls-1" data-name="Path 1344" transform="translate(-292.9 -1099.51)"/>
            <path id="Path_1345" d="M398.1 1114.232c3.849-.607 7.7-.44 11.478-1.174 1.333-.269 3.05.312 5.008 1.507a104.44 104.44 0 0 1-16.486-.333z" class="cls-1" data-name="Path 1345" transform="translate(-234.091 -1095.115)"/>
            <path id="Path_1346" d="M367.441 1113.443c5.276-1.1 10.56.425 16.63-.5-3.106 2.4-6.052 1.012-8.689 1.109a24.045 24.045 0 0 1-7.941-.609z" class="cls-1" data-name="Path 1346" transform="translate(-218.682 -1095.106)"/>
            <path id="Path_1347" d="M128.517 1111.03c.009.3.009.581.014.871-.935 1.267-2.643 1.1-4.195 1.133-4.081.094-8.048-.6-12.08-.841-.767-.239-1.529-.48-1.382-1.234q8.826.041 17.643.071z" class="cls-1" data-name="Path 1347" transform="translate(-82.264 -1094.515)"/>
            <path id="Path_1348" d="M344.9 1112.556c4.2-1.324 8.284.329 12.447.343-4.119 1.2-8.294.907-12.484.212-.247-.134-.322-.253-.239-.371a.358.358 0 0 1 .276-.184z" class="cls-1" data-name="Path 1348" transform="translate(-206.618 -1094.839)"/>
            <path id="Path_1349" d="M370.264 1124.329c-1.877 1.127-3.76.934-5.6.819-.714-.038-1.57-.358-1.52-.954.076-.915 1.273-.808 2.042-.72 1.714.199 3.387.562 5.078.855z" class="cls-1" data-name="Path 1349" transform="translate(-215.072 -1098.161)"/>
            <path id="Path_1350" d="M471.012 1120.413a25.13 25.13 0 0 1-.2-.841 31.7 31.7 0 0 1 6.682.118c-4.429 2.059-4.429 2.059-6.482.723z" class="cls-1" data-name="Path 1350" transform="translate(-276.081 -1097)"/>
            <path id="Path_1351" d="M448.458 1111.008c-1.476-.058-2.572-.113-3.71-.165-.151-1.209.1-2.56 2.108-2.432 1.994.125.644 1.721 1.602 2.597z" class="cls-1" data-name="Path 1351" transform="translate(-255.113 -1093.76)"/>
            <path id="Path_1352" d="M474.119 1125.873c-2.744 1.016-4.816 1.089-10.7.588 3.937-.755 7.387.107 10.7-.588z" class="cls-1" data-name="Path 1352" transform="translate(-265.783 -1098.904)"/>
            <path id="Path_1353" d="M341.488 1112.505a2.307 2.307 0 0 1-.037.555 35.459 35.459 0 0 1-7.039-.093c2.723-1.838 4.917-.847 7.076-.462z" class="cls-1" data-name="Path 1353" transform="translate(-200.742 -1094.801)"/>
            <path id="Path_1354" d="M376.027 1105.951c.265.033.529.06.79.082.7.619 2-.007 2.684.66.013.393.017.789.026 1.176-1.267-.082-1.743 1.053-3.234 1.041a4.476 4.476 0 0 1-.266-2.959z" class="cls-1" data-name="Path 1354" transform="translate(-220.904 -1093.04)"/>
            <path id="Path_1355" d="M434.3 1125.817c-1.383.934-2.833.876-4.7.354 1.567-1.404 3.163-.83 4.7-.354z" class="cls-1" data-name="Path 1355" transform="translate(-247.776 -1098.722)"/>
            <path id="Path_1356" d="M320.978 1112.111c2.139-.226 4.317-.76 6.568.728-2.574.461-4.49-.588-6.568-.728z" class="cls-1" data-name="Path 1356" transform="translate(-193.98 -1094.786)"/>
            <path id="Path_1357" d="M448.963 1125.712a4.658 4.658 0 0 1-4.5 1.349c1.007-1.341 2.394-1.296 4.5-1.349z" class="cls-1" data-name="Path 1357" transform="translate(-255.13 -1098.841)"/>
            <path id="Path_1358" d="M440.962 1108.814c-2.266.623-3.451.763-5.218-.253 1.939-.092 3.139-.382 5.218.253z" class="cls-1" data-name="Path 1358" transform="translate(-250.924 -1093.79)"/>
            <path id="Path_1359" d="M454.13 1109.219c-.551-.08-1.2-.022-1.455-.487-.279-.5.126-.79.756-.851a8.952 8.952 0 0 1 3.76.266c.272.094-.009.549-.371.758-.937-.082-1.76.36-2.69.314z" class="cls-1" data-name="Path 1359" transform="translate(-259.209 -1093.604)"/>
            <path id="Path_1360" d="M464.624 1109.7c-.927.112-1.4-.06-1.434-.582-.033-.454.259-.877.954-.8.663.076 1.513.236 1.613.789.036.187-.857.453-1.133.593z" class="cls-1" data-name="Path 1360" transform="translate(-264.068 -1093.75)"/>
            <path id="Path_1361" d="M237.617 1114.106c-1.152-.017-2.311-.047-3.463-.067 1.152-1.527 1.546-1.527 3.463.067z" class="cls-1" data-name="Path 1361" transform="translate(-150.46 -1095.099)"/>
            <path id="Path_1362" d="M438.724 1121.562c.08-.481.447-.8 1.127-.662.809.161.781.783 1.053 1.236-1.004.364-1.778.264-2.18-.574z" class="cls-1" data-name="Path 1362" transform="translate(-251.855 -1097.424)"/>
            <path id="Path_1363" d="M459.057 1126.415a7.259 7.259 0 0 1-4.2.247c1.143-.835 2.318-.434 4.2-.247z" class="cls-1" data-name="Path 1363" transform="translate(-260.242 -1098.991)"/>
            <path id="Path_1364" d="M454.91 1109.631a2.285 2.285 0 0 1 2.689-.314c-.831.373-1.536 1.329-2.689.314z" class="cls-1" data-name="Path 1364" transform="translate(-259.982 -1093.969)"/>
            <path id="Path_1365" d="M109.907 1110.951l1.061.787a1.843 1.843 0 0 1-3 .168c.021-.32.029-.647.037-.968.64.007 1.266.007 1.902.013z" class="cls-1" data-name="Path 1365" transform="translate(-81.297 -1094.516)"/>
            <path id="Path_1366" d="M530.445 1121.191c.18-.107.352-.316.534-.316.478.008.66.261.469.557a.841.841 0 0 1-.64.179c-.166-.026-.248-.273-.363-.42z" class="cls-1" data-name="Path 1366" transform="translate(-303.209 -1097.443)"/>
            <path id="Path_1367" d="M469.178 1114.352h-3.5a7.414 7.414 0 0 1 3.506-.6c.3.14.4.272.29.407a.376.376 0 0 1-.296.193z" class="cls-1" data-name="Path 1367" transform="translate(-265.551 -1095.357)"/>
            <path id="Path_1368" d="M480.09 1113.2c.168.115.481.222.5.343.042.36-.332.512-.764.415a.468.468 0 0 1-.294-.461c.032-.128.359-.205.558-.297z" class="cls-1" data-name="Path 1368" transform="translate(-279.164 -1095.193)"/>
            <path id="Path_1369" d="M515.43 1121.49c.222.082.453.159.687.249a2.158 2.158 0 0 1-.677.24 2.181 2.181 0 0 1-.69-.222c.225-.088.444-.179.68-.267z" class="cls-1" data-name="Path 1369" transform="translate(-297.945 -1097.63)"/>
            <path id="Path_1370" d="M510.939 1121.805a2.359 2.359 0 0 1-.7.208 2.133 2.133 0 0 1-.678-.253 2.564 2.564 0 0 1 .714-.208 2.023 2.023 0 0 1 .664.253z" class="cls-1" data-name="Path 1370" transform="translate(-296.203 -1097.648)"/>
            <path id="Path_1371" d="M473.461 1113.685c.678.1 1.826-.381 1.887.421.027.38-1.193.193-1.862.228-.292-.142-.393-.282-.311-.429s.191-.22.286-.22z" class="cls-1" data-name="Path 1371" transform="translate(-276.63 -1095.321)"/>
            <path id="Path_1372" d="M472.721 1113.712c.011.22.017.432.025.649-.6-.008-1.2-.008-1.8-.02a4.842 4.842 0 0 0 .008-.6c.593-.01 1.172-.016 1.767-.029z" class="cls-1" data-name="Path 1372" transform="translate(-275.681 -1095.346)"/>
            <path id="Path_1373" d="M255.157 1122.366a41 41 0 0 1 .1.655c-.718-.161-.813-.375-.1-.655z" class="cls-1" data-name="Path 1373" transform="translate(-160.391 -1097.882)"/>
            <path id="Path_1374" d="M267.987 1142.064c3.855-.493 6.689-.734 9.374.535-2.84.234-5.699.748-9.374-.535z" class="cls-1" data-name="Path 1374" transform="translate(-167.856 -1103.516)"/>
            <path id="Path_1375" d="M240.546 1141.01c2.476-1.3 4.937-2.023 7.376.035a40.77 40.77 0 0 1-7.376-.035z" class="cls-1" data-name="Path 1375" transform="translate(-153.969 -1102.949)"/>
            <path id="Path_1376" d="M234.582 1138.5c1.166.534 2.848.715 2.779 2.1-.324.066-.649.121-.978.179-1.048-.259-2.3-.113-3.108-.821.112-.638.696-1.058 1.307-1.458z" class="cls-1" data-name="Path 1376" transform="translate(-150.074 -1102.55)"/>
            <path id="Path_1377" d="M252.5 1141.33c2.028-1 2.25-.953 2.8.591a5.983 5.983 0 0 1-2.8-.591z" class="cls-1" data-name="Path 1377" transform="translate(-159.512 -1103.219)"/>
            <path id="Path_1378" d="M365.672 1135.45a9.425 9.425 0 0 1-5.657.461c-1.594-.4-2.833.078-4.218.281-1.388-.923-3.412-.421-5.28-1.217 1.9-1.262 3.771-1.242 5.934-.814 2.406.479 4.792.442 6.5-1.217 1.3-.1 2 .662 2.981 1.024 1.948.726-.007 1.006-.26 1.482z" class="cls-1" data-name="Path 1378" transform="translate(-210.107 -1100.893)"/>
            <path id="Path_1379" d="M422.441 1137.074a1.339 1.339 0 0 1-1.014-1.25c3.049-.374 6.114-1.024 9.3.153-2.348 2.771-5.478 1.257-8.286 1.097z" class="cls-1" data-name="Path 1379" transform="translate(-244.521 -1101.617)"/>
            <path id="Path_1380" d="M336.608 1131.564c-.546.575-.676 1.416-2.055 1.424-.609.006-1.708-.209-1.614.593s-.086 1.256-1.28 1.2c-.621-.025-1.069-.325-1.136-.808-.1-.627-.239-1.275.671-1.688.852-.4 1.719-.775 2.569-1.164a3.917 3.917 0 0 1 2.845.443z" class="cls-1" data-name="Path 1380" transform="translate(-198.647 -1100.329)"/>
            <path id="Path_1381" d="M389.37 1133.644a6.494 6.494 0 0 1-.009.93 1.423 1.423 0 0 1-1.8 1.353c-1.24-.245-.237-.995-.132-1.528a8.305 8.305 0 0 0 .07-1.229c.625.16 1.256.32 1.871.474z" class="cls-1" data-name="Path 1381" transform="translate(-226.206 -1100.978)"/>
            <path id="Path_1382" d="M438.836 1135.934c.835.08 1.378.348 1.291 1.008a.91.91 0 0 1-1.157.7c-.655-.119-1.4-.4-1.367-1.034.026-.548.697-.579 1.233-.674z" class="cls-1" data-name="Path 1382" transform="translate(-251.362 -1101.822)"/>
            <path id="Path_1383" d="M379.963 1134.788c.422.982.6 1.871-1.4 1.965.012-.822-.117-1.698 1.4-1.965z" class="cls-1" data-name="Path 1383" transform="translate(-221.931 -1101.479)"/>
            <path id="Path_1384" d="M400.489 1134.043c-.086.888-.788 1.209-1.953 1.124a1.51 1.51 0 0 1 .129-.614c.264-.191.534-.374.79-.569.345.023.685.046 1.034.059z" class="cls-1" data-name="Path 1384" transform="translate(-231.879 -1101.27)"/>
            <path id="Path_1385" d="M378.036 1132.8c-.035.074-.043.188-.122.217-.238.07-.375-.029-.325-.249.011-.068.157-.113.243-.166.068.064.134.13.204.198z" class="cls-1" data-name="Path 1385" transform="translate(-221.26 -1100.889)"/>
            <path id="Path_1386" d="M399.52 1133.985c-.265.188-.531.372-.79.569 0-.382.29-.547.79-.569z" class="cls-1" data-name="Path 1386" transform="translate(-231.79 -1101.29)"/>
            <path id="Path_1387" d="M394.065 1139.311c-.017.152-.045.306-.062.454.011-.148.011-.292.017-.446z" class="cls-1" data-name="Path 1387" transform="translate(-229.334 -1102.856)"/>
            <path id="Path_1388" d="M151.216 1138.026c.274-.384.539-.756.813-1.137l17.652.26c1.459.1 2.918.272 4.379.286 9.86.113 19.689.58 29.522 1.172a2.76 2.76 0 0 1 2.219.806c-7.491.194-14.955.225-22.477-.3-8.319-.582-16.736-.6-25.112-.683-2.372-.017-4.663-.307-6.996-.404z" class="cls-1" data-name="Path 1388" transform="translate(-111.721 -1102.067)"/>
            <path id="Path_1389" d="M109.274 1136.045c.112.035.3.058.326.111.067.2-.113.3-.456.243-.079-.008-.189-.154-.163-.2.036-.066.189-.107.293-.154z" class="cls-1" data-name="Path 1389" transform="translate(-81.634 -1101.901)"/>
            <path id="Path_1390" d="M125.05 1099.5c.284.031.56.066.833.1a1.748 1.748 0 0 1-.566.185 8.232 8.232 0 0 1-1.09-.136c.273-.055.55-.102.823-.149z" class="cls-1" data-name="Path 1390" transform="translate(-86.749 -1091.693)"/>
            <path id="Path_1391" d="M171.936 1124.253a1.049 1.049 0 0 0 .465.218c.13.329.258.65.4.978a2.338 2.338 0 0 1-2.576.166c-2.87-.215-5.71.554-8.614.026-1.211-.227-1.278-.642-1.053-1.32l1.6-.142c3.254-.294 6.517.085 9.778.074z" class="cls-1" data-name="Path 1391" transform="translate(-114.259 -1098.349)"/>
            <path id="Path_1392" d="M129.21 1124.741c-.334-.621-.045-1.028.883-1.081.865-.055 1.751-.006 2.627 0 .748.292.731.614.055.948-1.187.047-2.375.092-3.565.133z" class="cls-1" data-name="Path 1392" transform="translate(-88.375 -1098.242)"/>
            <path id="Path_1393" d="M134.613 1124.536c-.017-.313-.034-.635-.054-.948a3.474 3.474 0 0 1 3.041.385c-.764.835-1.891.648-2.987.563z" class="cls-1" data-name="Path 1393" transform="translate(-90.214 -1098.177)"/>
            <path id="Path_1394" d="M245.047 1130.519a156.51 156.51 0 0 1-1.917-.093c.2-.468.337-1.055 1.273-.89.59.107.634.588.644.983z" class="cls-1" data-name="Path 1394" transform="translate(-154.787 -1099.965)"/>
            <path id="Path_1395" d="M90.685 1157.828c.061-.1.129-.276.162-.276.3.035.234.13-.2.241z" class="cls-1" data-name="Path 1395" transform="translate(-75.487 -1108.213)"/>
            <path id="Path_1396" d="M383.434 1135.3a.679.679 0 0 1 .825.489c.157.436-.034.8-.67.946a.627.627 0 0 1-.857-.467c-.113-.402-.01-.792.702-.968z" class="cls-1" data-name="Path 1396" transform="translate(-223.969 -1101.642)"/>
            <path id="Path_1397" d="M398.562 1137.7a5.373 5.373 0 0 1 .831-.006c.421.074 1.167-.228 1.118.415a2.146 2.146 0 0 1-1.076.14c-.331-.08-.57-.379-.857-.582z" class="cls-1" data-name="Path 1397" transform="translate(-231.892 -1102.37)"/>
            <path id="Path_1398" d="M508.764 1136.5c-.272-.111-.6-.245-.926-.374.225-.1.463-.286.672-.267a5.149 5.149 0 0 1 1.044.308c-.229.097-.454.196-.79.333z" class="cls-1" data-name="Path 1398" transform="translate(-295.626 -1101.838)"/>
            <path id="Path_1399" d="M211.171 1124.868c1.494.041 3 .086 4.49.125.017 1.018-.722 1.475-2.1 1.472-1.474-.014-2.494-.365-2.39-1.597z" class="cls-1" data-name="Path 1399" transform="translate(-139.111 -1098.591)"/>
            <path id="Path_1400" d="M99.488 1120.7c.514-.792 3.787 1.03 2.643-1.468-.23-.52.962-.654 1.684-.568 1.124.134 2.23.4 3.367.53s2.084-.769 3.563-.382c.28 1.116-1.394 1.949-1.178 3.074-2.078.627-4.686-.4-6.474 1.095l-.292.013c.2-.8-.37-1.178-1.392-1.249-.949-.068-1.654-.345-1.921-1.045z" class="cls-1" data-name="Path 1400" transform="translate(-78.451 -1096.704)"/>
            <path id="Path_1401" d="M531.6 1138.053a1.537 1.537 0 0 0 .018.52 1.445 1.445 0 0 1-2.157-.146 3.936 3.936 0 0 1 2.139-.374z" class="cls-1" data-name="Path 1401" transform="translate(-302.878 -1102.467)"/>
            <path id="Path_1403" d="M192.46 1124.192c.214-.366.508-.433.894-.119a57 57 0 0 1-.894.119z" class="cls-1" data-name="Path 1403" transform="translate(-129.592 -1098.332)"/>
            <path id="Path_1405" d="M163.172 1120.475c0 .421.009.833.009 1.25-.776-.06-1.838.2-2.155-.482-.335-.7.694-.655 1.286-.787l.86.019z" class="cls-1" data-name="Path 1405" transform="translate(-106.391 -1097.308)"/>
            <path id="Path_1406" d="M181.424 1120.4c-.97.995-2.464.555-3.746.7.964-1.03 2.44-.621 3.746-.7z" class="cls-1" data-name="Path 1406" transform="translate(-122.419 -1097.3)"/>
            <path id="Path_1407" d="M188.053 1121c-.6-.087-1.948.322-1.015-.788.338.263.681.531 1.015.788z" class="cls-1" data-name="Path 1407" transform="translate(-126.772 -1097.248)"/>
            <path id="Path_1408" d="M269.851 1123.945a1.311 1.311 0 0 1-1.09-.7c.363.231.731.466 1.09.7z" class="cls-1" data-name="Path 1408" transform="translate(-167.421 -1098.14)"/>
            <path id="Path_1409" d="M153.741 1121.114c-2.042 1.034-3.3.428-4.92-.421 1.94-.301 3.435-.542 4.92.421z" class="cls-1" data-name="Path 1409" transform="translate(-101.426 -1097.301)"/>
            <path id="Path_1410" d="M149.676 1115.671c1.759-.008 3.529-.014 5.3-.02a5.044 5.044 0 0 1-5.3.02z" class="cls-1" data-name="Path 1410" transform="translate(-101.79 -1095.912)"/>
            <path id="Path_1411" d="M93.842 1119.3c.18-.111.36-.312.532-.3.472 0 .689.251.5.545a.841.841 0 0 1-.652.176c-.175-.034-.261-.269-.38-.421z" class="cls-1" data-name="Path 1411" transform="translate(-76.558 -1096.894)"/>
            <path id="Path_1412" d="M145.359 1120.726c.328.107.411.282.163.455a3 3 0 0 1-.662.253c-.059-.167-.231-.38-.144-.481.094-.128.421-.153.643-.227z" class="cls-1" data-name="Path 1412" transform="translate(-93.613 -1097.401)"/>
        </g>
    </g>
</svg>
