<svg xmlns="http://www.w3.org/2000/svg" width="181.728" height="47.108" viewBox="0 0 181.728 47.108">
    <defs>
        <style>
            .cls-1{fill:#a3ceff;fill-rule:evenodd}.cls-2{opacity:.5}
        </style>
    </defs>
    <g id="Group_15665" data-name="Group 15665" transform="translate(-84.47 -1076.669)">
        <g id="Group_15661" data-name="Group 15661" transform="translate(65.388 1081.024)">
            <path id="Path_1122" d="M88.764 1103.263c-3.473-.833-7.016-.384-10.512-.794-.75-.086-1.551.082-2.151-.661-.4-1.963-.081-2.79 1.826-3.755 5.029-2.555 9.939-1.11 14.931-.634a21.476 21.476 0 0 1 6.633 1.595c1.129.488 2.385-.247 3.495-.887.276-.161.041.161.19-.109.129-.235-.2.005-.3-.109a147.031 147.031 0 0 1-14.6-2.324 4.5 4.5 0 0 1-2.382-.931q-5.137-.712-10.282-1.416c-.493-1.477.607-1.553 1.264-1.95 1.021-.6 2.262-.476 3.218-1.323 2.459-.633 4.842.024 7.233.572a1.8 1.8 0 0 0 2.149.486c5.019.692 9.977 1.968 15.057 2.089a21.592 21.592 0 0 0 3.379 0c-6.411.31-12.673-1.346-19-2.157-2.883-1.345-6.043-.748-8.971-1.789-2.112-.281-4.228-.559-6.35-.845 2.436-1.554 5.092-1.3 7.678-1.248a51.106 51.106 0 0 1 7.127.753c6.209.989 12.471.426 18.688 1.03.689.069 1.382.1 2.074.154.289.024.282.042 1.237 1.1a1.564 1.564 0 0 0 1.311.352c6.858.005 13.711-.057 20.565.03 8.632.108 17.253.384 25.882.5 4.623.057 9.25-.116 13.872-.092 8.321.034 16.643.149 24.965.2 4.622.035 9.245.08 13.868-.017a138.075 138.075 0 0 1 26.465 2.012c1.9.334 3.774.842 5.694 1.024.534.052 1.216.109 1.167.951-.045.8-.745.8-1.271.844a14.456 14.456 0 0 1-3.458-.178c-.56-.09-1.1.012-.9.988a6.043 6.043 0 0 0-.368-.05c-3.544-1.661-7.3-1.243-10.986-1.536-5.054-.316-10.074-.92-15.159-.706-4.986.209-9.99-.272-14.993-.214-3.381.035-6.764-.045-10.146-.074-4.382-.042-8.765-.011-13.141-.161 4.312.185 8.627.1 12.939.172 6.308.167 12.621-.053 18.922.2 1.476.5 2.3 2.044 3.377 3.142 1.234 1.26-.232 1.95-.684 2.854-.278.554-1.314.436-.939 1.482a.763.763 0 0 0 .778.484c.831-.154.412-.984.536-1.531.3-1.283 1.1-2.243.958-3.889-.086-1.036 1.472-1.732 2.561-.714 1.281 1.2.76-.521 1.077-.88 1-1.921 2.543-.355 3.766-.833.59.392 1.185 1.008 1.79.006a2.921 2.921 0 0 1 1.886.379 5.776 5.776 0 0 0 6.886.842 1.154 1.154 0 0 1 .962.015c.961 1.256 2.578 1.128 3.594 2.382a1.129 1.129 0 0 0 1.57-.229c.684-.847 1.216-.433 1.728.263.02 1.951-.046 8.473-.816 10.295-1.683 1.659-1.706 4.8-3.247 3.163-.873-.931.2-5.077-1.378-3.282-1.292 1.474-1.938-1.636-2.954-2.5a16.916 16.916 0 0 0 .4 1.767c.564 1.554-1.279.562-1.18 1.222.17 1.19-1.164 1.292-2.232.811a2.779 2.779 0 0 0-3.126.3 2.815 2.815 0 0 1-4.049-1.359c-.7-1.609-.536-.991-1.869-.636-1.816.5-.8.134-2.869-.074 1.233.9-.732-.782.368.009.55.393 1.092.795.845 1.709-.211.783.339 4.761-.3 4.9-1.173.266-.146.757-1.254-.032.4.949-1.075-.937-1.806-.047-.574.712-1.9-2.155-2.433-2.477-1.176-.7-2.161-.878-2.816.92-.305.851-2.695 4.635-1.842 1.168-.913-.389-.926-1.323-.777-2.3.1-.7.315 3.146-.145 2.277-.926.306-.878-3.248-.866-2.461.032 2.273-.728 3.486-2.923 3.2 2.4 2.284 3.92 1.915 5.823-.685.739-1.006 3.046.827 4.121.943 3.634.379 5.132-4.378 8.38-5.556 1.926-.7 2.018-.8 2.385 1.852-.037.258.948 3.775.848 4-.6 1.1-1.385.885-2.531.5-.645-.224-.9.039-1.491.647-.178.139-.628.9-.828.978-1.832-.316-3.979-2.256-4.822-1.124.057-.045-.234.317-.107.206 3.759-3.082 3.653.916 4.4 3.344a2.563 2.563 0 0 1-.137.657c-.129.337-.465.556-.405 1 .62.248 3.711-4.926 4.319-4.789.755.173 1.341 1.436 1.559 2.292.234.9-2.749 7.384-3.041 7.931-1.217 2.286-2.829.848-4.734-1.137-.3-.305-.9-.018-1.354-.111-1.217-.251-2.215-.781-1.231-2.491.653-1.137 1.119-.246.56-1.2-.1-.248-1.732-.661-1.841-.826-.134-.2-1.718-.07-1.88-.049-.566.355.7-.863 1.123.029 1.446 3.055-1.042 3.142-2.1 3.831-1.278.828-2.868 1.344-4.379.334-.3-.218-.515-1-.984-.225-.129 2.065 1.188 2.2 1.994 1.455 2.075-1.91 3.539.392 5.263.714.442.085.736.707.658 1.3-.143 1.11-.668 1.812-1.68 1.858-1.344.03-2.667.455-4.017.191-.51-.312-1.027-.541-1.565-.062-.548.24-1.171.166-1.689.54a1.755 1.755 0 0 1-1.3-.076c-1.312-1.311-2.827-.287-4.231-.4-3.1-.271-6.242-.788-9.342.178a.806.806 0 0 1-.845-.074 3.44 3.44 0 0 0-3.771-.121.945.945 0 0 1-.883.017c-1.735-.859-3.577-.248-5.356-.523-.828-.132-1.676.206-2.5-.143-.619-2.09-.619-2.09 2.016-3.052-1.146-.964-1.844-2.362-3.311-2.691-.912-.206-1.215-1.152-.861-2.141.544-1.511-.012-2.564-.751-3.726-1.384-2.165-2.96-4.308-1.969-7.416.217-.667.022-1.477-.716-1.248-.777.241-1.85-1.353-2.322.5-.228.887-.584 1.571-1.45 1.3-.815-.258-.9-1.162-.931-2a5.267 5.267 0 0 0-.4-2.387c-.605-1.1-.918-2.118.3-3a.886.886 0 0 0 .067-1.389c-.526-.453-.9.1-1.014.627-.522 2.319-1.59 2.139-2.852.9-.6-.582-.911-.805-1.315.281-.23.632-.96.581-1.408.08-1.276-1.418-2.61-.863-3.838-.069-.923.6-2 .334-2.857.966-.477.359-1.242.582-.965 1.587.207.732.766.644 1.3.812a15.261 15.261 0 0 1 8.164 5.609 3.9 3.9 0 0 1-.654 4.9c-1.236 1.041-3.007.6-4.243-1.139.043 1.3-.261 2.674 1.5 2.485.5-.051 1.086.684 1.1 1.254a10.766 10.766 0 0 0 .9 4.6c.342.718-.548 1.352-1.167 1.2-1.368-.342-1.918.734-2.544 1.764-3.131 1.134-1.848-1.229-2.129-.551-.4.944-17.045.536-18.431.65-4.7.381-9.35-.61-14.037-.6a60.037 60.037 0 0 1-11.619-1.554c-1.059-.207-18.814-1.437-21.932-1.653-.471.127 2.05-1.651.4-2.425-1.912-3-1.915-3.161-.064-6.025a13.1 13.1 0 0 0 .857-1.616c.188-.4-.685.671-1 .282-.386-.5-2.723-.961-3.456-2.737a1.81 1.81 0 0 1-1.251-.319.848.848 0 0 1-.058-.74 1.721 1.721 0 0 1 1.331-.984c1.466.047 2.118-.731 2.818-2.3.8-1.765 2.7-2.083 4.316-2 1.271.056 5.669 1.827 5.669 1.827 1.871 2.172 4.244.89 5.887 3.41.325.5 3.791 1.045 2.292.233-1-.537-1.593-1.093-1.379-2.394.241-1.477 1.361-1.416 2.218-1.4 2.006.045 3.963-.444 5.954-.587a2 2 0 0 1 .976.128c2.4.821-6.606-1.053-12.5-2.227-2.166-.397-4.486-.172-6.466-1.668z" class="cls-1" data-name="Path 1122" transform="translate(-69.473 -1087.023)"/>
            <path id="Path_1123" d="M543.5 1103.526l-.116-.022a23.38 23.38 0 0 0 4.721.929c-.17.677-1.392.787-1.281 1.591.1.761.019 1.5 1.457 1.48 1.522-.016 1.407.4 1.1 1.295-.251.724.273 1.595 1.327 2.029 1.645.683 2.37 1.591 1.774 2.951-.291.663.108 1.241.816 1.955-1.887.086-3.369-.494-4.941-.673-1.507-.175-2.034.215-1.606 1.246.432 1.016 1.526 1.476 2.825 1.83.935.263 1.034.433.043 1.005-.847.5.219 1.083 1.006 1.343a34.942 34.942 0 0 1 3.983 1.027c-.781 1.725-3.277 1.565-4.712 2.521.485 1.158 1.923 1.406 3.121 1.546 3.492.423 3.667 2.7 4.847 4.356.336.469-.427 1.332-1.7 1.395a39.33 39.33 0 0 0-2.613.247c-.776.1-1.78.288-1.946.782-.57 1.729-2.421 1.516-4.115 1.571a57.246 57.246 0 0 1-6.942-.171.757.757 0 0 1-.367-.942c.143-.374.491-.835.118-1.136-2.04-1.651-1.805-3.644-1.768-5.617a14.966 14.966 0 0 0-1.566-6.455c-.764-1.681-1.366-3.868.968-5.524a1.432 1.432 0 0 0 .334-2.373c-.562-.667-1.279-1.34-.4-2.158.181-1.617-.233-3.279.812-4.815a1.239 1.239 0 0 1 .887-1.446 5.764 5.764 0 0 1 3.934.233z" class="cls-1" data-name="Path 1123" transform="translate(-376.74 -1089.211)"/>
            <path id="Path_1124" d="M139.768 1146.226a141.435 141.435 0 0 0 16.251 1.748 56.153 56.153 0 0 0 8.966.231c3.506-.33 7 .324 10.491.492 2.114.106 4.171-.054 6.253-.049 1.537 0 2-.279 1.791-1.546-.1-.6-1.109-1.41-.158-1.987 1.13-.689 2.4-.189 3.372.244a1.5 1.5 0 0 0 1.9-.229 8.4 8.4 0 0 1 3.91-1.63c-.256-1.092-1.425-1.549-2.252-2.1a2.659 2.659 0 0 0-3.606.741c-.327.649-.534 1-1.554.7-1.187-.331-1.474-.991-.994-1.708a7.9 7.9 0 0 1 1.685-1.437c.888-.687 1.527-.142 2.257.211.649.324 1.2 0 1.8-.242 3.024-1.19 3.662-1.01 4.626 1.2a3.1 3.1 0 0 0 2.689 2.165c2.116.312 2.125 1.835 2.8 2.861 1.093.17 1.432-.528 2.143-.687 1.159-.26 1.933.138 2.018 1.006.229 2.6.783 2.961 4.234 2.816.77-.027 1.541-.08 2.313-.119 1.525-1.136 3.284.444 4.852-.224a7.82 7.82 0 0 1 1.456-.1c1.649.084 3.281.287 4.93.353 1.486.065 2.883-.09 3.724-1.137 1.1-1.376 2.363-1.456 3.321-.005.719 1.088 1.9 1.093 3.22 1.257 2.44.315 5.149-.334 7.3 1.021 3.263-.009 6.528-.009 9.8-.034.918-.01 1.455.255 1.6.907-8.183.195-16.357-.041-24.528-.25-18.446-.468-36.891-.937-55.361-1.021a199.976 199.976 0 0 1-28.008-2.02c-5.306-.766-10.719-1.086-15.96-2.088.99-.878 2.338-.659 3.578-.534a49.4 49.4 0 0 0 5.085.515 6.518 6.518 0 0 1 4.056.679z" class="cls-1" data-name="Path 1124" transform="translate(-102.507 -1107.3)"/>
            <path id="Path_1125" d="M126.683 1119.419c-.092.145-.185.409-.275.409-2.149-.041-4.141 1.127-6.313.538-1.395-.377-2.485.478-3.879.209-.795-.148-.752.614-.709 1.077.036.394.112.867.9.728 2.367-.427 2.613.7 2.677 1.889a10.557 10.557 0 0 0 .856 2.278c.426 1.45-.43 2.08-2.464 1.755a4.129 4.129 0 0 0-3.1.279c-.353.225-.61.48-.32.808a1.2 1.2 0 0 0 1.108.365c1.993-.221 1.993-.211 3.269.3-.407 1.835-2.607 1.931-4.424 2.173-1.982.275-2.818-.563-2.243-2.032.165-.429.276-.7-.222-1.026-1.684-1.107-3.054-2.428-5.151-3.251-1.341-.525-3.009-.808-3.768-2.108a2.058 2.058 0 0 0-2.816-.181 1.944 1.944 0 0 1-2.55.07c-1.07-.636-1.418-1.526-.8-2.342a3.981 3.981 0 0 0 1.126-2.407c-5.9.388-6.545.753-6.983 4.157-1.891-1.052-3.71-.589-5.523-.014-1.619-1.5.168-2.318 1.343-3.14 1.828-1.287 2.132-1.572 1.9-2.828l7.294-.388c.668-.016 1.331-.06 2-.047 1.125.02 2.252.047 3.38.07 5.523-.288 10.793.922 16.161 1.48 3.186.332 6.594-.161 9.526 1.179z" class="cls-1" data-name="Path 1125" transform="translate(-74.937 -1098.253)"/>
            <path id="Path_1126" d="M450.5 1142.748c2.6 1.64 2.6 1.64.107 3.859.978 1.321 2.56.339 3.824.443 1.686.144 2.238 1.151 3.129 1.8 1.2-.4.778-1.027.764-1.526-.02-.787.253-1.247 1.526-.972.549.119 1.242.115 1.352-.349.133-.6-.419-1.126-1.182-1.277a8.5 8.5 0 0 0-3.225.241c-1.883.353-1.617-.321-.852-1.1.325-.308.963-.239 1.283-.548h-.009a3.672 3.672 0 0 1 1.153-.638c1.979-.413 3.37-1.924 5.757-1.575a8.129 8.129 0 0 1 1.829.42c2.229 1.325-.954 1.654-.923 2.752a14.245 14.245 0 0 1 6.623 4.073c.795.8 2.12 1.274 2.711 2.2.1.563.487.757 1.331.728 3.074-.12 6.167.049 9.252-.125a4.966 4.966 0 0 1 3.365.732.712.712 0 0 1-.048 1.077q-8.584-.043-17.177-.09c-6.945-.031-13.894-.031-20.832-.08-1.424-.008-2.841-.188-4.26-.288a.7.7 0 0 1 .16-.912c.4-.265.838-.5 1.195-.794.373-.3.623-.652.248-1.052a1.343 1.343 0 0 0-1.417-.359c-1.2.41-2.077.464-2.416-.687-.178-.619-.8-.654-1.5-.4a12.492 12.492 0 0 0-1.7.673c-1.736.916-4.763.279-5.293-1.152-.357-.952.872-.858 1.692-.962a1.892 1.892 0 0 1 1.365.389c1.724-.246 3.508.367 5.23-.27.57-.208 1.419-.22 1.61-.677.445-1.062 1.854-.479 2.705-.863-1.566-.982-1.8-1.6-1.206-2.639.724-1.279 2.045-.4 3.093-.487.393.021.506.275.736.435z" class="cls-1" data-name="Path 1126" transform="translate(-325.794 -1108.369)"/>
            <path id="Path_1127" d="M116.121 1103.365a6.255 6.255 0 0 1 3.183.27c-1.654.85-3.642.876-5.237 1.543-.543.231-1.54.145-2.2.629a1.334 1.334 0 0 1-1.5-.066c-1.367-1.257-3.644-.916-5.311-1.635a1.5 1.5 0 0 0-1.749.156 1.164 1.164 0 0 1-1.176.222c-4-1.19-8.329-.912-12.486-1.411-2.933-.349-5.789.539-8.494 1.406-.489.16-.917.5-1.485.415-2.235-.346-3.128-.1-1.588 1.569.355.385-.457.608-.968.742a.505.505 0 0 1-.6-.115c-.893-.712-2.5-.8-3.071-1.794.245-.279.494-.549.744-.827.215-.757 1.291-.978 1.856-1.522.6.035 1.21.074 1.812.111a9.767 9.767 0 0 1 4.347-.742c.71-.016 1.555.193 1.7-.62 2.464.061 4.923.125 7.394.186 3.638-.747 7.037.523 10.583.628 4.764.141 9.404 1.373 14.246.855z" class="cls-1" data-name="Path 1127" transform="translate(-69.394 -1093.111)"/>
            <path id="Path_1128" d="M87.7 1131.182a2.269 2.269 0 0 1 2.091 1.725c1.377-.4 1.755-1.5 3.185-1.655.82-.09 1.407-.27 1.951.313.4.434 1.022.687.359 1.386-.827.866-1.064 2.162-2.339 2.666-2 .778-1.652 1.591-.74 2.658a7.746 7.746 0 0 1 .753 1.286 2.291 2.291 0 0 1-2.04.309c-1.659-1-3.895-1.826-2.312-3.833l.057-.041c.311-.318.428-.65.082-.986-.344-.185-.681-.365-1.032-.55-1.77-.941-1.782-.946-.525-2.254.31-.317.655-.597.51-1.024z" class="cls-1" data-name="Path 1128" transform="translate(-75.882 -1104.977)"/>
            <path id="Path_1129" d="M143.327 1118.768c-8.6-.712-17.155-1.618-25.681-2.657-.064-.239-.128-.474-.188-.712 3.424.035 6.732.663 10.1.991 8.365.828 16.695 1.9 25.193 1.831.811.084 1.757-.359 2.417.318.411-.008.829-.023 1.244-.039.9 1.312-.673 1.34-1.6 1.346-3.463.031-6.965.1-10.245-.952-.413-.04-.829-.085-1.24-.126z" class="cls-1" data-name="Path 1129" transform="translate(-91.582 -1098.917)"/>
            <path id="Path_1130" d="M134.128 1102.63c-.652.759-1.791.629-2.665.562-7.411-.578-14.834-1.087-22.169-2.043-.044-.294-.086-.589-.132-.876a10.007 10.007 0 0 1 3.234.209q10.826 1.285 21.732 2.148z" class="cls-1" data-name="Path 1130" transform="translate(-87.4 -1092.588)"/>
            <path id="Path_1131" d="M86.329 1117.24c.014 1.3 1.408 1.559 2.965 1.869-2.437.266-4.391.849-5.723 2.218-.543.568-1.277 1.128-.482 1.88-.037.173-.078.349-.122.521-1.688-.462-2.67-1.011-1.164-2.377.661-.6-.17-1.809 1.694-2.049-1-.736-2.191.031-3.019-.523a2.268 2.268 0 0 1 2.308-.433 5.117 5.117 0 0 0 2.269-.124c-.069-.475-1.184-.36-1.046-.641.447-.923 1.398-.735 2.32-.341z" class="cls-1" data-name="Path 1131" transform="translate(-72.943 -1099.366)"/>
            <path id="Path_1132" d="M392.684 1162.415c2.072-1.434 4.76-.972 7.123-.922 3.364.06 6.738.12 10.1.223 1.017.03 2.032-.1 2.244.893a30.146 30.146 0 0 1-5.274.1c-4.729-.109-9.467-.199-14.193-.294z" class="cls-1" data-name="Path 1132" transform="translate(-281.305 -1118.615)"/>
            <path id="Path_1133" d="M81.752 1092.323c-.049 1.013-1.17.852-2.071 1.047-1.525.338-3.514.064-4.267 1.525-1.6-.094-2.336-1.266-3.951-1.462a28.667 28.667 0 0 1 10.195-1.424c.267.035.361.09.3.173a.286.286 0 0 1-.206.141z" class="cls-1" data-name="Path 1133" transform="translate(-68.398 -1089.51)"/>
            <path id="Path_1135" d="M85.253 1101.454c.272.251.551.5 1.145 1.027a38.824 38.824 0 0 1-7.189.336c.069-.311.17-.619-.459-.709a4.458 4.458 0 0 1-2.616-.556c3.279-.316 6.166-.634 9.119-.098z" class="cls-1" data-name="Path 1135" transform="translate(-70.753 -1093.04)"/>
            <path id="Path_1136" d="M92.081 1091.721a.373.373 0 0 1-.093-.314c-.012-.215-.02-.43-.031-.643 4.314.1 8.667-.01 12.8 1.148.274.218.266.427-.019.632a2.041 2.041 0 0 1-1.913-.031 53.636 53.636 0 0 0-10.744-.792z" class="cls-1" data-name="Path 1136" transform="translate(-78.728 -1088.909)"/>
            <path id="Path_1137" d="M91.69 1144.71c0 .235 0 .464-.006.7-.778.106-1.661.19-1.86-.511a1.608 1.608 0 0 0-.74-.927c-2.135-1.489-2.107-1.5.13-2.965a2.362 2.362 0 0 0 1.758 2.716c.372.134.487.648.718.987z" class="cls-1" data-name="Path 1137" transform="translate(-76.486 -1109.646)"/>
            <path id="Path_1138" d="M446.4 1162.035c-.055.3-.106.6-.164.906a73.086 73.086 0 0 1-10.554-.074c.5-.938 1.684-.76 2.691-.863a1.2 1.2 0 0 1 1.344-.066 26.3 26.3 0 0 0 6.683.097z" class="cls-1" data-name="Path 1138" transform="translate(-307.61 -1118.807)"/>
            <path id="Path_1139" d="M70.839 1109.007c1.136.5 3.077.291 3.071 1.794-1.858-.124-3.55-.827-5.458-.773a.385.385 0 0 1-.1-.543z" class="cls-1" data-name="Path 1139" transform="translate(-66.794 -1096.372)"/>
            <path id="Path_1140" d="M379.336 1162.035c.037-.311 0-.673.424-.843a5.762 5.762 0 0 1 4.984.947 21.986 21.986 0 0 1-5.408-.104z" class="cls-1" data-name="Path 1140" transform="translate(-269.746 -1118.403)"/>
            <path id="Path_1141" d="M76.415 1104.245c.5 1.212-.477 1.5-1.856 1.522-.659-1.602-.659-1.602 1.856-1.522z" class="cls-1" data-name="Path 1141" transform="translate(-69.771 -1094.345)"/>
            <path id="Path_1142" d="M66.842 1109.736l.1.543a2.26 2.26 0 0 1-.292.08c-.669.1-1.5.035-1.348-.513.133-.5.966-.373 1.54-.11z" class="cls-1" data-name="Path 1142" transform="translate(-65.283 -1096.626)"/>
            <path id="Path_1143" d="M108.986 1116.316a2 2 0 0 1-2 .047 1.468 1.468 0 0 1 2-.047z" class="cls-1" data-name="Path 1143" transform="translate(-86.302 -1099.389)"/>
            <path id="Path_1144" d="M91.142 1138.931c.4.049.868.109.819.488-.043.349-.521.4-.9.5.029-.337.052-.664.081-.988z" class="cls-1" data-name="Path 1144" transform="translate(-78.276 -1109.185)"/>
            <path id="Path_1145" d="M542.1 1163.929l-.093-.9a1.283 1.283 0 0 1 1.325-.076c.031.308.066.612.1.926a2.163 2.163 0 0 1-1.332.05z" class="cls-1" data-name="Path 1145" transform="translate(-379.627 -1119.331)"/>
            <path id="Path_1146" d="M487.175 1136.479l-1.325.076a7.738 7.738 0 0 0-3.359-.3c-1.738-2.294-4.408-.464-6.6-.751-.921-.405-1.772-1.148-2.977-.355a1.662 1.662 0 0 1-1.247-.15 7.09 7.09 0 0 1-2.848-1.77c1.895-.565 3.057-1.388 3.606-2.983a1.91 1.91 0 0 0-1.818-2.721c-2.516-.169-4.754-.981-7.21-1.155a1.7 1.7 0 0 1-1.39-.389c-.2-.285-.021.1-.172-.2-.57-1.136-1.646-2.409-3.169-2.223a1.989 1.989 0 0 0-1.482 2.75c.191.559-.47 1.008-.973 1.421-.436.025-.876.056-1.317.084.093-1.177-.71-2.118-1.5-3.07-1.057-1.275-1.648-1.366-3.258-.429-.51.3-.949.663-1.48.931-.319.17-.775.416-1.147.09s-.42-.916 0-1.071a6.986 6.986 0 0 0 3.319-2.508 1.717 1.717 0 0 1 1.771-.334 6.908 6.908 0 0 0 2.274.175c.042-1.026.858-1.016 1.971-.833a6.26 6.26 0 0 0 4.544-.494c-.138-.7-.019-1.425-.484-2.038a2.3 2.3 0 0 0-2.1.562c-.386.279-.682.721-1.281.658-2.541-.263-4.446 1.066-6.75 1.363-1.913.248-3.651 1.114-5.784.543-1.08-.3-2.07.417-3.091.682-1.046.27-1.614.761-1.077 1.659.183.309-.26.584-.747.619-1.762.129-3.565.677-5.145.583a8.7 8.7 0 0 1-3.783-1.241c-.424-.275-.738-.6-.43-1.038a2.164 2.164 0 0 1 1.317-.648c1.1-.275 2.535.877 3.286-.244.442-.662.2-1.549.306-2.332a7.1 7.1 0 0 1 .262-1.171c.3-.986 1.508-1.191 2.529-1.132.973.054.653.876.766 1.391.175.747-.344 1.39-.683 2.058-.26.513-.166.952.553 1.206a1.55 1.55 0 0 0 1.666-.479c.142-.125.243-.267.377-.394.58-.536-.2-1.758 1.139-1.738 1.439.019 3.16-.166 4.314.822a1.116 1.116 0 0 0 1.26.269c.326-.963-.507-1.327-1.7-1.52-.656-.1-.983-.445-.774-.869.247-.489.862-.314 1.4-.225a5.889 5.889 0 0 1 2.419.7 3.28 3.28 0 0 0 2.084.61c.894-.05 1.947-.045 2.206-.783.322-.882-1.057-.559-1.516-.9-1.684-1.247-4.217-1.247-6.576-2.289 2.081-.646 3.392-2.04 5.753-1.042a1.172 1.172 0 0 0 1.129-.314c.5-.365.078-1.44 1.132-1.191 2.145.5 4.453-.952 6.472.394.336.219.654.4.754.713.19.6.072 1.354 1.315 1.421 1.286.07 2.607-.16 3.167-.992.875-1.29 1.677-1.611 2.988-.349a1.059 1.059 0 0 0 1.6.1.723.723 0 0 0-.245-1.264c-1.05-.425-2.157-.734-2.713-1.576 2.38-.843 2.418-.862 3.781.73a2.178 2.178 0 0 0 1.823.846c.946-.01 1.344-.376 1.444-1.044.162-1.081 1.246-1.215 2.026-.548 1.22 1.052 3.159 1.427 4.237 2.528a1.931 1.931 0 0 0 2.047.355 9.872 9.872 0 0 1 2.529-.519 2.329 2.329 0 0 0 .944 1.7c1.424 1.2 1.438 2.608-.239 3.343-1.4.615-1.519 1.181-.942 2.091.139.213.413.544.308.647-1.684 1.575.19 2.776.886 4.049 1.042 1.889.589 3.857.541 5.745a4.326 4.326 0 0 0 1.935 4.223c1.311.916 1.192 1-.848 1.479z" class="cls-1" data-name="Path 1146" transform="translate(-323.469 -1092.858)"/>
            <path id="Path_1147" d="M294.889 1145.228a1.686 1.686 0 0 1-2.337.393 4.989 4.989 0 0 0-3.277-.7 6.757 6.757 0 0 1 1.046-3.194c1.554-.1 3.282 1.847 4.319.441 1.087-1.467-1.535-1.9-2.38-2.88-.381-.436-1.007-.73-.952-1.369.58-.962 1.806.317 2.434-.506-1.889-3.006-1.889-3.006-3.7-.78-1.862-1.735-1.376-3.928-1.729-5.859-.138-.719 1.077-1.13 2.056-1.153.69.479.281 1.028.183 1.552a1.045 1.045 0 0 0 .479 1.181c.771.486 4.879.314 5.56-.223 1.649-1.3 2.194-3.769.547-5.053-2.416-1.882-4.784-4.208-8.608-3.94-1.544.106-1.322-.8-1.471-1.5-.311-1.413-1.16-1.665-2.49-.872-.744.442-1.444 1.243-2.386.491a6.893 6.893 0 0 1-2.3-2.647c-.185-.473.246-.971.713-1.09 1.78-.457 2.7-2.22 5.228-1.841 1.608.246 3.56-.913 5.31-1.558a3.413 3.413 0 0 1 3.882.763c.474.486.635 1.378 1.694.83.8-.414.781-1.073.372-1.761-.178-.3-.277-.649.379-1 1.255 1.441 3.238 2.144 4.821 3.3 1.406-.772.756-1.958 1.273-2.832a2.727 2.727 0 0 1 2.93-1.237c1.223.121 1.256.971 1.391 1.759.364 2.134.258 2.259-2.617 2.844-.03.738 1.34-.411 3.595-1.614.66-.355 8.365 5.956 8.169 6.912-.176.879-.03 1.933-.576 2.592-1.393 1.674-.167 2.9.555 4.292 1.14 2.178 3.479 3.632 4.7 5.782.524.934.754 1.327-.143 2.232-1.51 1.531-1.2 2.236.9 2.4 1.782.135 3.023.309 3.586 2.089.4 1.286 2 .42 3.244.258.269 2.144-1.027 2.7-2.991 2.719-1.657.02-2.932.358-2.533 2.127-3.531-.2-7.05-.428-10.581-.561-1.71-.063-3.37.033-2.772-2.123.165-.61-.2-1.116-.912-1.292-.909-.225-1.125.34-1.193.922-.218 1.919-1.918 2.263-3.68 2.359a29.24 29.24 0 0 1-8.168-.762c-.572-.405-1.131-.712-1.57.109z" class="cls-1" data-name="Path 1147" transform="translate(-218.056 -1103.796)"/>
            <path id="Path_1149" d="M428.45 1099.661a38.28 38.28 0 0 0-4.923-.141c-4.391.053-8.793.071-13.175-.07-3.293-.1-6.6.266-9.871-.158-.2-.067-.276-.147-.233-.24s.09-.145.147-.145c4.945-.349 9.887-.115 14.834-.09 3.189.016 6.4.08 9.561-.025 8.5-.275 16.986 0 25.465.1a52.651 52.651 0 0 1 8.857.523c.369.379.447.728-.19 1.008-3.28-.086-6.628.431-9.787-.625a8.359 8.359 0 0 0-2.677-.1 2.1 2.1 0 0 1-2.01.02c-1.885.075-3.856-.644-5.615.363a.432.432 0 0 1-.468.658c-3.187-.948-6.738-.107-9.915-1.078z" class="cls-1" data-name="Path 1149" transform="translate(-306.398 -1092.895)"/>
            <path id="Path_1150" d="M456.335 1100.48a35.179 35.179 0 0 1 10.385.417c.272.43.609.918.266 1.357-.446.567-1.15 1.19-1.933.249a2.024 2.024 0 0 0-2.686-.509c-.686.285-1.136.514-.384 1.026.347.235.663.61.313.814a2.883 2.883 0 0 0-1.471 3.494c.128.707-1.36.707-2.132.41a7.478 7.478 0 0 1-3.134-2.13 6.277 6.277 0 0 0 4.853-1.943c-1.097-1.216-3.635-1.53-4.077-3.185z" class="cls-1" data-name="Path 1150" transform="translate(-320.821 -1092.472)"/>
            <path id="Path_1151" d="M421.282 1147.768c-1.76.014-3.538.876-5.308-.145-.48-.279-1.315-.3-1.08-.925.206-.531.829-.315 1.357-.282a19.3 19.3 0 0 0 2.286.012c.715-.035 1.26-.273 1.26-.867 0-.538-.308-.913-1.107-.977-.88-.065-1.946-.061-2.055-.853a3.5 3.5 0 0 1 .522-1.821 1.816 1.816 0 0 1 1.6-.691c.794-.044 1.3.244 1.43.757.281 1.133 3.5.828 2.41 2.617-.328.541-.6 1.013.052 1.716 1.256 1.362 1.059 1.483-1.367 1.459z" class="cls-1" data-name="Path 1151" transform="translate(-293.525 -1108.448)"/>
            <path id="Path_1152" d="M117.711 1093.536a2.427 2.427 0 0 0-.059-.458c3.7.368 7.406.708 11.1 1.1a139.649 139.649 0 0 0 14.448.827c1.044.006 2.207-.156 3.151.642-3.087.744-5.995-.084-8.916-.1-6.618-.051-13.07-1.273-19.667-1.556-.186-.089-.261-.185-.216-.291s.1-.16.159-.164z" class="cls-1" data-name="Path 1152" transform="translate(-91.624 -1090.075)"/>
            <path id="Path_1153" d="M310.54 1098.742c4.8-.912 20.874-.6 23.471.338-8.158.24-15.811-.1-23.471-.338z" class="cls-1" data-name="Path 1153" transform="translate(-227.766 -1092.655)"/>
            <path id="Path_1154" d="M532.125 1102.3a1.747 1.747 0 0 1-.715 1.491c-.661-.056-1.335-.68-1.964.164-.3.4-2.644.42-3.084.1a4.391 4.391 0 0 0-2.625-.838c-1.4-.019-1.833-.714-1.862-1.6 3.502-.417 7.025-.994 10.25.683z" class="cls-1" data-name="Path 1154" transform="translate(-369.479 -1093)"/>
            <path id="Path_1155" d="M498.835 1100.873a67.782 67.782 0 0 1 10.1.26 2.38 2.38 0 0 1 .859.3 2.246 2.246 0 0 0-1.462 1.212.924.924 0 0 1-1.289.379c-1.541-.775-3.21-.449-4.811-.3-2.082.183-3.122-.424-3.397-1.851z" class="cls-1" data-name="Path 1155" transform="translate(-354.883 -1092.871)"/>
            <path id="Path_1156" d="M380.169 1098.731c.035.124.062.255.086.385-5.634.449-18.214.208-20.145-.378.2-.366.669-.372 1.066-.34 3.414.252 6.832-.111 10.235-.035 2.09.043 4.174.1 6.263 0a3.712 3.712 0 0 1 2.495.368z" class="cls-1" data-name="Path 1156" transform="translate(-259.945 -1092.719)"/>
            <path id="Path_1157" d="M519.936 1101.1l-.859-.3a18.166 18.166 0 0 1-.124-.644 101.2 101.2 0 0 1 15.014.886c.889.131 1.566.26.8 1.023a11.883 11.883 0 0 1-4.118-.279c-1.191-.752-2.679-.609-4.035-.548a57.963 57.963 0 0 1-6.215-.129c-.15-.009-.308-.009-.463-.009z" class="cls-1" data-name="Path 1157" transform="translate(-368.006 -1092.602)"/>
            <path id="Path_1158" d="M431.991 1141.551a6.21 6.21 0 0 1 2.277.18c.549.159 1.422-.379 1.684.308a2.072 2.072 0 0 1-.017 1.4 1.093 1.093 0 0 1-1.5.583c-1.143-.424-2.518-.756-2.4-1.988-.158-.1-.221-.2-.186-.309s.092-.169.142-.174z" class="cls-1" data-name="Path 1158" transform="translate(-303.675 -1110.104)"/>
            <path id="Path_1159" d="M128.261 1144.5c-1-.814-.753-1.632-.875-2.358-.066-.449-.219-.966.523-1.251a1.127 1.127 0 0 1 1.171.169c.5.425 1.02.857.582 1.47s-.852 1.189-1.401 1.97z" class="cls-1" data-name="Path 1159" transform="translate(-96.557 -1109.662)"/>
            <path id="Path_1160" d="M207.127 1097.6a22.793 22.793 0 0 1 7.551-.19c-2.501.921-5.03.435-7.551.19z" class="cls-1" data-name="Path 1160" transform="translate(-157.81 -1092.131)"/>
            <path id="Path_1161" d="M148.573 1151.867a8.062 8.062 0 0 1-4.063-.677c.079-1.187 1.307-1.093 2.371-1.029a1.571 1.571 0 0 1 1.692 1.706z" class="cls-1" data-name="Path 1161" transform="translate(-107.881 -1112.942)"/>
            <path id="Path_1162" d="M471.436 1109.873c.74-.574 2-.125 2.649-.822.42-.449.938-.2 1.345.088.32.209.647.439.469.792s-.637.379-1.065.426a5.151 5.151 0 0 1-3.398-.484z" class="cls-1" data-name="Path 1162" transform="translate(-329.494 -1096.294)"/>
            <path id="Path_1163" d="M435.757 1123.889c-.258.5-.554.968-.155 1.55.5.724-.447.9-1.072 1.162a.813.813 0 0 1-.86-.106.792.792 0 0 1-.039-1.286c.606-.5.981-1.241 2.12-1.325z" class="cls-1" data-name="Path 1163" transform="translate(-304.255 -1102.619)"/>
            <path id="Path_1164" d="M230.665 1097.51c-2.066 1-3.465.41-4.878.05a10.426 10.426 0 0 1 4.878-.05z" class="cls-1" data-name="Path 1164" transform="translate(-169.728 -1092.171)"/>
            <path id="Path_1165" d="M189.9 1133.3c.6-.029 1.1.1 1.226.559.088.349-.2.672-.684.623-.6-.062-1.384-.12-1.465-.708-.059-.409.506-.423.923-.474z" class="cls-1" data-name="Path 1165" transform="translate(-145.578 -1106.758)"/>
            <path id="Path_1166" d="M489.385 1100.745c.665 0 1.338-.016 2.01-.02-.036.494.244 1.16-.783 1.251-1.266.109-1.069-.683-1.227-1.231z" class="cls-1" data-name="Path 1166" transform="translate(-350.225 -1091.971)"/>
            <path id="Path_1167" d="M438.107 1122.286c.053-.52-.394-1.071.2-1.572.847.1 1.546.41 1.425 1.049-.112.6-1.019.433-1.618.528z" class="cls-1" data-name="Path 1167" transform="translate(-307.145 -1101.366)"/>
            <path id="Path_1168" d="M440.085 1151.992a1.615 1.615 0 0 1-1.365-.389c.06-.425-.3-1.2.508-1.146 1.14.067.633.987.857 1.535z" class="cls-1" data-name="Path 1168" transform="translate(-307.521 -1113.105)"/>
            <path id="Path_1169" d="M115.862 1094c.016.15.031.3.058.453-.958.833-1.629.7-2.049-.31.666-.043 1.329-.098 1.991-.143z" class="cls-1" data-name="Path 1169" transform="translate(-89.774 -1090.541)"/>
            <path id="Path_1170" d="M230.824 1124.825a.842.842 0 0 1-.983.318c-.318-.074-.514-.309-.328-.5a1.269 1.269 0 0 1 .768-.24c.308-.003.6.122.543.422z" class="cls-1" data-name="Path 1170" transform="translate(-171.775 -1102.999)"/>
            <path id="Path_1171" d="M191.035 1120.854a4.85 4.85 0 0 1-2.417-.318c.882-.205 1.996-1.282 2.417.318z" class="cls-1" data-name="Path 1171" transform="translate(-145.365 -1101.106)"/>
            <path id="Path_1172" d="M214.743 1118.887c-.061.135-.084.338-.212.389s-.363-.074-.553-.121c.067-.134.081-.343.214-.388s.368.076.551.12z" class="cls-1" data-name="Path 1172" transform="translate(-161.691 -1100.601)"/>
            <path id="Path_1173" d="M108.95 1133.634c-.07.139-.086.344-.208.388s-.369-.07-.562-.119c.072-.134.084-.345.21-.384s.367.07.56.115z" class="cls-1" data-name="Path 1173" transform="translate(-86.905 -1106.912)"/>
            <path id="Path_1174" d="M452.886 1115.692c.19.049.478.06.546.154s-.063.334-.185.379a.706.706 0 0 1-.528-.135c-.061-.09.096-.26.167-.398z" class="cls-1" data-name="Path 1174" transform="translate(-316.468 -1099.289)"/>
            <path id="Path_1175" d="M442.449 1161.408c-.442.02-.893.039-1.344.066.027-.289.031-.662.462-.742.714-.12.75.339.882.676z" class="cls-1" data-name="Path 1175" transform="translate(-309.076 -1118.277)"/>
            <path id="Path_1176" d="M483.018 1102.093c.171.059.339.12.511.174a1.481 1.481 0 0 1-.472.215 1.563 1.563 0 0 1-.511-.161c.154-.074.309-.154.472-.228z" class="cls-1" data-name="Path 1176" transform="translate(-346.498 -1093.475)"/>
            <path id="Path_1177" d="M200.54 1110.964l-.5-.186a.758.758 0 0 1 .986-.025c-.168.069-.326.141-.486.211z" class="cls-1" data-name="Path 1177" transform="translate(-152.669 -1097.11)"/>
            <path id="Path_1178" d="M478.3 1145.622a1.492 1.492 0 0 1-1.283.548 1.508 1.508 0 0 1 1.283-.548z" class="cls-1" data-name="Path 1178" transform="translate(-343.544 -1112.093)"/>
            <path id="Path_1179" d="M465.291 1143.865a56.19 56.19 0 0 1-.738-.429c.947-.483.547.236.738.429z" class="cls-1" data-name="Path 1179" transform="translate(-324.149 -1111.082)"/>
            <path id="Path_1180" d="M431.82 1141.582l.047.479c-.467-.135-.486-.293-.047-.479z" class="cls-1" data-name="Path 1180" transform="translate(-302.644 -1110.372)"/>
            <path id="Path_1181" d="M304.573 1158.321c-.706-.3-.829-.823-.154-1.038 1.154-.367 1.279.385 1.462.955-.431.022-.87.053-1.308.083z" class="cls-1" data-name="Path 1181" transform="translate(-220.196 -1116.499)"/>
            <path id="Path_1182" d="M256.414 1157.44c-.19-.045-.478-.061-.539-.15s.1-.258.166-.4c.186.049.474.059.537.149s-.099.268-.164.401z" class="cls-1" data-name="Path 1182" transform="translate(-188.843 -1116.352)"/>
            <path id="Path_1183" d="M494.53 1141.962c.092-.5.153-.963 1.181-.613 2.453.827 4.97 1.464 7.7.777.584.617.077 1.28.9 1.95 1.65 1.349 1.409 1.514-.848 2.57.136.853 1.77.125 1.96 1.072a14.2 14.2 0 0 1-5.465 1.1c-1.919-1.511-3.271-3.5-6.718-3.665-1.089-.049-1-.852-.581-1.511.379-.613 1.2-.594 1.869-.812.688-.22.551-.574.002-.868z" class="cls-1" data-name="Path 1183" transform="translate(-352.44 -1108.455)"/>
            <path id="Path_1184" d="M481.623 1139.667c-.053-.861 1.106-1.839-.48-2.562-.121-.061-.144-.4-.126-.408 1.793-.41 1.893-1.771 2.9-2.614.206-.174.785-.133.822.092.207 1.141 1.583 1.3 2.621 1.819s.4 1.27.061 1.924a5.445 5.445 0 0 0-3.242.828 4.945 4.945 0 0 1-2.556.921z" class="cls-1" data-name="Path 1184" transform="translate(-345.981 -1106.555)"/>
            <path id="Path_1185" d="M512.87 1159.276c.444-.03.9-.067 1.352-.1a2.857 2.857 0 0 1 2.682.325 7.447 7.447 0 0 0 2.2-.335c2.888-1.2 3.624-.976 4.59 1.361-3.76.039-7.523.084-11.355.129.201-.518.366-.956.531-1.38z" class="cls-1" data-name="Path 1185" transform="translate(-364.673 -1117.139)"/>
            <path id="Path_1186" d="M481.386 1157.906c1.048.419 1.289-.09 1.573-.659s.973-.572 1.642-.468a.834.834 0 0 1 .815.892c.029.593-.5.876-1.216.892a6.889 6.889 0 0 0-2.908.992 2.011 2.011 0 0 1-1.839-.016.486.486 0 0 1-.037-.626c.547-.385.367-1.351 1.684-1.123a1.392 1.392 0 0 1 .286.116z" class="cls-1" data-name="Path 1186" transform="translate(-345.025 -1116.269)"/>
            <path id="Path_1187" d="M504.787 1160.56c-.076.463-.535.508-.965.527-.805.031-1.6-.049-1.762-.763-.086-.419.443-.533.879-.488.727.08 1.539.135 1.848.724z" class="cls-1" data-name="Path 1187" transform="translate(-359.707 -1117.831)"/>
            <path id="Path_1188" d="M470.907 1160.588c.537-.016 1.085.054 1.215.527s-.227.753-.872.753c-.7.007-1.3-.2-1.308-.781-.006-.387.494-.44.965-.499z" class="cls-1" data-name="Path 1188" transform="translate(-327.981 -1118.213)"/>
            <path id="Path_1189" d="M498.791 1156.157c-1.166-.529-1.555-.967-1.317-1.76 1.1.369 1.612.789 1.317 1.76z" class="cls-1" data-name="Path 1189" transform="translate(-354.506 -1115.094)"/>
            <path id="Path_1190" d="M462.69 1154.7c-.065.236-.21.468-.581.33-.553-.2-1.139-.445-1.133-.972 0-.25.3-.405.638-.34.656.142 1.054.466 1.076.982z" class="cls-1" data-name="Path 1190" transform="translate(-322.049 -1114.744)"/>
            <path id="Path_1191" d="M491.324 1154.134c-.066.14-.133.275-.2.409-.185-.044-.476-.06-.537-.148s.1-.263.161-.4c.195.051.385.096.576.139z" class="cls-1" data-name="Path 1191" transform="translate(-350.801 -1114.891)"/>
            <path id="Path_1192" d="M510.527 1120.524a2.283 2.283 0 0 1-.465-.289c-1.384-1.409-2.013-1.424-3.141-.07-1.038 1.257-1.8 1.462-3.412.948a1.362 1.362 0 0 1-1.019-.847c-.144-.529.524-.653.971-.808a7.841 7.841 0 0 1 1.573-.287c1.8-.246 2.973-.859 3.082-2.309.052-.677 2.833-1.538 3.563-1.191a1.8 1.8 0 0 1 .172 2.627 2.779 2.779 0 0 0-1.324 2.226z" class="cls-1" data-name="Path 1192" transform="translate(-359.88 -1098.9)"/>
            <path id="Path_1193" d="M518.815 1159.286a5.993 5.993 0 0 1-2.682-.325c.028-.514.184-.976 1.078-.937a1.479 1.479 0 0 1 1.604 1.262z" class="cls-1" data-name="Path 1193" transform="translate(-366.584 -1116.92)"/>
            <path id="Path_1194" d="M480.566 1133.368c-.084.174-.094.379-.208.41a.525.525 0 0 1-.679-.25c-.032-.095-.581-.408.114-.389a2.921 2.921 0 0 1 .773.229z" class="cls-1" data-name="Path 1194" transform="translate(-344.839 -1106.74)"/>
            <path id="Path_1195" d="M495.515 1122.05a3.01 3.01 0 0 1-.247-.125c.086-.033.172-.1.253-.1s.159.071.243.111c-.088.036-.164.075-.249.114z" class="cls-1" data-name="Path 1195" transform="translate(-353.306 -1101.932)"/>
            <path id="Path_1196" d="M492.687 1130.405c.095.031.276.071.267.095-.025.158-.14.13-.27-.09z" class="cls-1" data-name="Path 1196" transform="translate(-351.907 -1105.613)"/>
        </g>
        <g id="Group_15662" class="cls-2" data-name="Group 15662" transform="translate(66.549 1087.273)">
            <path id="Path_1198" d="M324.548 1127.35c8.291.03 16.559.6 24.844.734 12.926.2 25.849.841 38.8.474 4.3-.119 8.615-.344 12.914-.269a25.923 25.923 0 0 1 7.7.927c.638.208.806.452.7.886-1.281 1.431-3.376 1.033-5.215 1.2-5.612.428-11.212 1.122-16.125.857 7.828.03 16.4.588 25 .808a3.463 3.463 0 0 1 1.028.3c.429.346.5.695.037 1.058-7.93.16-15.86.375-23.8.449-1.961.016-3.936-.338-5.927-.163a8.838 8.838 0 0 1-4.16-.111 27.141 27.141 0 0 0-5.231-.06c-1.135-.379-2.584-.569-2.232-1.864 1.382-.933 3.16.229 4.714-.51-1.774-.328-3.475.01-5.156-.074-2.462-.07-4.913-.279-7.369-.451-.661-.1-1.292-.292-1.958-.362a9.778 9.778 0 0 0-.685 0 .913.913 0 0 0-.5.279 3.792 3.792 0 0 0-.2.474 1.767 1.767 0 0 1-.238.5 2.076 2.076 0 0 1-.518.42 5.462 5.462 0 0 1-2.185.788 1.092 1.092 0 0 1-.662-.37c-.612-.667 1.167-1.86-.946-2.188a13.734 13.734 0 0 0-1.642-.3 5.205 5.205 0 0 0-2.762.654c-.792.385-.883 1.108-1.493 1.581-1.342.568-2.508.664-3.187-.6.78-1.2.78-1.2-2.48-1.636-4.379-.224-8.747-.492-13.121-.611a18.689 18.689 0 0 0-2.589-.343 21.345 21.345 0 0 1-3.607-.255 3.868 3.868 0 0 1-1.653-.876 1.386 1.386 0 0 1-.409-.673.823.823 0 0 1 .313-.673z" class="cls-1" data-name="Path 1198" transform="translate(-263.782 -1111.14)"/>
            <path id="Path_1200" d="M158.7 1137.9c-.206.388-.4.784-.6 1.171-4.3.322-8.578-.139-12.865-.215-5.284-.084-10.562-.458-15.859.006a15.735 15.735 0 0 1-4.2-.453c-2.881-.565-5.72.283-8.591.028a142.086 142.086 0 0 0-16.989-.642c-1 .03-1.986.006-2.976.075-5.309.389-10.558.383-15.617-1.061-.384-.33-.347-.654.018-.978a4.56 4.56 0 0 1 1.993 0 40.364 40.364 0 0 1 8.316-.481c-.8-.279-2.556-.026-1.678-1.417q4.316-.007 8.638 0 1.324-.008 2.65 0 4.97.185 9.937.374c2.357-.478 3.844.986 5.829 1.347 4.164.349 8.361.324 12.521.382 8.719.136 17.409.834 26.142.6a7.341 7.341 0 0 1 1.114.14c.866.24 1.817.404 2.217 1.124z" class="cls-1" data-name="Path 1200" transform="translate(-74.332 -1114.813)"/>
            <path id="Path_1201" d="M300.353 1088.022q24.024.6 48.054 1.21c7.743.189 15.48.312 23.221.519 6.847.179 13.691.434 20.54.623a13.253 13.253 0 0 1 4.075.867c-5.806-.445-10.962-.365-16.121-.394a886.159 886.159 0 0 1-15.205-.195c-13.466-.3-26.932-.6-40.393-.985-8.278-.236-16.546-.614-24.825-.928a.931.931 0 0 1 .654-.717z" class="cls-1" data-name="Path 1201" transform="translate(-239.012 -1087.776)"/>
            <path id="Path_1202" d="M149.874 1100.408c-.32.013-.635.013-.956.022a1.375 1.375 0 0 1-.846-.071c-1.451-1.185-3.328-.16-4.95-.5a1.873 1.873 0 0 1-.735-.362c-1.653-.02-3.307-.026-4.959-.05a26.8 26.8 0 0 1-5.031-.62c-1.449-.3-3.426.116-5.176.08a3.862 3.862 0 0 1-1.832-.463c-.789-.493-1.288-.718-1.967.084-.358.424-1.153.379-1.826.4-6.817.152-13.614.7-20.444.507-.858-.023-1.792.167-2.441-.453.807-1.745 3-1.151 4.658-1.366a92 92 0 0 1 13.915-.478c.262-.139.564-.414.782-.385 5.043.683 10.141.076 15.19.35 2.292.129 4.542 0 6.817-.014 4.535-.012 8.857.966 13.238 1.66a.579.579 0 0 1-.166.881c-.977.505-2.382.088-3.271.778z" class="cls-1" data-name="Path 1202" transform="translate(-83.399 -1092.174)"/>
            <path id="Path_1203" d="M162.6 1124.14c.013.623-.262 1.257.233 1.921a4 4 0 0 1 2.753-1.013c.828.08 1.558.154 1.525.922-.026.558-.434.864-1.216.913-.11.009-.227 0-.327.014-1.846.286-3.311-.5-4.963-.8-1.441-.269-3.131.813-4.7-.114l.012-.01c-.141.817-.917 1-1.9.962-2.755-.106-5.523.124-8.265-.179a138.2 138.2 0 0 0-14.979-.73c-2.153-.039-3.529-.4-4.17-1.894a.619.619 0 0 1 .111-.678 3.581 3.581 0 0 1 1.388-.4c.832-.08 1.674-.065 2.512-.1a9.14 9.14 0 0 0 2.466-.4 19.392 19.392 0 0 1 10.027.1c2.076 1.516 4.785.862 7.245 1.081a6.4 6.4 0 0 1 1.359.623 5.06 5.06 0 0 1 1.082.488c-.038-.357-.711-.458-.692-.853a1.116 1.116 0 0 1 .3-.98 2.988 2.988 0 0 1 3.036-.374c.795.907 3.076.058 3.435 1.484-.109.45-.533.615-1.109.644a1.683 1.683 0 0 0 .917-.09c.448-.173 1.814.361 1.172-.727 1.001-.55 1.976-.912 2.748.19z" class="cls-1" data-name="Path 1203" transform="translate(-99.052 -1107.747)"/>
            <path id="Path_1204" d="M139.627 1103.189l.314-.014c-.916.892-2.233.468-3.355.474-10.924.033-21.846.019-32.784.452h16.736c-.334.459-.442.7-.52.693-6.939-.413-13.89.039-20.823-.218-3.08-.115-5.745.917-8.732 1.055a17.838 17.838 0 0 1-5.409-.486 14.91 14.91 0 0 0-3.8-.74c-.12-.132-.242-.262-.363-.4 1.907-.349 3.47-1.744 5.586-1.27 2.56.573 5.022.049 7.528.023 6.733-.062 13.466-.15 20.194-.053 5.175.074 10.36-.25 15.529.322a5.1 5.1 0 0 0 3.672-.78.755.755 0 0 0 .48-.047c1.82.615 4.15-.313 5.747.989z" class="cls-1" data-name="Path 1204" transform="translate(-74.415 -1096.103)"/>
            <path id="Path_1206" d="M279.021 1127.266a1.527 1.527 0 0 1 1.481.892c.5.822.9 1.7-.166 2.4a1.515 1.515 0 0 1-1.971-.264c-.092-.093-.168-.08-.355.049a3.631 3.631 0 0 1-4.118.11h.006c-.688-.5-.149-1.167-.442-1.671-.013.535.338 1.149-.289 1.675-2.249.149-4.408-.376-6.624-.476-4.838-.328-9.782.269-14.507-.974-1.561-.413-3.317.65-4.817-.32-1.306-.487-2.574.484-3.876.055-1.1-.228-2.306.087-3.377-.3a1.678 1.678 0 0 0-1.439.125 2.184 2.184 0 0 1-2.109 0c-.134-.129-.3-.238-.436-.359-.589-.525-2.192-.564-1.871-1.427.283-.757 1.607-.669 2.574-.772 2.45-.3 4.948-1.751 7.3.16.211.06.424.125.635.185a19.588 19.588 0 0 1 5.408-.291 12.944 12.944 0 0 1 1.665.175c9.101.5 18.148 1.671 27.328 1.028z" class="cls-1" data-name="Path 1206" transform="translate(-179.915 -1109.725)"/>
            <path id="Path_1207" d="M449.987 1098.49c-4.7.359-9.344-.234-14.015-.368-.42-.654.1-1.021.771-1.357a1.842 1.842 0 0 1 .623.01c1.569.779 1.621-1.042 2.818-.843.9.156 1.076 1.536 2.525.77.165-.2.337-.217.511-.007a14.385 14.385 0 0 1 5.74-.148 14.229 14.229 0 0 0 4.586-.035c2.141-.286 4.147.253 6.224.243a1.061 1.061 0 0 1 .82.236c.966.892 1.109.956 2.105.229a2.956 2.956 0 0 1 2.1-.379c.725.044 1.988.111.381.823-.36.16-.1.415.281.438.864.059 1.916.375 2.556-.086 1.8-1.285 3.81-.863 5.845-.632.217 1.441-.713 1.819-2.558 1.76-4.062-.14-8.128-.164-12.192-.2-2.407-.022-4.747-.689-7.182-.381a2.178 2.178 0 0 0-1.939-.073z" class="cls-1" data-name="Path 1207" transform="translate(-320.025 -1091.756)"/>
            <path id="Path_1209" d="M314.366 1133.34c1.307-.379 3.081.624 4.081-.751.331-.47.474.07.505.169a1.114 1.114 0 0 0 1.493.578c.87-.269.346-.764.135-1.187s.287-.728.4-1.1a18.168 18.168 0 0 1 3.84-.006c.583.949-1.378.778-1.359 1.5.967-.744 2.311-.818 3.482-1.173 4.891-.026 9.767.253 14.636.558.077 1.53-1.64 1.4-2.948 1.61-1.218.19-2.357-.323-3.612-.279-.315-.169-.2.5-.059.2.025-.045.124-.006.32.055a2.545 2.545 0 0 1 1.244.751c.339.683-.076 1.127-.9 1.443a156.477 156.477 0 0 0-17.31-.949c-1.623.023-3.399.141-3.948-1.419z" class="cls-1" data-name="Path 1209" transform="translate(-230.323 -1113.007)"/>
            <path id="Path_1210" d="M357.223 1136.831c.208-.455.411-.91.615-1.361a2.877 2.877 0 0 1 2.854-.748 22.859 22.859 0 0 0 4.515.195c.744 1.142 1.021 1.2 2.6.509.7-.359.671-.986 1.042-1.466.873-.947 2.225-.818 3.527-.8.51.014.395 1.33 1.4.353 1.774-.4 2.2.355 1.988 1.347-.1.443-.386.873-.284 1.351l.021.12.012-.125a3.9 3.9 0 0 1 2.227-.813l-.012.025a44.904 44.904 0 0 1-.013-.97c.521-.25.91-.6 1.457-.839.7-.019 1.478-.234 1.972.359.627 1.347 2.524 2.055 3.262 3.342a1.716 1.716 0 0 1-1.411.478c-6.611-.669-13.282-.336-19.912-.544-1.962-.065-3.86-.63-5.86-.413z" class="cls-1" data-name="Path 1210" transform="translate(-258.564 -1114.294)"/>
            <path id="Path_1212" d="M485.423 1133.437c1.757-.166 3.584.025 5.255-.539 1.368 1.122 3.185.514 4.664.419a47.625 47.625 0 0 1 11.136.111c2.382.4 5.035.026 7.566-.006l8.448.05c-.971 1.632-3.11 1.446-4.943 1.495-4.307.12-8.616.022-12.923.05-1.393.011-2.678-.128-3.919.774-1.373 1-3.351.415-5.082.269-2.305-.015-4.62-.035-6.926-.044-1.237 0-.985-.1-1.634-1.089-.315-.474-2.32-.227-1.642-1.49z" class="cls-1" data-name="Path 1212" transform="translate(-347.616 -1114.045)"/>
            <path id="Path_1213" d="M192.073 1091.681c5.409-.46 10.753.378 16.14.421 5.7.051 11.4-.068 17.107.141a52.294 52.294 0 0 1 9.366.722 7.5 7.5 0 0 0 3.58-.17.653.653 0 0 1 .769.3c.153.333-.044.673-.511.757a7.894 7.894 0 0 1-3.261-.019 19 19 0 0 0-4.248-.336c-7.425-.219-14.856-.494-22.281-.663-2.968-.063-5.953.215-8.906.106a52.737 52.737 0 0 1-7.692-.375c-.391-.276-.405-.574-.063-.884z" class="cls-1" data-name="Path 1213" transform="translate(-151.469 -1089.551)"/>
            <path id="Path_1214" d="M209.947 1124.63c-.1.664-.668.863-1.546.962-2.554.285-4.926-.538-7.423-.577a.88.88 0 0 1-.957-1.052c.156-1.119-1.106-1.172-2.029-1.492a1.024 1.024 0 0 1-.39-.9c0-.258.544-.63.109-.751-.834-.235-1.178.493-1.833.691a2.311 2.311 0 0 1-1.346-.074 2.985 2.985 0 0 0-2.174-.733c-1.162.084-2.12-.206-2.084-1.257.673-1.3 2.212-1.142 3.626-1.056 1.543.095 3.055.373 4.618.333h1.711a63 63 0 0 1 12.383.7c.8.259 1.213.677.812 1.3a1.937 1.937 0 0 1-2.207.615c-2.018-.5-4.1-.275-6.157-.38a4.656 4.656 0 0 0-3.242.732c.928.695 1.325-.039 1.876-.344a1.373 1.373 0 0 1 1.9.209c-.202 2.231 3.283 1.773 4.353 3.074z" class="cls-1" data-name="Path 1214" transform="translate(-148.205 -1105.784)"/>
            <path id="Path_1216" d="M83.56 1125.327c.456-.014.917-.03 1.37-.05.841-.051 1.321-.385 1.486-.969a3.562 3.562 0 0 1 1.8-.173c-.031.263.4.548.442.5 2.057-2.1 4.707-.787 7.074-.743-.4-.453-1.763.32-1.917-.642 1.333-1.172 3.257-1.132 5.081-1.3a18.239 18.239 0 0 1 4.152.093c1.057.189 2.173.433 1.606 1.534l-.2-.073c-.763.7-1.7.538-2.7.263.589.486 2.082.091 2.069.978-.006.663-.934.433-1.536.462.05.116.165.026.249.045.646.156 1.319.306.461.874q-8.929.135-17.854.275a4.255 4.255 0 0 1-2.481-.484c-.108-.51.213-.69.898-.59z" class="cls-1" data-name="Path 1216" transform="translate(-75.301 -1107.677)"/>
            <path id="Path_1217" d="M101.721 1097.157a7.082 7.082 0 0 1-3.466.394A69.3 69.3 0 0 0 83.149 1099c-5.08-.382-10.167.359-15.314-.189.663-.139 1.321-.279 1.982-.414a6.482 6.482 0 0 1 2.721-.78c7.622-.764 15.305-.68 22.974-.819a42.881 42.881 0 0 1 6.209.359z" class="cls-1" data-name="Path 1217" transform="translate(-67.835 -1092.196)"/>
            <path id="Path_1218" d="M522.789 1144.716a5.008 5.008 0 0 1-2.023.019c-1.578-.124-3.232-.922-4.632.295a5.351 5.351 0 0 1-2.69.156.633.633 0 0 1-.244-.859c.472-.6 1.519-.543 2.161-.956 2.722-.206 5.477-.912 8.155-.531 2.805.4 5.28-1.1 8.008-.388 2.4-1.27 5.523.156 7.809-1.23.661.652-.748.757-.361 1.291.321.437 1.374.177 1.414 1.05-2.724-.494-5.28.365-8.169-.039-2.87-.4-6.036.308-9.068.568-.149.015-.249.408-.36.624z" class="cls-1" data-name="Path 1218" transform="translate(-361.648 -1118.972)"/>
            <path id="Path_1219" d="M153.763 1091.412c.019.292.038.592.063.886q-9.544.006-19.08 0h-18.921c.489-.867 1.424-.847 2.244-.836 5.69.088 11.361-.084 17.038-.443a20.707 20.707 0 0 1 3.56.314c3.505.4 7-.02 10.495-.01a20.568 20.568 0 0 1 4.601.089z" class="cls-1" data-name="Path 1219" transform="translate(-92.025 -1089.281)"/>
            <path id="Path_1220" d="M359.381 1097.433c-5.064-.025-10.176.244-15.175-.17-3.784-.308-7.662.14-11.351-.732-.526-.574.206-.739.628-1 5.6.154 11.214.175 16.781.523 2.435.154 4.7.379 7.027-.324a6.352 6.352 0 0 1 2.216.3c.501.497.443.96-.126 1.403z" class="cls-1" data-name="Path 1220" transform="translate(-242.382 -1091.56)"/>
            <path id="Path_1221" d="M78.989 1118.759a22.582 22.582 0 0 1-7.588-.709c-.166-.906 1.358-.587 1.61-1.16 1.145-.677 2.78-.295 3.925-.977-.817-.632-3.53 0-2.6-1.893h.006a2.98 2.98 0 0 1 1.505-.584 74.147 74.147 0 0 1 9.641.09 2.856 2.856 0 0 1 .9.368c.922 1.511-.337 1.96-2.061 2.084-1.3.1-2.667.007-2.8 1.321-.386.901-1.574 1.082-2.538 1.46z" class="cls-1" data-name="Path 1221" transform="translate(-55.628 -1102.49)"/>
            <path id="Path_1222" d="M260.509 1131.319c1.486-.3 3.292.361 4.511-.79.2-.192.833-.106.859.069.34 2.216 2.688.975 4 1.071 2.249.154 4.6.619 6.837-.119.754-.244.934.113 1.134.491.371.71 1.306.411 1.986.571-.134.931-.621 1.476-2.139 1.161-.719-.145-1.539-.031-2.262-.166-4.588-.845-9.361-.183-13.981-.926-1.507-.243-.874-.827-.945-1.362z" class="cls-1" data-name="Path 1222" transform="translate(-193.762 -1112.594)"/>
            <path id="Path_1223" d="M505.538 1136.352a3.376 3.376 0 0 1 1.87-.22c1.382.2 1.4.16 3.189-.937a3.96 3.96 0 0 1 2.173-.259c5.042.082 10.084 0 15.127-.131a13.127 13.127 0 0 0 4.674-.752h4.544c-.019 1.014-1.424.8-1.7 1.357-4.485.519-9.013.8-13.521 1.187-.955-.056-1.913-.051-2.867-.056-.562 0-1.117 0-1.676.029-3.283.065-6.464.888-9.782.742a7.306 7.306 0 0 1-2.166-.249l-.037-.124.146-.07c-.211-.122-.281-.241-.207-.354s.161-.163.233-.163z" class="cls-1" data-name="Path 1223" transform="translate(-357.695 -1114.703)"/>
            <path id="Path_1224" d="M205.668 1138.182h.037c-6.764-.833-13.644-.429-20.441-.968-2.073-.164-4.193.215-6.258-.249-.6-.33-.639-.724-.235-1.156 5.034-.264 10.061.1 15.089.215 3.5.074 7 .234 10.5.353a5.985 5.985 0 0 1 2.235.269.712.712 0 0 1 .333.639c-.215.449-.387.926-1.26.897z" class="cls-1" data-name="Path 1224" transform="translate(-140.873 -1115.601)"/>
            <path id="Path_1225" d="M309.511 1095.346a8.355 8.355 0 0 1-4.793.282 44.963 44.963 0 0 0-8.826-.318c-2.1.086-4.051-.737-6.159-.288-.532.115-.711-.305-.748-.619a.652.652 0 0 1 .514-.8c1.254-.254 2.9-.674 3.779-.209 1.665.872 3.85-.166 5.222 1.032 1.53-1.156 3.369.01 4.94-.326 1.53-.327 2.772.422 4.187.281.435.519 2.218-.331 1.884.965z" class="cls-1" data-name="Path 1225" transform="translate(-212.593 -1090.379)"/>
            <path id="Path_1228" d="M224.76 1126.688c-1.152-.25-2.32-.474-3.454-.763-1.923-.488-1.911-.508-1.228-2.2 1.447-.789 3.106-.584 4.722-.5 1.338.064 2.485.483 3.831-.514 1.191-.886 1.2.468 1.556.986a1.762 1.762 0 0 1-.764 1.552c-.633.029-1.26.054-2.362.1 1.23.51 2.272.828 2.484 1.665-.184.275-.44.318-.78.14a14.253 14.253 0 0 0-4.005-.466z" class="cls-1" data-name="Path 1228" transform="translate(-166.256 -1108.014)"/>
            <path id="Path_1229" d="M408.568 1138.145c-1.9-.7-3.97-1.322-3.262-3.336 2.662.068 5.369-.144 7.924.633.442.235.782.508.757.933.006.422.231.727.845.837.726.123 1.04.482 1.072.992l.171.064-.052.135c-1.217.312-2.264-.391-3.448-.3z" class="cls-1" data-name="Path 1229" transform="translate(-286.588 -1115.181)"/>
            <path id="Path_1230" d="M324.038 1103.132c-.3.58-.589 1.16-.91 1.8-1.082-.34-1.774-1.181-3.044-.074-.609.537-2.74.464-4.048.248-2.83-.469-5.677-.09-8.482-.354-.774-.329-1.935-.452-1.428-1.436 3.292.144 6.6-.189 9.885.26a1.891 1.891 0 0 0 1.593.009c2.022-1.07 4.28-.385 6.434-.453z" class="cls-1" data-name="Path 1230" transform="translate(-223.345 -1096.524)"/>
            <path id="Path_1231" d="M121.481 1127.782c-.161-.922-1.533-.365-2.181-.922.744-.458 1.674-.158 2.393-.414-.475-.5-1.723-.292-1.985-1.105 1.082-.059 2.157-.121 3.228-.179.281.572 1 .741 1.653 1.046 1.9.9 1.858.892 2.99.972 4.376.3 8.765.468 13.166.455.711-.007 1.334.1 1.357.743-6.131.179-12.229-.5-18.367-.305a14.853 14.853 0 0 1-2.254-.291z" class="cls-1" data-name="Path 1231" transform="translate(-93.776 -1109.507)"/>
            <path id="Path_1232" d="M235.194 1138.041c-.015-.15-.028-.3-.046-.449 4.26.071 8.547-.095 12.743.664.116.213.147.488.361.638.608.439 2.419.18 1.845 1.23-.386.7-1.764.379-2.712.33a7.919 7.919 0 0 1-1.544-.4c-.609-.37-1.164-.853-2.088-.441l-.211.026-.212-.013a8.39 8.39 0 0 0-5.5-.026l-.274.035-.283-.029c-.639-.559-1.978-.643-2.079-1.565z" class="cls-1" data-name="Path 1232" transform="translate(-176.764 -1116.742)"/>
            <path id="Path_1233" d="M471.493 1146.587a1.31 1.31 0 0 1-1.231.673c-4.865-.177-9.629.863-14.511.569-1.191-.069-2.257-.044-2.329-1.166a2.582 2.582 0 0 1 .612-.174c5.823-.155 11.646-.326 17.459.098z" class="cls-1" data-name="Path 1233" transform="translate(-319.61 -1121.683)"/>
            <path id="Path_1234" d="M290.431 1102.76q.71.719 1.428 1.436a14.129 14.129 0 0 1-4.523-.249c-4.068-.449-8.267.019-12.251-.9a.578.578 0 0 1 .109-.978c1.771-.166 3.538.614 5.311.009.156-.249.366-.288.649-.089a30.1 30.1 0 0 0 6.733.553 6.5 6.5 0 0 1 2.544.218z" class="cls-1" data-name="Path 1234" transform="translate(-202.874 -1093.17)"/>
            <path id="Path_1235" d="M389.049 1104.99c-2.033 1.452-2.027 1.4-6.089 1.273-1.479-.05-2.98.269-4.492.119-.447-.336-.4-.677-.025-1.022 1.172-.291 2.449.075 3.359-.155-1.526 0-3.3.089-5.081.189a2.557 2.557 0 0 1-.864-.443 1.91 1.91 0 0 0-.227-.449c.8-.747 1.949-.489 2.98-.5 1.717-.03 3.439-.013 5.159-.013a1.889 1.889 0 0 0 1.356.174 6.88 6.88 0 0 1 3.608.374c.281-.035.432.045.447.248.02.131-.044.205-.131.205z" class="cls-1" data-name="Path 1235" transform="translate(-267.936 -1097.104)"/>
            <path id="Path_1237" d="M466.3 1105.168q-6.014-.061-12.032-.111c-.884-.008-1.814.035-1.871-.877 6.919.049 13.84-.193 20.749.125.227.015.432.313.744.558-1.472.447-2.911.169-4.278.279a.548.548 0 0 1-.733.009z" class="cls-1" data-name="Path 1237" transform="translate(-329.222 -1097.165)"/>
            <path id="Path_1239" d="M511 1105.223c5.59-.129 11.108.764 16.734.589-1.531 1.21-3.5.743-5.261.73a52.174 52.174 0 0 0-5.855.472c-2.031.2-3.8-.646-5.716-.982-.317-.29-.44-.567.098-.809z" class="cls-1" data-name="Path 1239" transform="translate(-360.392 -1097.808)"/>
            <path id="Path_1241" d="M261.11 1101.614c-.037.324-.078.654-.109.978a98.451 98.451 0 0 1-13.921-.375.383.383 0 0 1 .052-.652 5.324 5.324 0 0 1 3.432-.578 105.427 105.427 0 0 1 10.546.627z" class="cls-1" data-name="Path 1241" transform="translate(-184.332 -1094.295)"/>
            <path id="Path_1242" d="M77.539 1110.163c2.774.517 5.606.1 8.4.259 1.838.1 3.69.064 5.536.09a.873.873 0 0 1 .434.974c-.39.795-1.363 1-2.35 1.184a1.839 1.839 0 0 1-1.353-.325l.006.016c-3.669-.929-7.488-.2-11.218-.509-1.267-.291-2.644-.539-1.17-1.76.566.027 1.143.046 1.715.071z" class="cls-1" data-name="Path 1242" transform="translate(-71.54 -1100.679)"/>
            <path id="Path_1244" d="M536.875 1137.239a136.86 136.86 0 0 1 13.98-.513 2.959 2.959 0 0 0 .568.05c.187.08.253.168.206.264s-.1.148-.159.148c-3.423.33-6.92.31-10.19 1.318a7.97 7.97 0 0 1-5.039.139c-.741-.692-.141-1.067.634-1.406z" class="cls-1" data-name="Path 1244" transform="translate(-373.131 -1116.142)"/>
            <path id="Path_1245" d="M386.528 1097.943c.044-.469.081-.937.126-1.4l14.414.529c.571.1.91.309.738.773-3.875.892-7.8.09-11.692.135-1.198.008-2.391-.028-3.586-.037z" class="cls-1" data-name="Path 1245" transform="translate(-275.372 -1092.07)"/>
            <path id="Path_1246" d="M531.741 1116.58a4.117 4.117 0 0 1-2.946.9c1.094-.911-2.021-1.684.312-2.635-1.985-.545-4.253-.24-6.067-1.15q6.141.018 12.279.031c.039.186.072.37.113.553-1.761.539-3.2 1.55-5.349 1.47.039 1.017 1.017.732 1.658.831z" class="cls-1" data-name="Path 1246" transform="translate(-366.648 -1102.838)"/>
            <path id="Path_1247" d="M402.367 1105.075c-.1-.152-.213-.308-.314-.458 1.934-.9 4.073-.273 6.029-.215 3.688.111 7.381.03 11.07.174-.578.843-1.615.882-2.769.927a87.685 87.685 0 0 1-10.051-.358c-1.345-.11-2.714 1.032-3.965-.07z" class="cls-1" data-name="Path 1247" transform="translate(-285.859 -1097.171)"/>
            <path id="Path_1249" d="M91.967 1133.766c.967.843.967.843 3.485 1.276-3.775.738-6.855 1.251-10.123.622.532-.269.89-.6.729-1.1.3-1.2 2.051-.1 2.628-.857a9.652 9.652 0 0 1 3.281.059z" class="cls-1" data-name="Path 1249" transform="translate(-76.653 -1114.354)"/>
            <path id="Path_1250" d="M535.458 1110.885c-.041.581-.562.607-.95.611-3.632.032-7.274.041-10.9.036-.656 0-1.532-.026-1.56-.6-.025-.607.852-.673 1.5-.593a87.664 87.664 0 0 0 9.57.22 4.642 4.642 0 0 1 2.34.326z" class="cls-1" data-name="Path 1250" transform="translate(-366.144 -1100.748)"/>
            <path id="Path_1252" d="M86.7 1122.2c-.142-1.107 1.451-.648 2.005-1.142 1.1-1.321 2.734-.88 4.3-.668.974.7 3.293.783 2.2 2.444a15.289 15.289 0 0 1-4.613-.12 17.935 17.935 0 0 1-3.892-.514z" class="cls-1" data-name="Path 1252" transform="translate(-77.342 -1106.549)"/>
            <path id="Path_1253" d="M509.6 1139.013a39.377 39.377 0 0 0 6.139-.6 7.115 7.115 0 0 1 3.547-.019c.7.114 1.38-.129 2.084-.045.526.324.629.668.119 1.049-3.937.591-7.924.227-11.889.335-.434-.233-.447-.476 0-.72z" class="cls-1" data-name="Path 1253" transform="translate(-359.706 -1116.953)"/>
            <path id="Path_1254" d="M363.815 1104.145a2.408 2.408 0 0 1-2.579 1.435c-1.308-.07-2.642.111-3.94.029-1.417-.084-2.865-.283-3.388-1.481.531.02 1.06.041 1.6.065a6.457 6.457 0 0 1 1.843-.06c1.466.468 1.1-.569 1.577-.888 1.692.131 3.45.077 4.887.9z" class="cls-1" data-name="Path 1254" transform="translate(-253.177 -1096.683)"/>
            <path id="Path_1255" d="M224.634 1101.4c-3.018.688-6.1.209-9.156.3a1.935 1.935 0 0 1-2.3-.261.818.818 0 0 1 .3-1.059 23.459 23.459 0 0 1 4.7.02c1.539-.355 3.089.638 4.62-.026h1.924c.548.367.566.716-.088 1.026z" class="cls-1" data-name="Path 1255" transform="translate(-162.134 -1093.945)"/>
            <path id="Path_1257" d="M497.7 1147.5c-1.327.559-2.768.059-4.142.234-.9-.407-.716-.911-.229-1.434.134-.565.646-.788 1.393-.783a16.925 16.925 0 0 1 4.887.254.918.918 0 0 1-.014.952 2.659 2.659 0 0 1-1.895.777z" class="cls-1" data-name="Path 1257" transform="translate(-350.044 -1121.262)"/>
            <path id="Path_1258" d="M90.308 1089.25c-1.9-.014-3.81-.033-5.712-.049a2.177 2.177 0 0 1 1.606-.742c3.485-.253 6.926-.853 10.461-.673.308.015.641.066.738.578-2.19.796-4.868.094-7.093.886z" class="cls-1" data-name="Path 1258" transform="translate(-76.284 -1087.64)"/>
            <path id="Path_1259" d="M539.173 1096.211a41.607 41.607 0 0 1-12.462-.787 54.791 54.791 0 0 1 12.462.787z" class="cls-1" data-name="Path 1259" transform="translate(-368.498 -1091.454)"/>
            <path id="Path_1260" d="M78.593 1093.841c-.181-.722.409-.886 1.243-1.071 2.439-.544 4.989-.181 7.436-.568.661.054 1.322.1 1.988.16.211.123.262.24.166.328a.367.367 0 0 1-.255.135c-3.392 1.067-7.099.419-10.578 1.016z" class="cls-1" data-name="Path 1260" transform="translate(-73.241 -1089.883)"/>
            <path id="Path_1261" d="M164.92 1135.408c-.007.224-.015.453-.02.683a1.347 1.347 0 0 1-1.563.593c-3.66-.687-7.4-.029-11.066-.4-.544-.064-1.178-.163-1.237-.592-.089-.593.641-.684 1.271-.773l12.615.489z" class="cls-1" data-name="Path 1261" transform="translate(-121.936 -1115.08)"/>
            <path id="Path_1264" d="M477.384 1109.192c-1.315-.05-2.636-.179-3.943-.137a3.581 3.581 0 0 1-3.024-1.264c.817-.261 1.554-1.081 2.279.1.77 1.242 1.749.424 2.672.149q3.24.241 6.477.478c.485.195.495.389.007.59-1.484.025-2.981.053-4.468.084z" class="cls-1" data-name="Path 1264" transform="translate(-338.372 -1099.009)"/>
            <path id="Path_1265" d="M238.018 1131.27c.256-.044.518-.095.78-.14a4 4 0 0 0 1.755-.4 1.456 1.456 0 0 1 1.431.069c.186.076.421.236.549.2 1.794-.484 1.794-.489 2.8.46a.871.871 0 0 1-.782.641c-1.679.055-3.363.065-5.049.095-.882.018-1.402-.277-1.484-.925z" class="cls-1" data-name="Path 1265" transform="translate(-177.831 -1112.543)"/>
            <path id="Path_1267" d="M191.72 1123.652c.461.006.916.01 1.372.01a1.814 1.814 0 0 1 1.958.045c.008.388.008.778.014 1.166-1.091-.051-2.185-.1-3.276-.15-.979-.7-1.835-.07-2.732.139a1.5 1.5 0 0 1-1.313-.169c-.422-.663-1.1-.6-1.833-.324-.973.374-1.344.045-1.446-.619a4.758 4.758 0 0 1 3.594-.558c.366.02.724.026 1.089.026a3.936 3.936 0 0 1 2.573.434z" class="cls-1" data-name="Path 1267" transform="translate(-143.446 -1108.209)"/>
            <path id="Path_1269" d="M236.361 1101.477c.028-.345.059-.687.084-1.034a10.474 10.474 0 0 1 5.364.844c-.015.218-.034.437-.052.652-1.941.733-3.657.005-5.396-.462z" class="cls-1" data-name="Path 1269" transform="translate(-176.576 -1094.018)"/>
            <path id="Path_1270" d="M290.477 1087.772c-.218.24-.428.472-.655.713-3.236.292-6.353-.292-9.717-.43.321-.312.449-.534.556-.529 3.275.065 6.539.16 9.816.246z" class="cls-1" data-name="Path 1270" transform="translate(-205.42 -1087.526)"/>
            <path id="Path_1272" d="M147.508 1134.625c.1.414-1.558.292-.577.977.262.46-.243.629-.607.848-.11 0-.283.033-.309 0-1.037-1.2-2.9-1.423-4.5-1.936a19.312 19.312 0 0 1 5.993.111z" class="cls-1" data-name="Path 1272" transform="translate(-106.618 -1114.768)"/>
            <path id="Path_1273" d="M94.1 1125.245q2.45-.039 4.912-.066l.206-.01a10.11 10.11 0 0 1 3.473.468h-7.057c-.075.674 1.378.662.707 1.231a2.194 2.194 0 0 1-2.667-.392c-.134-.16.039-.455.07-.683.122-.184.238-.369.356-.548z" class="cls-1" data-name="Path 1273" transform="translate(-80.834 -1109.425)"/>
            <path id="Path_1276" d="M99.948 1092.484a.771.771 0 0 1 .09-.464 8.808 8.808 0 0 1 6.278.169c-2.198 1.187-4.343.071-6.368.295z" class="cls-1" data-name="Path 1276" transform="translate(-84.019 -1089.541)"/>
            <path id="Path_1278" d="M542.8 1100.61c2.856-.5 4.772-.295 6.5.687a20.014 20.014 0 0 1-6.5-.687z" class="cls-1" data-name="Path 1278" transform="translate(-376.605 -1093.989)"/>
            <path id="Path_1279" d="M533.934 1125.7c.044-.539-.107-1.222.954-1.3a21.888 21.888 0 0 1 3.615 0c.449.044.162.523-.021.8a27.42 27.42 0 0 0-4.548.5z" class="cls-1" data-name="Path 1279" transform="translate(-372.138 -1108.893)"/>
            <path id="Path_1280" d="M559.315 1150.123c.007-.274.02-.554.028-.828a20.084 20.084 0 0 1 5.313.117c-1.801 1.094-3.624.715-5.341.711z" class="cls-1" data-name="Path 1280" transform="translate(-384.932 -1123.271)"/>
            <path id="Path_1281" d="M505.693 1146.533c.118-.26.231-.517.348-.778a23.061 23.061 0 0 1 5.574-.258c-.26.736-1.263.732-1.975 1.026a5.582 5.582 0 0 1-3.947.01z" class="cls-1" data-name="Path 1281" transform="translate(-357.903 -1121.161)"/>
            <path id="Path_1282" d="M433.507 1097.549c-.255.455-.511.9-.771 1.357a.835.835 0 0 1-1.3.058c-.268-.737-2.263.19-2.009-1.066 1.26-.717 2.707-.304 4.08-.349z" class="cls-1" data-name="Path 1282" transform="translate(-300.857 -1092.539)"/>
            <path id="Path_1283" d="M227.957 1099.556c-1.524 1.1-3.068.67-4.62.026.649-.812 1.378-1.425 2.571-.428.583.483 1.392.216 2.049.402z" class="cls-1" data-name="Path 1283" transform="translate(-168.098 -1093.126)"/>
            <path id="Path_1284" d="M447.593 1146.856c-.992 1.479-1.94 1.555-3.376.249 1.032-.705 2.235-.24 3.376-.249z" class="cls-1" data-name="Path 1284" transform="translate(-310.247 -1121.886)"/>
            <path id="Path_1285" d="M86.3 1133.639c-.512.861-1.986.2-2.628.857l-2.657-.058c-.57-.33-.551-.664.013-.989 1.755.067 3.517.126 5.272.19z" class="cls-1" data-name="Path 1285" transform="translate(-74.267 -1114.165)"/>
            <path id="Path_1288" d="M435.5 1146.9c-2.048 1.23-2.261 1.245-3.337.16a3.8 3.8 0 0 1 3.337-.16z" class="cls-1" data-name="Path 1288" transform="translate(-302.476 -1121.812)"/>
            <path id="Path_1289" d="M211.209 1099.906c0 .286-.006.568-.006.857a2.276 2.276 0 0 1-2.612-.049c.037-.224.078-.448.107-.671a1.541 1.541 0 0 1 2.511-.137z" class="cls-1" data-name="Path 1289" transform="translate(-158.43 -1093.47)"/>
            <path id="Path_1290" d="M78.283 1090.55c-1.937 1.109-4.123.49-6.224.464 1.961-.932 4.153-.304 6.224-.464z" class="cls-1" data-name="Path 1290" transform="translate(-69.964 -1089.02)"/>
            <path id="Path_1291" d="M437.367 1141.661a13.275 13.275 0 0 1 4.16.111c-1.761.822-2.96.786-4.16-.111z" class="cls-1" data-name="Path 1291" transform="translate(-306.001 -1118.842)"/>
            <path id="Path_1292" d="M426.755 1098.156c.3.718 1.86.215 2.009 1.066-1.206-.045-2.418-.078-3.621-.149-.411-.019-.922-.025-1.019-.423-.136-.574.533-.644 1.034-.663a9.837 9.837 0 0 1 1.597.169z" class="cls-1" data-name="Path 1292" transform="translate(-297.556 -1092.798)"/>
            <path id="Path_1293" d="M420.107 1141.1c1.309-.861 2.31.134 3.448.3-1.342 1.052-2.37.232-3.448-.3z" class="cls-1" data-name="Path 1293" transform="translate(-294.733 -1118.412)"/>
            <path id="Path_1296" d="M328.466 1096.411c-.281-.673-1.536-.359-1.885-.963a14.089 14.089 0 0 1 3.832-.034c-.21.333-.414.669-.628 1-.44-.003-.878-.003-1.319-.003z" class="cls-1" data-name="Path 1296" transform="translate(-234.55 -1091.444)"/>
            <path id="Path_1297" d="M416.591 1098.276c-.244-.259-.484-.514-.732-.773a2.121 2.121 0 0 1 1.805.2c.31.265.849.673.253.977a1.106 1.106 0 0 1-1.326-.404z" class="cls-1" data-name="Path 1297" transform="translate(-291.776 -1092.504)"/>
            <path id="Path_1298" d="M79.715 1133.283c-.005.331-.005.66-.013.989-.835.148-1.744-.051-1.71-.62.052-.752 1.008-.537 1.723-.369z" class="cls-1" data-name="Path 1298" transform="translate(-72.954 -1113.986)"/>
            <path id="Path_1299" d="M118.78 1133.628a2.076 2.076 0 0 1-2.65 0 3 3 0 0 1 2.65 0z" class="cls-1" data-name="Path 1299" transform="translate(-92.178 -1114.068)"/>
            <path id="Path_1300" d="M533.107 1139.16a.782.782 0 0 0-.594-.9c-.165-.086-.224-.17-.171-.259s.1-.129.158-.129a7.787 7.787 0 0 1 2.571-.117c-.263.458-.686.876-.634 1.407-.444-.002-.882-.002-1.33-.002z" class="cls-1" data-name="Path 1300" transform="translate(-371.326 -1116.666)"/>
            <path id="Path_1301" d="M386.606 1145.606c-1.244 1.086-1.634 1.077-2.716-.085a7.654 7.654 0 0 1 2.716.085z" class="cls-1" data-name="Path 1301" transform="translate(-271.275 -1121.113)"/>
            <path id="Path_1303" d="M516.7 1110.749a3.308 3.308 0 0 1-2.916.244 2.771 2.771 0 0 1 2.916-.244z" class="cls-1" data-name="Path 1303" transform="translate(-361.98 -1100.809)"/>
            <path id="Path_1304" d="M507.716 1139.792v.722a5.32 5.32 0 0 1-2.1.05c-.024-.218-.052-.428-.077-.647a4.505 4.505 0 0 1 2.177-.125z" class="cls-1" data-name="Path 1304" transform="translate(-357.824 -1117.792)"/>
            <path id="Path_1305" d="M372.534 1144.782c-.713 1.017-1.4 1.031-2.082-.012a4.192 4.192 0 0 1 2.082.012z" class="cls-1" data-name="Path 1305" transform="translate(-262.516 -1120.645)"/>
            <path id="Path_1306" d="M407.339 1146.205a1.327 1.327 0 0 1-2-.039 2.3 2.3 0 0 1 2 .039z" class="cls-1" data-name="Path 1306" transform="translate(-284.946 -1121.384)"/>
            <path id="Path_1308" d="M492.428 1147.131c.075.482.155.96.229 1.434-1.8.211-1.512-.691-1.5-1.446.425 0 .85.007 1.271.012z" class="cls-1" data-name="Path 1308" transform="translate(-348.909 -1122.139)"/>
            <path id="Path_1310" d="M485.583 1113.157a1.047 1.047 0 0 1-1.244.338c-.5-.2-.71-.493-.211-.853a2.513 2.513 0 0 1 1.455.515z" class="cls-1" data-name="Path 1310" transform="translate(-345.084 -1102.091)"/>
            <path id="Path_1311" d="M82.944 1128.347c-.295.2-.595.394-.891.593-.795-.155-.736-.6-.377-.888.524-.408.942-.035 1.268.295z" class="cls-1" data-name="Path 1311" transform="translate(-74.684 -1110.932)"/>
            <path id="Path_1312" d="M494.5 1113.691c-.784 1.126-.815 1.126-2.04.04.683-.015 1.363-.031 2.04-.04z" class="cls-1" data-name="Path 1312" transform="translate(-349.628 -1102.695)"/>
            <path id="Path_1313" d="M550.791 1106.616c-.117.23-.412.288-.739.2-.3-.08-.582-.244-.452-.5.05-.09.384-.16.574-.15.336.009.654.091.617.45z" class="cls-1" data-name="Path 1313" transform="translate(-380.018 -1098.324)"/>
            <path id="Path_1314" d="M88.738 1126.775c.283.933-.344 1.153-1.486.974q.748-.486 1.486-.974z" class="cls-1" data-name="Path 1314" transform="translate(-77.622 -1110.292)"/>
            <path id="Path_1315" d="M505.452 1110c-.025.264-.05.527-.077.792-.322-.013-.634-.035-.955-.049-.726-.18-.6-.5-.256-.847z" class="cls-1" data-name="Path 1315" transform="translate(-356.995 -1100.494)"/>
            <path id="Path_1316" d="M493.475 1110.345v-.59a5.153 5.153 0 0 1 2.615.305 4.072 4.072 0 0 1-2.615.285z" class="cls-1" data-name="Path 1316" transform="translate(-350.18 -1100.392)"/>
            <path id="Path_1317" d="M446.957 1105.02c-.106.331-.039.8-.745.761-.459-.026-.485-.389-.5-.673.42-.03.827-.061 1.245-.088z" class="cls-1" data-name="Path 1317" transform="translate(-310.755 -1097.665)"/>
            <path id="Path_1321" d="M399.934 1146.147c-.584.62-1.028.451-1.387-.132a1.482 1.482 0 0 1 1.387.132z" class="cls-1" data-name="Path 1321" transform="translate(-280.461 -1121.344)"/>
            <path id="Path_1322" d="M312.9 1134.232c.18-.5-.269-1.091.383-1.544.686.453.237 1.031.348 1.54-.241 0-.484.004-.731.004z" class="cls-1" data-name="Path 1322" transform="translate(-225.314 -1113.763)"/>
            <path id="Path_1323" d="M464.385 1100.724a1.354 1.354 0 0 1 1.94.07 4.68 4.68 0 0 1-1.94-.07z" class="cls-1" data-name="Path 1323" transform="translate(-322.914 -1093.99)"/>
            <path id="Path_1325" d="M449.462 1178.495c-.09.026-.182.086-.262.07-.276-.049-.309-.163-.078-.269a.4.4 0 0 1 .277.036c.051.025.043.11.063.163z" class="cls-1" data-name="Path 1325" transform="translate(-312.689 -1140.049)"/>
            <path id="Path_1328" d="M501.7 1113.731a.746.746 0 0 1-1.293-.04c.439.009.869.025 1.293.04z" class="cls-1" data-name="Path 1328" transform="translate(-355.24 -1102.675)"/>
            <path id="Path_1330" d="M450.221 1097.164l-.253.011h-.258c.081-.111.165-.221.249-.325.082.101.172.211.262.314z" class="cls-1" data-name="Path 1330" transform="translate(-313.169 -1092.224)"/>
            <path id="Path_1331" d="M567.243 1137.3a.985.985 0 0 0-.047-.413c.162.059.315.119.477.186-.143.076-.29.15-.43.227z" class="cls-1" data-name="Path 1331" transform="translate(-388.904 -1116.107)"/>
            <path id="Path_1332" d="M490.345 1113.745c-.233.286-.442.235-.642-.013.212.009.422.013.642.013z" class="cls-1" data-name="Path 1332" transform="translate(-348.127 -1102.69)"/>
            <path id="Path_1333" d="M289.743 1125.741c.053.859-.811.779-1.575.783-2.871.014-5.746.129-8.6.009-5.473-.239-10.931-.6-16.388-.942a4.439 4.439 0 0 1-1.174-.4 1.033 1.033 0 0 0-1.365-.014c-1.767-.1-3.579.139-5.3-.349a3.3 3.3 0 0 0 .678-2.073 1.169 1.169 0 0 1 1.377-.544.945.945 0 0 0 1.514.3 2.178 2.178 0 0 1 1.217.119 3.716 3.716 0 0 0 3.677.774 3.456 3.456 0 0 1 1.288.06c.334.388.62.388.859-.06a2.828 2.828 0 0 1 2.7-.319 3.372 3.372 0 0 0 .992.253c.333-.039.666-.089 1-.1.222 0 .448 0 .666-.009 1.671-1.1 3.785.593 5.465-.446.567.156 1.138.315 1.71.471a4.992 4.992 0 0 1 1.32.892c1.024 1.171 2.746.511 4.1.786 1.9.385 4.043-.109 5.824.789z" class="cls-1" data-name="Path 1333" transform="translate(-192.394 -1107.839)"/>
            <path id="Path_1334" d="M331.071 1116.845a3.894 3.894 0 0 1-3.082 1.01c-4-.314-8.04-.314-12.055-.532-6.409-.346-12.833-.508-19.221-1.107-.7-.349-.7-.689.012-1.027 4.966.11 9.944.08 14.891.363 3.869.219 7.716.231 11.584.225a34.117 34.117 0 0 1 7.844.7c.163.076.222.154.177.239s-.098.129-.15.129z" class="cls-1" data-name="Path 1334" transform="translate(-219.638 -1103.653)"/>
            <path id="Path_1335" d="M366.5 1117.968a2.516 2.516 0 0 1-.027-.37c5.916-.543 11.778.314 17.673.32 2.41 0 4.817-.016 7.22-.029a6.6 6.6 0 0 1 3.722.667v.264a19.177 19.177 0 0 1-6.936.224 7.977 7.977 0 0 0-3.245.009c-2.394.625-4.835.047-7.264.35s-5.03-.095-7.548-.045c-1.663.03-2.521-.769-3.595-1.39z" class="cls-1" data-name="Path 1335" transform="translate(-264.959 -1104.92)"/>
            <path id="Path_1336" d="M183.543 1112.607c-4.941-.119-9.873-.359-14.813-.328-5.6.034-11.171-.644-16.777-.324a5.461 5.461 0 0 1-2.311.478c-4.024-.1-8.088.439-12.072-.347-.621-.305-.677-.7-.344-1.154a95.109 95.109 0 0 1 11.475.125c7.469.375 14.945.135 22.412.3 3.73.08 7.415.623 11.155.464.723-.041 1.312.143 1.275.786z" class="cls-1" data-name="Path 1336" transform="translate(-104.698 -1101.057)"/>
            <path id="Path_1337" d="M269.11 1113.477c0 .343-.006.684-.012 1.027-.71.035-1.424.074-2.139.113a1.8 1.8 0 0 1-2.019.051 12.571 12.571 0 0 0-4.682-.318 124.309 124.309 0 0 0-13.539-.674c-1.858 0-3.754-.006-5.317-.922 1.43-.017 2.857-.01 4.285-.045.621-.01 1.48.384 1.43-.684-.022-.364 1.652-.269 2.291.057a5.819 5.819 0 0 0 4.344.275 10.542 10.542 0 0 1 2.947-.017c3.658.221 7.227 1.242 10.995.615.4-.067.942.337 1.416.522z" class="cls-1" data-name="Path 1337" transform="translate(-182.293 -1101.695)"/>
            <path id="Path_1338" d="M425.757 1114.134c6.188-.747 12.353-.285 18.537-.492-.034 1.46-1.206 1.526-2.328 1.451-3.032-.212-6.152.491-9.1-.46-1.69.877-3.548-.388-5.286.225a1.29 1.29 0 0 1-1.823-.724z" class="cls-1" data-name="Path 1338" transform="translate(-301.653 -1102.696)"/>
            <path id="Path_1339" d="M424.167 1119.545a.944.944 0 0 0 0-.264 4.6 4.6 0 0 1 2.519-.394c4.458.469 8.928.025 13.388.148q3.615.1 7.226.211c.295.178.346.389.149.629-.858-.011-1.717-.022-2.569-.03-1.973.736-4.105.434-6.177.5a11.031 11.031 0 0 0-4.177.484l-1.512-.03c-.6-.019-1-.439-1.627-.424-1.017.449-1.977-.258-2.875-.125-.922.141-1.688.683-2.2-.383-.112-.228-.68.064-1.045.26-1.035.544-.523-.582-1.1-.582z" class="cls-1" data-name="Path 1339" transform="translate(-301.76 -1105.751)"/>
            <path id="Path_1340" d="M484.439 1119.4c6.127-1 12.33-.8 18.524-.674-6.11 1.024-12.315.78-18.524.674z" class="cls-1" data-name="Path 1340" transform="translate(-347.19 -1105.554)"/>
            <path id="Path_1341" d="M445.053 1121.669c.243-.809.86-1.181 2.1-1.138 2.751.095 5.5.111 8.259.156a2.079 2.079 0 0 1-2.18 1.181c-2.727-.046-5.474.279-8.179-.199z" class="cls-1" data-name="Path 1341" transform="translate(-312.329 -1106.69)"/>
            <path id="Path_1342" d="M242.634 1121.46c.652.008 1.305.014 1.957.025.361 1.056 2.129 1.581 2.052 2.8-2.569-.914-4.895.12-7.3.484.015-.478.025-.963.039-1.443 1.11-.605 1.438-1.9 3.252-1.866z" class="cls-1" data-name="Path 1342" transform="translate(-178.687 -1107.349)"/>
            <path id="Path_1343" d="M313.733 1127.139c-3.177.289-6.286-.51-9.474-.294-1.141.08-1.032-.863-1.3-1.431a6.434 6.434 0 0 1 4.95.163c1.973.2 3.941.389 5.916.584-.034.325-.06.654-.092.978z" class="cls-1" data-name="Path 1343" transform="translate(-220.304 -1109.336)"/>
            <path id="Path_1344" d="M512.364 1128.8a16.029 16.029 0 0 1-7.706.34 3.574 3.574 0 0 0-3.267.293 1.323 1.323 0 0 1-1.623-.434c-.269-.642.472-.792 1.17-.816a13.659 13.659 0 0 1 3.284-.019c2.69.629 5.432.431 8.142.636z" class="cls-1" data-name="Path 1344" transform="translate(-354.888 -1111.068)"/>
            <path id="Path_1345" d="M398.1 1113.917c2.872-.453 5.747-.328 8.565-.876a5.628 5.628 0 0 1 3.737 1.124 77.95 77.95 0 0 1-12.302-.248z" class="cls-1" data-name="Path 1345" transform="translate(-282.286 -1102.31)"/>
            <path id="Path_1346" d="M367.441 1113.315c3.937-.822 7.881.317 12.41-.376-2.318 1.794-4.517.755-6.484.828a17.943 17.943 0 0 1-5.926-.452z" class="cls-1" data-name="Path 1346" transform="translate(-262.4 -1102.268)"/>
            <path id="Path_1347" d="M124.035 1111.011c.006.221.006.433.01.65-.7.946-1.972.823-3.13.846-3.045.07-6.005-.447-9.014-.628-.572-.179-1.141-.359-1.032-.921q6.583.028 13.166.053z" class="cls-1" data-name="Path 1347" transform="translate(-89.52 -1101.139)"/>
            <path id="Path_1348" d="M344.825 1112.425c3.132-.988 6.181.246 9.289.256a20.766 20.766 0 0 1-9.316.158c-.184-.1-.241-.188-.178-.277a.267.267 0 0 1 .205-.137z" class="cls-1" data-name="Path 1348" transform="translate(-247.078 -1101.756)"/>
            <path id="Path_1349" d="M368.456 1124.1a6.683 6.683 0 0 1-4.181.612c-.533-.029-1.172-.267-1.134-.712.057-.683.95-.6 1.524-.538 1.277.147 2.529.417 3.791.638z" class="cls-1" data-name="Path 1349" transform="translate(-258.357 -1108.365)"/>
            <path id="Path_1350" d="M470.962 1120.169c-.053-.21-.1-.413-.149-.627a23.644 23.644 0 0 1 4.986.088c-3.305 1.536-3.305 1.536-4.837.539z" class="cls-1" data-name="Path 1350" transform="translate(-338.34 -1106.066)"/>
            <path id="Path_1351" d="M447.507 1110.347c-1.1-.044-1.919-.084-2.769-.123-.113-.9.072-1.91 1.573-1.815s.482 1.284 1.196 1.938z" class="cls-1" data-name="Path 1351" transform="translate(-310.441 -1099.669)"/>
            <path id="Path_1352" d="M471.4 1125.873c-2.048.758-3.594.812-7.988.439 2.943-.564 5.518.08 7.988-.439z" class="cls-1" data-name="Path 1352" transform="translate(-323.671 -1109.745)"/>
            <path id="Path_1353" d="M339.692 1112.349a1.722 1.722 0 0 1-.028.414 26.471 26.471 0 0 1-5.253-.069c2.033-1.372 3.67-.632 5.281-.345z" class="cls-1" data-name="Path 1353" transform="translate(-239.818 -1101.656)"/>
            <path id="Path_1354" d="M376 1105.951c.2.025.395.045.589.061.523.462 1.494-.005 2 .493.009.293.013.589.019.878-.946-.061-1.3.786-2.413.777a3.34 3.34 0 0 1-.195-2.209z" class="cls-1" data-name="Path 1354" transform="translate(-266.133 -1098.251)"/>
            <path id="Path_1355" d="M433.111 1125.682a3.906 3.906 0 0 1-3.506.264c1.165-1.046 2.357-.619 3.506-.264z" class="cls-1" data-name="Path 1355" transform="translate(-300.863 -1109.423)"/>
            <path id="Path_1356" d="M320.978 1112.04c1.6-.169 3.221-.567 4.9.544-1.92.339-3.35-.439-4.9-.544z" class="cls-1" data-name="Path 1356" transform="translate(-231.095 -1101.616)"/>
            <path id="Path_1357" d="M447.822 1125.712a3.476 3.476 0 0 1-3.356 1.007c.749-1.001 1.784-.968 3.356-1.007z" class="cls-1" data-name="Path 1357" transform="translate(-310.403 -1109.679)"/>
            <path id="Path_1358" d="M439.638 1108.713c-1.691.465-2.575.569-3.894-.189a9.532 9.532 0 0 1 3.894.189z" class="cls-1" data-name="Path 1358" transform="translate(-304.899 -1099.629)"/>
            <path id="Path_1359" d="M453.738 1108.86c-.411-.06-.9-.016-1.086-.364-.208-.375.094-.59.564-.635a6.678 6.678 0 0 1 2.806.2c.2.07-.006.41-.277.565-.699-.061-1.313.268-2.007.234z" class="cls-1" data-name="Path 1359" transform="translate(-315.668 -1099.289)"/>
            <path id="Path_1360" d="M464.26 1109.343c-.692.084-1.042-.045-1.07-.434-.024-.339.193-.654.712-.595.494.057 1.129.176 1.2.589.03.14-.634.339-.842.44z" class="cls-1" data-name="Path 1360" transform="translate(-322.139 -1099.581)"/>
            <path id="Path_1361" d="M236.738 1113.8c-.86-.013-1.724-.035-2.584-.05.859-1.139 1.154-1.139 2.584.05z" class="cls-1" data-name="Path 1361" transform="translate(-174.879 -1102.24)"/>
            <path id="Path_1362" d="M438.724 1121.386c.06-.359.333-.594.841-.494.6.121.583.584.786.922-.751.27-1.327.196-1.627-.428z" class="cls-1" data-name="Path 1362" transform="translate(-306.342 -1106.87)"/>
            <path id="Path_1363" d="M457.991 1126.348a5.418 5.418 0 0 1-3.132.185c.853-.624 1.728-.324 3.132-.185z" class="cls-1" data-name="Path 1363" transform="translate(-317.048 -1109.898)"/>
            <path id="Path_1364" d="M454.91 1109.479a1.7 1.7 0 0 1 2.007-.234c-.617.278-1.147.991-2.007.234z" class="cls-1" data-name="Path 1364" transform="translate(-316.834 -1099.992)"/>
            <path id="Path_1365" d="M109.416 1110.948l.792.587a1.375 1.375 0 0 1-2.236.125c.015-.239.022-.483.028-.722.474.005.941.005 1.416.01z" class="cls-1" data-name="Path 1365" transform="translate(-88.066 -1101.114)"/>
            <path id="Path_1366" d="M530.445 1121.111c.134-.08.262-.236.4-.236.357.006.492.195.35.416a.627.627 0 0 1-.478.134c-.125-.02-.186-.204-.272-.314z" class="cls-1" data-name="Path 1366" transform="translate(-370.38 -1106.843)"/>
            <path id="Path_1367" d="M468.29 1114.2h-2.61a5.533 5.533 0 0 1 2.616-.45c.224.1.3.2.216.3a.281.281 0 0 1-.222.15z" class="cls-1" data-name="Path 1367" transform="translate(-323.955 -1102.709)"/>
            <path id="Path_1368" d="M479.947 1113.2c.125.086.359.166.373.256.031.269-.248.382-.57.309a.349.349 0 0 1-.219-.344c.023-.096.269-.154.416-.221z" class="cls-1" data-name="Path 1368" transform="translate(-342.781 -1102.396)"/>
            <path id="Path_1369" d="M515.257 1121.49c.166.061.338.119.512.186a.841.841 0 0 1-1.02.013c.169-.065.332-.134.508-.199z" class="cls-1" data-name="Path 1369" transform="translate(-362.468 -1107.188)"/>
            <path id="Path_1370" d="M510.589 1121.741a1.764 1.764 0 0 1-.524.155 1.594 1.594 0 0 1-.506-.189 1.911 1.911 0 0 1 .533-.155 1.508 1.508 0 0 1 .497.189z" class="cls-1" data-name="Path 1370" transform="translate(-359.852 -1107.223)"/>
            <path id="Path_1371" d="M473.381 1113.671c.506.074 1.363-.285 1.408.314.02.283-.89.144-1.39.17-.218-.106-.294-.211-.232-.32s.143-.164.214-.164z" class="cls-1" data-name="Path 1371" transform="translate(-339.456 -1102.646)"/>
            <path id="Path_1372" d="M472.27 1113.712c.008.164.013.323.019.484-.451-.006-.9-.006-1.346-.015a3.608 3.608 0 0 0 .006-.45c.445-.005.877-.009 1.321-.019z" class="cls-1" data-name="Path 1372" transform="translate(-338.287 -1102.691)"/>
            <path id="Path_1373" d="M255.033 1122.366l.078.488c-.539-.119-.611-.279-.078-.488z" class="cls-1" data-name="Path 1373" transform="translate(-187.858 -1107.703)"/>
            <path id="Path_1374" d="M267.987 1141.963c2.877-.368 4.991-.548 7 .4-2.124.174-4.257.557-7-.4z" class="cls-1" data-name="Path 1374" transform="translate(-197.164 -1118.92)"/>
            <path id="Path_1375" d="M240.546 1140.692c1.847-.972 3.684-1.51 5.5.026a30.426 30.426 0 0 1-5.5-.026z" class="cls-1" data-name="Path 1375" transform="translate(-179.282 -1117.826)"/>
            <path id="Path_1376" d="M234.25 1138.5c.87.4 2.126.533 2.074 1.566-.242.05-.485.09-.73.134-.782-.193-1.717-.084-2.319-.613.083-.476.519-.787.975-1.087z" class="cls-1" data-name="Path 1376" transform="translate(-174.358 -1117.151)"/>
            <path id="Path_1377" d="M252.5 1141.159c1.514-.747 1.679-.711 2.088.441a4.464 4.464 0 0 1-2.088-.441z" class="cls-1" data-name="Path 1377" transform="translate(-186.633 -1118.337)"/>
            <path id="Path_1378" d="M361.826 1134.811a7.034 7.034 0 0 1-4.221.344 7.361 7.361 0 0 0-3.147.209c-1.036-.689-2.546-.314-3.94-.908a5.456 5.456 0 0 1 4.428-.608c1.8.358 3.576.33 4.85-.908.969-.074 1.493.494 2.225.764 1.453.544-.006.753-.195 1.107z" class="cls-1" data-name="Path 1378" transform="translate(-251.363 -1113.978)"/>
            <path id="Path_1379" d="M422.184 1136.625a1 1 0 0 1-.757-.933c2.275-.279 4.563-.764 6.941.115-1.753 2.067-4.089.937-6.184.818z" class="cls-1" data-name="Path 1379" transform="translate(-296.298 -1115.299)"/>
            <path id="Path_1380" d="M335.045 1131.434c-.408.429-.5 1.056-1.533 1.062-.455 0-1.275-.156-1.2.443s-.064.937-.955.9c-.464-.019-.8-.243-.848-.6-.075-.468-.178-.952.5-1.26.636-.3 1.283-.578 1.917-.869a2.924 2.924 0 0 1 2.119.324z" class="cls-1" data-name="Path 1380" transform="translate(-237.158 -1112.91)"/>
            <path id="Path_1381" d="M388.755 1133.524a4.847 4.847 0 0 1-.006.694 1.062 1.062 0 0 1-1.342 1.01c-.925-.183-.177-.742-.1-1.14a6.2 6.2 0 0 0 .052-.917l1.396.353z" class="cls-1" data-name="Path 1381" transform="translate(-273.081 -1114.087)"/>
            <path id="Path_1382" d="M438.522 1135.934c.623.06 1.028.26.963.752a.679.679 0 0 1-.863.519c-.489-.089-1.047-.3-1.02-.772.02-.405.518-.428.92-.499z" class="cls-1" data-name="Path 1382" transform="translate(-305.675 -1115.626)"/>
            <path id="Path_1383" d="M379.608 1134.788c.315.733.451 1.4-1.042 1.466.007-.613-.089-1.267 1.042-1.466z" class="cls-1" data-name="Path 1383" transform="translate(-267.591 -1114.976)"/>
            <path id="Path_1384" d="M399.993 1134.029c-.065.663-.588.9-1.457.839a1.127 1.127 0 0 1 .1-.458c.2-.142.4-.279.589-.425.252.015.508.034.768.044z" class="cls-1" data-name="Path 1384" transform="translate(-280.467 -1114.463)"/>
            <path id="Path_1385" d="M377.92 1132.748c-.026.056-.032.14-.091.162-.178.052-.28-.022-.243-.186.008-.051.117-.084.182-.124q.073.074.152.148z" class="cls-1" data-name="Path 1385" transform="translate(-266.799 -1113.617)"/>
            <path id="Path_1386" d="M399.319 1133.985c-.2.14-.4.278-.589.425 0-.285.216-.41.589-.425z" class="cls-1" data-name="Path 1386" transform="translate(-280.431 -1114.426)"/>
            <path id="Path_1387" d="M394.049 1139.311c-.012.114-.034.229-.046.339.008-.11.008-.218.012-.333z" class="cls-1" data-name="Path 1387" transform="translate(-277.296 -1117.503)"/>
            <path id="Path_1388" d="M151.216 1137.737c.2-.287.4-.564.607-.848l13.173.194c1.089.074 2.177.2 3.268.214 7.358.084 14.693.433 22.03.875a2.059 2.059 0 0 1 1.656.6c-5.59.145-11.16.168-16.773-.224-6.208-.435-12.489-.449-18.739-.51-1.771-.011-3.481-.228-5.222-.301z" class="cls-1" data-name="Path 1388" transform="translate(-123.63 -1116.241)"/>
            <path id="Path_1389" d="M109.2 1136.045c.083.026.224.044.243.083.05.147-.084.225-.34.182-.059-.006-.141-.115-.122-.15s.14-.08.219-.115z" class="cls-1" data-name="Path 1389" transform="translate(-88.574 -1115.607)"/>
            <path id="Path_1390" d="M124.841 1099.5c.212.023.418.05.621.074a1.3 1.3 0 0 1-.422.138 6.148 6.148 0 0 1-.813-.1c.203-.042.411-.077.614-.112z" class="cls-1" data-name="Path 1390" transform="translate(-96.26 -1093.561)"/>
            <path id="Path_1391" d="M169.022 1124.206a.782.782 0 0 0 .347.163c.1.246.192.485.3.729a1.745 1.745 0 0 1-1.922.124c-2.141-.16-4.261.414-6.428.02-.9-.17-.954-.479-.786-.985l1.192-.106c2.428-.22 4.863.063 7.297.055z" class="cls-1" data-name="Path 1391" transform="translate(-127.802 -1108.744)"/>
            <path id="Path_1392" d="M129.177 1124.46c-.249-.464-.033-.767.659-.807.646-.041 1.306 0 1.96 0 .558.218.546.458.041.708-.886.039-1.771.068-2.66.099z" class="cls-1" data-name="Path 1392" transform="translate(-98.704 -1108.458)"/>
            <path id="Path_1393" d="M134.6 1124.252c-.013-.234-.025-.474-.041-.708a2.593 2.593 0 0 1 2.269.288c-.57.623-1.411.483-2.228.42z" class="cls-1" data-name="Path 1393" transform="translate(-100.354 -1108.336)"/>
            <path id="Path_1394" d="M244.561 1130.262c-.477-.02-.951-.044-1.431-.069.147-.349.251-.788.95-.664.44.079.473.438.481.733z" class="cls-1" data-name="Path 1394" transform="translate(-180.543 -1111.857)"/>
            <path id="Path_1395" d="M90.676 1157.758c.046-.076.1-.206.121-.206.227.026.175.1-.147.18z" class="cls-1" data-name="Path 1395" transform="translate(-79.335 -1128.047)"/>
            <path id="Path_1396" d="M383.246 1135.3a.506.506 0 0 1 .616.365c.117.325-.025.6-.5.706a.468.468 0 0 1-.639-.349c-.085-.302-.009-.593.523-.722z" class="cls-1" data-name="Path 1396" transform="translate(-270.237 -1115.238)"/>
            <path id="Path_1397" d="M398.562 1137.7a4 4 0 0 1 .62 0c.314.055.871-.17.835.31a1.6 1.6 0 0 1-.8.1c-.247-.059-.425-.283-.639-.434z" class="cls-1" data-name="Path 1397" transform="translate(-280.484 -1116.563)"/>
            <path id="Path_1398" d="M508.529 1136.34c-.2-.083-.446-.183-.691-.279.168-.074.346-.214.5-.2a3.847 3.847 0 0 1 .779.23c-.17.07-.338.144-.588.249z" class="cls-1" data-name="Path 1398" transform="translate(-358.984 -1115.517)"/>
            <path id="Path_1399" d="M211.169 1124.868c1.115.031 2.235.064 3.351.093.012.76-.539 1.1-1.565 1.1-1.102-.012-1.863-.276-1.786-1.193z" class="cls-1" data-name="Path 1399" transform="translate(-160.146 -1109.196)"/>
            <path id="Path_1400" d="M99.488 1120.177c.383-.591 2.826.769 1.972-1.1-.172-.388.718-.488 1.257-.424.839.1 1.664.3 2.512.4s1.555-.574 2.659-.285c.209.833-1.04 1.455-.879 2.294-1.551.468-3.5-.3-4.831.817l-.218.01c.152-.6-.276-.879-1.039-.932-.707-.051-1.234-.257-1.433-.78z" class="cls-1" data-name="Path 1400" transform="translate(-83.79 -1105.698)"/>
            <path id="Path_1401" d="M531.056 1138.051a1.147 1.147 0 0 0 .013.388 1.078 1.078 0 0 1-1.61-.109 2.937 2.937 0 0 1 1.597-.279z" class="cls-1" data-name="Path 1401" transform="translate(-369.883 -1116.801)"/>
            <path id="Path_1403" d="M192.46 1124.111c.16-.273.379-.323.667-.089-.22.03-.442.061-.667.089z" class="cls-1" data-name="Path 1403" transform="translate(-147.911 -1108.56)"/>
            <path id="Path_1405" d="M162.61 1120.47c0 .314.006.622.006.933-.579-.045-1.371.15-1.608-.36s.518-.489.96-.587z" class="cls-1" data-name="Path 1405" transform="translate(-116.807 -1106.622)"/>
            <path id="Path_1406" d="M180.474 1120.4c-.724.742-1.839.414-2.8.519.726-.769 1.826-.464 2.8-.519z" class="cls-1" data-name="Path 1406" transform="translate(-138.544 -1106.558)"/>
            <path id="Path_1407" d="M187.715 1120.8c-.449-.065-1.454.24-.757-.588z" class="cls-1" data-name="Path 1407" transform="translate(-144.244 -1106.461)"/>
            <path id="Path_1408" d="M269.574 1123.768a.978.978 0 0 1-.813-.52c.271.17.546.346.813.52z" class="cls-1" data-name="Path 1408" transform="translate(-196.953 -1108.215)"/>
            <path id="Path_1409" d="M152.492 1120.94c-1.524.772-2.46.319-3.671-.314 1.448-.226 2.563-.405 3.671.314z" class="cls-1" data-name="Path 1409" transform="translate(-110.443 -1106.604)"/>
            <path id="Path_1410" d="M149.676 1115.666l3.953-.015a3.764 3.764 0 0 1-3.953.015z" class="cls-1" data-name="Path 1410" transform="translate(-110.895 -1103.818)"/>
            <path id="Path_1411" d="M93.842 1119.226c.134-.083.269-.233.4-.227.352 0 .514.188.373.407a.628.628 0 0 1-.487.131c-.128-.024-.197-.2-.286-.311z" class="cls-1" data-name="Path 1411" transform="translate(-80.944 -1105.756)"/>
            <path id="Path_1412" d="M145.19 1120.726c.244.08.307.21.121.34a2.236 2.236 0 0 1-.494.189c-.044-.125-.172-.283-.108-.359.071-.096.315-.115.481-.17z" class="cls-1" data-name="Path 1412" transform="translate(-108.244 -1106.755)"/>
        </g>
    </g>
</svg>
