<svg xmlns="http://www.w3.org/2000/svg" width="104.678" height="147.511" viewBox="0 0 104.678 147.511">
    <defs>
        <style>
            .cls-1,.cls-15{fill:#fff}.cls-1{stroke:#707070}.cls-2{clip-path:url(#clip-path)}.cls-3{fill:#de9e9a}.cls-4{fill:#47313e}.cls-5{fill:#c42a64}.cls-10,.cls-13,.cls-17,.cls-19,.cls-6,.cls-7{fill:none}.cls-6{stroke:#c42a64;stroke-width:1.018px}.cls-10,.cls-13,.cls-17,.cls-6{stroke-miterlimit:10}.cls-10,.cls-13,.cls-17,.cls-7{stroke:#47313e}.cls-7{stroke-linecap:round;stroke-linejoin:round;stroke-width:.423px}.cls-8{fill:#2859e3}.cls-9{fill:#ff9a24}.cls-10{stroke-width:.565px}.cls-11{fill:#4055dc}.cls-12{fill:#b6dae3}.cls-13{stroke-width:.35px}.cls-14{fill:#5e71ea}.cls-15{stroke:#a3ceff}.cls-16{fill:#ffe34a}.cls-17{stroke-width:.406px}.cls-18{stroke:none}
        </style>
        <clipPath id="clip-path">
            <path id="Rectangle_1922" d="M0 0h104.677v147.511H0z" class="cls-1" data-name="Rectangle 1922"/>
        </clipPath>
    </defs>
    <g id="Mask_Group_18" class="cls-2" data-name="Mask Group 18">
        <g id="Group_15494" data-name="Group 15494" transform="translate(18.72 6.45)">
            <g id="Group_15466" data-name="Group 15466" transform="translate(29.434)">
                <path id="Path_531" d="M103.965 51.563l.224 11.066c.082 3.111 2.224 3.27 5.286 3.164 2.613-.09 4.823-.933 5.058-3.537l.163-11.973z" class="cls-3" data-name="Path 531" transform="translate(-97.129 -29.71)"/>
                <path id="Path_532" d="M104.127 59.891l8.114-5.689-8.229.184z" class="cls-4" data-name="Path 532" transform="translate(-97.131 -29.889)"/>
                <path id="Path_533" d="M109.046 55l-4.339.15a5.767 5.767 0 0 1-5.966-5.75l-.015-9.005a7.573 7.573 0 0 1 7.312-7.581c4.18-.144 8.417 3.1 8.562 7.282l-.143 9.395A5.6 5.6 0 0 1 109.046 55z" class="cls-3" data-name="Path 533" transform="translate(-96.89 -28.914)"/>
                <path id="Path_534" d="M117.109 37.118s0-3.179-2.881-3.768c-.7-.143-1.435-.3-2.041-.414a2.448 2.448 0 0 0-1.245-2.044 4.035 4.035 0 0 0-4.006.311c-.6-1.325-1.6-2.525-3.242-2.472-3.619.116-8.161 3.27-6.14 8.282 1.451 3.6 8.289 1.167 9.691.817s2.08-.342 1.771 1.643c-.241 1.549 1.9 1.813 2.81 1.855l.566 3.9s3.494.436 2.928 0c-.711-.548.5-4.567 1.268-5.68a5.964 5.964 0 0 0 .521-2.43z" class="cls-4" data-name="Path 534" transform="translate(-96.814 -28.728)"/>
                <g id="Group_15463" data-name="Group 15463" transform="translate(0 13.652)">
                    <g id="Group_15462" data-name="Group 15462">
                        <path id="Path_535" d="M104.486 43.032a1.416 1.416 0 0 0-1.393 1.662c.277 1.6 1.118 3.782 3.649 3.714 2.6-.069 3.212-2.324 3.324-3.891a1.4 1.4 0 0 0-1.411-1.484z" class="cls-5" data-name="Path 535" transform="translate(-97.088 -43.032)"/>
                        <path id="Path_536" d="M98.219 43.032a1.408 1.408 0 0 0-1.4 1.588c.22 1.61.912 3.856 3.061 3.787 2.171-.069 2.686-2.321 2.78-3.888a1.41 1.41 0 0 0-1.414-1.487z" class="cls-5" data-name="Path 536" transform="translate(-96.802 -43.032)"/>
                        <path id="Rectangle_1894" d="M0 0h5.797v2.342H0z" class="cls-5" data-name="Rectangle 1894" transform="translate(3.638)"/>
                    </g>
                    <path id="Line_48" d="M0 0h3.852" class="cls-6" data-name="Line 48" transform="translate(12.202 1.171)"/>
                </g>
                <g id="Group_15464" data-name="Group 15464" transform="translate(5.657 17.963)">
                    <path id="Path_537" d="M102.844 47.548l-.115 1.626.995-.034" class="cls-7" data-name="Path 537" transform="translate(-102.729 -47.548)"/>
                    <path id="Line_49" d="M0 0h1.574" class="cls-7" data-name="Line 49" transform="translate(1.18 3.889)"/>
                </g>
                <g id="Group_15465" data-name="Group 15465" transform="translate(14.129 12.76)">
                    <circle id="Ellipse_75" cx="3.105" cy="3.105" r="3.105" class="cls-3" data-name="Ellipse 75" transform="rotate(-47.55 5.2 2.29)"/>
                    <path id="Path_538" d="M115.1 47.6s-.078-2.249 2.085-1.969" class="cls-7" data-name="Path 538" transform="translate(-111.765 -42.257)"/>
                </g>
            </g>
            <g id="Group_15477" data-name="Group 15477" transform="translate(4.282 80.479)">
                <path id="Path_539" d="M120.535 124.245h-28.44l-1.97-11.2 30.41 1.775z" class="cls-8" data-name="Path 539" transform="translate(-71.346 -113.048)"/>
                <g id="Group_15471" data-name="Group 15471">
                    <g id="Group_15468" data-name="Group 15468" transform="translate(0 87.931)">
                        <path id="Path_540" d="M85.1 205.6l1.446 8h7.462l-1.416-8.428z" class="cls-3" data-name="Path 540" transform="translate(-71.117 -205.175)"/>
                        <g id="Group_15467" data-name="Group 15467" transform="translate(0 7.828)">
                            <path id="Path_541" d="M83.737 213.471v5.4l-9.724 2.24a5.369 5.369 0 0 0-3.456 4.64l-.107 1.221 27.967-.052-2.436-13.545z" class="cls-9" data-name="Path 541" transform="translate(-70.45 -213.377)"/>
                            <path id="Line_50" d="M0 0h27.098" class="cls-10" data-name="Line 50" transform="translate(.405 10.963)"/>
                            <path id="Path_542" d="M94.764 219.168a2.811 2.811 0 1 1-2.811-2.811 2.81 2.81 0 0 1 2.811 2.811z" class="cls-10" data-name="Path 542" transform="translate(-71.301 -213.513)"/>
                            <path id="Line_51" d="M0 0l1.692 1.742" class="cls-10" data-name="Line 51" transform="translate(8.442 6.612)"/>
                            <path id="Line_52" d="M0 0l1.692 1.742" class="cls-10" data-name="Line 52" transform="translate(10.974 6.031)"/>
                        </g>
                    </g>
                    <g id="Group_15470" data-name="Group 15470" transform="translate(5.32)">
                        <path id="Path_543" d="M89.482 113.048l-12.95 48.827a10.879 10.879 0 0 0-.314 5.331l7.148 37.323h11.125l-5.32-39.775 16.5-47.1z" class="cls-11" data-name="Path 543" transform="translate(-76.024 -113.048)"/>
                        <path id="Path_544" d="M104.365 124.773l-6.334-.133 3.306 8.776z" class="cls-8" data-name="Path 544" transform="translate(-77.026 -113.576)"/>
                        <g id="Group_15469" data-name="Group 15469" transform="translate(5.064 86.054)">
                            <path id="Path_545" d="M96.561 208.635H82.206l-.876-5.426h14.355z" class="cls-12" data-name="Path 545" transform="translate(-81.33 -203.209)"/>
                            <path id="Line_53" d="M0 0h11.438" class="cls-13" data-name="Line 53" transform="translate(1.239)"/>
                        </g>
                    </g>
                </g>
                <g id="Group_15476" data-name="Group 15476" transform="translate(33.026 1.776)">
                    <g id="Group_15473" data-name="Group 15473" transform="translate(3.106 86.156)">
                        <path id="Path_546" d="M123.015 205.6l1.446 8h7.462l-1.417-8.428z" class="cls-3" data-name="Path 546" transform="translate(-108.976 -205.175)"/>
                        <g id="Group_15472" data-name="Group 15472" transform="translate(0 7.828)">
                            <path id="Path_547" d="M121.593 213.471v5.4l-9.725 2.24a5.369 5.369 0 0 0-3.455 4.64l-.107 1.221 27.966-.052-2.435-13.545z" class="cls-9" data-name="Path 547" transform="translate(-108.306 -213.377)"/>
                            <path id="Line_54" d="M0 0h27.098" class="cls-10" data-name="Line 54" transform="translate(.404 10.963)"/>
                            <path id="Path_548" d="M132.62 219.168a2.811 2.811 0 1 1-2.811-2.811 2.811 2.811 0 0 1 2.811 2.811z" class="cls-10" data-name="Path 548" transform="translate(-109.157 -213.513)"/>
                            <path id="Line_55" d="M0 0l1.692 1.742" class="cls-10" data-name="Line 55" transform="translate(8.441 6.612)"/>
                            <path id="Line_56" d="M0 0l1.692 1.742" class="cls-10" data-name="Line 56" transform="translate(10.973 6.031)"/>
                        </g>
                    </g>
                    <g id="Group_15475" data-name="Group 15475">
                        <path id="Path_549" d="M121.215 114.908l11.346 89.616-11.458.088-16.051-86.876z" class="cls-11" data-name="Path 549" transform="translate(-105.052 -114.908)"/>
                        <g id="Group_15474" data-name="Group 15474" transform="translate(13.817 84.279)">
                            <path id="Path_550" d="M135.2 208.635h-14.8l-.876-5.426h14.8z" class="cls-12" data-name="Path 550" transform="translate(-119.528 -203.209)"/>
                            <path id="Line_57" d="M0 0h11.439" class="cls-13" data-name="Line 57" transform="translate(1.571)"/>
                        </g>
                    </g>
                </g>
            </g>
            <g id="Group_15491" data-name="Group 15491" transform="translate(0 13.288)">
                <g id="Group_15484" data-name="Group 15484">
                    <g id="Group_15482" data-name="Group 15482" transform="translate(1.936)">
                        <g id="Group_15478" data-name="Group 15478" transform="translate(3.851)">
                            <rect id="Rectangle_1896" width="10.7" height="15.998" class="cls-14" data-name="Rectangle 1896" rx=".652" transform="rotate(180 5.35 7.886)"/>
                            <g id="Rectangle_2150" class="cls-15" data-name="Rectangle 2150">
                                <path d="M0 0h2v16H0z" class="cls-18" transform="translate(6.493 -.228)"/>
                                <path d="M.5.5h1v15h-1z" class="cls-19" transform="translate(6.493 -.228)"/>
                            </g>
                        </g>
                        <g id="Group_15481" data-name="Group 15481" transform="translate(0 9.723)">
                            <g id="Group_15480" data-name="Group 15480">
                                <path id="Path_551" d="M69.122 74.524l.188-11.788 9.8.635-.123 10.9z" class="cls-3" data-name="Path 551" transform="translate(-68.044 -53.288)"/>
                                <g id="Group_15479" data-name="Group 15479">
                                    <path id="Path_552" d="M68 59.126a6.055 6.055 0 1 0 5.816-6.284A6.055 6.055 0 0 0 68 59.126z" class="cls-3" data-name="Path 552" transform="translate(-67.992 -52.837)"/>
                                    <path id="Path_553" d="M78.568 54.632s2.6-.915 2.971 2.241-.907 7.434-6.958 8.145z" class="cls-3" data-name="Path 553" transform="translate(-68.292 -52.913)"/>
                                </g>
                            </g>
                            <path id="Path_554" d="M79.142 70.855v-3.1h-10.02v4.715z" class="cls-16" data-name="Path 554" transform="translate(-68.044 -53.517)"/>
                        </g>
                    </g>
                    <g id="Group_15483" data-name="Group 15483" transform="translate(0 18.792)">
                        <path id="Path_555" d="M100.65 62.5s-7.306-2.38-13.291 11.056l-6.173 12.225.413-11.7a3.383 3.383 0 0 0-3.346-3.381l-8.453-.092a3.382 3.382 0 0 0-3.42 3.382l-.413 22.921a11.412 11.412 0 0 0 10.813 11.4 11.413 11.413 0 0 0 10.78-6.236l7.914-9.815z" class="cls-16" data-name="Path 555" transform="translate(-65.964 -62.34)"/>
                        <path id="Line_58" d="M10.02 0H0" class="cls-17" data-name="Line 58" transform="translate(3.014 8.268)"/>
                        <path id="Line_59" d="M0 0l.018 9.593" class="cls-17" data-name="Line 59" transform="translate(15.222 23.442)"/>
                    </g>
                </g>
                <g id="Group_15485" data-name="Group 15485" transform="translate(22.541 16.714)">
                    <path id="Path_556" d="M117.3 62.511H99.874a1.963 1.963 0 0 0-1.789 1.137c-6.906 15.109-8.242 33.167-8.5 39.586-.054 1.366.487 3.366 1.848 3.489 6.148.556 22.981 1.032 29.48 1.548a2.3 2.3 0 0 0 2.487-2.445c-.479-7.673-1.439-29.857-1.575-38.858a4.526 4.526 0 0 0-4.525-4.457z" class="cls-16" data-name="Path 556" transform="translate(-89.581 -60.269)"/>
                    <path id="Path_557" d="M120.931 110.218v4.251l-30.807-1.495.863-7.714z" class="cls-16" data-name="Path 557" transform="translate(-89.606 -62.216)"/>
                    <path id="Path_558" d="M93.385 75.087s-2.83 19.7-3.7 29.673a2.441 2.441 0 0 0 2.235 2.627l28.988 1.457" class="cls-17" data-name="Path 558" transform="translate(-89.586 -60.842)"/>
                    <path id="Rectangle_1897" d="M0 0h13.35v9.513H0z" class="cls-16" data-name="Rectangle 1897" transform="rotate(180 12.95 4.757)"/>
                    <path id="Line_60" d="M13.35 0H0" class="cls-17" data-name="Line 60" transform="translate(12.549 2.284)"/>
                </g>
                <g id="Group_15490" data-name="Group 15490" transform="translate(44.289 18.956)">
                    <path id="Path_559" d="M112.367 99.257l3.687 33.83s21.015 1.782 34.288-6.258l-7-32.1z" class="cls-4" data-name="Path 559" transform="translate(-112.367 -63.978)"/>
                    <g id="Group_15489" data-name="Group 15489" transform="translate(5.966)">
                        <g id="Group_15488" data-name="Group 15488" transform="translate(11.097 58.803)">
                            <g id="Group_15487" data-name="Group 15487">
                                <path id="Path_560" d="M140.445 124.12l1.89 13.7-9.758 1.117-2.332-13.6z" class="cls-3" data-name="Path 560" transform="translate(-130.244 -124.12)"/>
                                <g id="Group_15486" data-name="Group 15486" transform="translate(.911 11.839)">
                                    <path id="Path_561" d="M144.23 141.274a6.055 6.055 0 1 0-4.607 7.218 6.055 6.055 0 0 0 4.607-7.218z" class="cls-3" data-name="Path 561" transform="translate(-131.247 -136.524)"/>
                                    <path id="Path_562" d="M134.885 147.6s-2.4 1.363-3.321-1.677-.43-7.478 5.4-9.252z" class="cls-3" data-name="Path 562" transform="translate(-131.199 -136.531)"/>
                                </g>
                            </g>
                            <path id="Path_563" d="M141.363 128.8l.555 4.665-10.2 1.222-1.016-5.109z" class="cls-16" data-name="Path 563" transform="translate(-130.265 -124.333)"/>
                        </g>
                        <path id="Path_564" d="M118.618 62.511l8.876 61.935a2.8 2.8 0 0 0 3.069 2.391l9.294-1.006a2.8 2.8 0 0 0 2.462-3.2L134.831 73.9a13.664 13.664 0 0 0-13.473-11.385z" class="cls-16" data-name="Path 564" transform="translate(-118.618 -62.511)"/>
                        <path id="Line_61" d="M10.416 0L0 1.447" class="cls-17" data-name="Line 61" transform="translate(11.705 63.282)"/>
                    </g>
                    <path id="Path_565" d="M125.107 63.008s-4.466 1.654-3.705 13.254 2.308 23.108 2.308 23.108l-4.556 5.7-2.193-19.67s-2.1-19.954 5.976-22.841z" class="cls-4" data-name="Path 565" transform="translate(-112.565 -62.513)"/>
                </g>
            </g>
        </g>
    </g>
</svg>
