<svg xmlns="http://www.w3.org/2000/svg" xmlns:xlink="http://www.w3.org/1999/xlink" width="496.477" height="423.335" viewBox="0 0 496.477 423.335">
    <defs>
        <style>
            .cls-1{fill:none}.cls-2{fill:url(#linear-gradient)}.cls-3{fill:url(#linear-gradient-2)}.cls-4{fill:#e6ecef}.cls-5{fill:#b2c3ce}.cls-6{fill:#d8e1e5}.cls-7{fill:#2a3b42}.cls-8{fill:url(#linear-gradient-4)}.cls-9{fill:url(#linear-gradient-5)}.cls-10{fill:#ff7419}.cls-11{fill:#f9fbfc}.cls-12{fill:url(#linear-gradient-6)}.cls-13{fill:url(#linear-gradient-7)}.cls-14{fill:url(#linear-gradient-8)}.cls-15{fill:url(#linear-gradient-9)}.cls-16{fill:#3c9}.cls-17{fill:#576a7a}.cls-18{fill:#425460}.cls-19{fill:#94a6b2}.cls-20,.cls-21{fill:#292929}.cls-20{stroke:#d8e1e5}.cls-21{stroke:#e6ecef}.cls-22{fill:url(#linear-gradient-12)}.cls-23{fill:url(#linear-gradient-18)}.cls-24{fill:url(#linear-gradient-21)}.cls-25{fill:#eee}.cls-26{fill:#00c3b6}.cls-27{clip-path:url(#clip-path)}.cls-28{fill:#121011}.cls-29{clip-path:url(#clip-path-2)}.cls-30{clip-path:url(#clip-path-3)}.cls-31{clip-path:url(#clip-path-4)}.cls-32{clip-path:url(#clip-path-5)}.cls-33{fill:#141213}.cls-34{fill:url(#linear-gradient-24)}.cls-35{clip-path:url(#clip-path-6)}.cls-36{fill:#949494}.cls-37{fill:#999}.cls-38{fill:#9e9e9e}.cls-39{fill:#a3a3a3}.cls-40{fill:#a8a8a8}.cls-41{fill:#adadad}.cls-42{fill:#b3b3b3}.cls-43{fill:#b8b8b8}.cls-44{fill:#8f8f8f}.cls-45{fill:#8a8a8a}.cls-46{fill:#858585}.cls-47{fill:#151313}.cls-48{fill:#161314}.cls-49{fill:#161414}.cls-50{fill:#171415}.cls-51{fill:#181516}.cls-52{fill:#191616}.cls-53{fill:#191617}.cls-54{fill:#171516}.cls-55{fill:#3a4d57}.cls-56{fill:#445c66}.cls-57{fill:url(#linear-gradient-25)}.cls-58{fill:url(#linear-gradient-26)}.cls-59{fill:url(#linear-gradient-28)}.cls-60{fill:url(#linear-gradient-29)}.cls-61{fill:url(#linear-gradient-30)}.cls-62{fill:url(#linear-gradient-31)}.cls-63{fill:url(#linear-gradient-33)}.cls-64{fill:url(#linear-gradient-34)}.cls-65{fill:url(#linear-gradient-35)}
        </style>
        <linearGradient id="linear-gradient" x1=".5" x2=".5" y1="-.2" y2=".988" gradientUnits="objectBoundingBox">
            <stop offset="0" stop-color="#fff"/>
            <stop offset="1" stop-color="#e6ecef"/>
        </linearGradient>
        <linearGradient id="linear-gradient-2" x1=".5" x2=".5" y2="1" xlink:href="#linear-gradient"/>
        <linearGradient id="linear-gradient-4" x2="1" y1=".5" y2=".5" gradientUnits="objectBoundingBox">
            <stop offset="0" stop-color="#5e71ea"/>
            <stop offset="1" stop-color="#4055dc"/>
        </linearGradient>
        <linearGradient id="linear-gradient-5" x2="1" y1=".5" y2=".5" gradientUnits="objectBoundingBox">
            <stop offset="0" stop-color="#8495ff"/>
            <stop offset="1" stop-color="#4055dc"/>
        </linearGradient>
        <linearGradient id="linear-gradient-6" x1=".5" x2=".5" y1=".126" y2=".933" gradientUnits="objectBoundingBox">
            <stop offset="0" stop-color="#fa9887"/>
            <stop offset=".614" stop-color="#e3637a"/>
            <stop offset="1" stop-color="#d84774"/>
        </linearGradient>
        <linearGradient id="linear-gradient-7" x1="-3.062" x2="2.137" y1=".07" y2=".698" xlink:href="#linear-gradient-6"/>
        <linearGradient id="linear-gradient-8" x1=".5" x2=".5" y2="1" xlink:href="#linear-gradient-6"/>
        <linearGradient id="linear-gradient-9" x2="1" y1=".5" y2=".5" xlink:href="#linear-gradient-6"/>
        <linearGradient id="linear-gradient-12" x2="1" y1=".5" y2=".5" gradientUnits="objectBoundingBox">
            <stop offset="0" stop-color="#00b6ca"/>
            <stop offset="1" stop-color="#0095a5"/>
        </linearGradient>
        <linearGradient id="linear-gradient-18" x2="1" y1=".5" y2=".5" xlink:href="#linear-gradient-6"/>
        <linearGradient id="linear-gradient-21" x2="1" y1=".5" y2=".5" gradientUnits="objectBoundingBox">
            <stop offset="0" stop-color="#1c9d3c"/>
            <stop offset="1" stop-color="#176f2a"/>
        </linearGradient>
        <clipPath id="clip-path">
            <path id="Path_3217" d="M463.551 384.422a22.365 22.365 0 0 0-2.019-2l.019-6.812a22.36 22.36 0 0 1 2.021 2l-.021 6.812z" class="cls-1" data-name="Path 3217" transform="translate(-461.532 -375.614)"/>
        </clipPath>
        <clipPath id="clip-path-2">
            <path id="Path_3219" d="M463.248 384.121a.562.562 0 0 1 0-.172v-1.329-1.5l.012-3.809a18.9 18.9 0 0 1 1.3 1.639l-.02 6.812a18.847 18.847 0 0 0-1.292-1.641z" class="cls-1" data-name="Path 3219" transform="translate(-463.241 -377.309)"/>
        </clipPath>
        <clipPath id="clip-path-3">
            <path id="Path_3221" d="M465.454 387.3a16.3 16.3 0 0 0-1.1-1.789l.02-6.812a16.473 16.473 0 0 1 1.1 1.788q-.012 3.413-.02 6.813z" class="cls-1" data-name="Path 3221" transform="translate(-464.353 -378.701)"/>
        </clipPath>
        <clipPath id="clip-path-4">
            <path id="Path_3223" d="M465.29 387.032a1.71 1.71 0 0 1 0-.372v-1.221-1.593l.011-3.627a14.393 14.393 0 0 1 .9 2.084l-.02 6.813a14.268 14.268 0 0 0-.891-2.084z" class="cls-1" data-name="Path 3223" transform="translate(-465.278 -380.219)"/>
        </clipPath>
        <clipPath id="clip-path-5">
            <path id="Path_3225" d="M466.3 389.6q-.108-.4-.244-.795l.02-6.813q.134.4.243.8-.012 3.398-.019 6.808z" class="cls-1" data-name="Path 3225" transform="translate(-466.053 -381.989)"/>
        </clipPath>
        <linearGradient id="linear-gradient-24" x2="1" y1=".5" y2=".5" gradientUnits="objectBoundingBox">
            <stop offset="0" stop-color="#a3ceff"/>
            <stop offset="1" stop-color="#72b4ff"/>
        </linearGradient>
        <clipPath id="clip-path-6">
            <path id="Path_3246" d="M477.531 385.494l-.02 6.812c-.014 5.314-3.508 10.619-10.483 14.674-14.049 8.164-36.876 8.164-51.017 0-7.111-4.106-10.665-9.5-10.65-14.88l.019-6.812c-.015 5.383 3.539 10.774 10.65 14.878 14.14 8.164 36.968 8.164 51.017 0 6.975-4.053 10.469-9.359 10.484-14.672z" class="cls-1" data-name="Path 3246" transform="translate(-405.362 -385.288)"/>
        </clipPath>
        <linearGradient id="linear-gradient-25" x2="1" y1=".5" y2=".5" xlink:href="#linear-gradient-6"/>
        <linearGradient id="linear-gradient-26" x2="1" y1=".5" y2=".5" gradientUnits="objectBoundingBox">
            <stop offset="0" stop-color="#ffe34a"/>
            <stop offset=".614" stop-color="#ffde6f"/>
            <stop offset="1" stop-color="#ddb21e"/>
        </linearGradient>
        <linearGradient id="linear-gradient-28" x1=".5" x2=".5" y2="1" gradientUnits="objectBoundingBox">
            <stop offset="0" stop-color="#ffe34a"/>
            <stop offset=".614" stop-color="#ffd648"/>
            <stop offset="1" stop-color="#ddb21e"/>
        </linearGradient>
        <linearGradient id="linear-gradient-29" x2="1" y1=".5" y2=".5" xlink:href="#linear-gradient-28"/>
        <linearGradient id="linear-gradient-30" x2="1" y1=".5" y2=".5" xlink:href="#linear-gradient-6"/>
        <linearGradient id="linear-gradient-31" x1="-.909" x2="2.388" y1="-.12" y2="1.351" xlink:href="#linear-gradient-28"/>
        <linearGradient id="linear-gradient-33" x2="1" y1=".5" y2=".5" xlink:href="#linear-gradient-6"/>
        <linearGradient id="linear-gradient-34" x1=".483" x2=".553" y1="-.126" y2="2.434" xlink:href="#linear-gradient-28"/>
        <linearGradient id="linear-gradient-35" x2="1" y1=".5" y2=".5" xlink:href="#linear-gradient-28"/>
    </defs>
    <g id="Group_15777" data-name="Group 15777" transform="translate(-305.523 -99.237)">
        <path id="Path_3130" d="M625.365 293.885c31.183 2.842 62.36 5.585 93.608 7.176 13.972.711 30.309 1.139 42.326 9.25 18.547 12.317-.888 30.118-3.687 44.173-3.011 15.123 12.855 17.249 15.219 30.085 2.2 11.969-13.3 22.09-21.579 27.687a436.828 436.828 0 0 1-88.35 45.8c-19.279 7.459-40.968 14.628-61.711 16.394-13.856 1.181-18.178.221-20.293-12.114-1.746-10.182-7.449-11-18.364-11.586-23.158-1.242-46.358 1.464-69.5.412-21.615-.981-42.971-1.125-64.57-2.775-13.513-1.034-27.979-.723-41-5.108-14.374-4.839-23.492-10.756-22.324-26.536.867-11.706 7.031-21.3 9.125-32.51 2.8-14.968-5.281-23.6-16.434-31.387-11.621-8.117-25.589-21.29-18.729-36.643 6.194-13.86 28.047-20.044 41.537-21.652 54.951-6.547 108.941-11.494 164.3-7.54 26.838 1.918 53.635 4.432 80.426 6.874z" class="cls-2" data-name="Path 3130" transform="translate(5.638 33.091)"/>
        <g id="Group_15691" data-name="Group 15691" transform="translate(309.87 308.223)">
            <path id="Path_3131" d="M599.149 491.06c-9.436 0-13.436-2.861-15.445-14.566-1.9-11.1-7.879-11.905-20.138-12.563-13.346-.714-26.937-.259-40.078.185-12.528.423-25.486.86-38.219.28-8.663-.392-17.429-.671-25.906-.94-15.325-.486-31.17-.989-46.855-2.189-3.435-.263-7-.452-10.447-.636-12.024-.638-24.458-1.3-35.891-5.147-16.751-5.636-26.867-12.7-25.549-30.492.558-7.542 3.076-14.391 5.511-21.013a97.935 97.935 0 0 0 4.777-15.672c3.018-16.154-5.122-25.58-18.273-34.764-20.265-14.152-27.43-28.283-21.3-42 6.654-14.894 29.619-22.633 47.26-24.733 68.429-8.153 126.114-12.715 185.211-8.5 27.045 1.934 54.489 4.442 81.03 6.868l9.6.877c35.575 3.242 70.41 6.3 105.433 8.083l2.3.114c15.309.758 32.661 1.617 45.68 10.4 15.162 10.068 8.248 23.667 2.148 35.662-2.642 5.2-5.139 10.1-6.054 14.7-1.868 9.373 2.91 14.16 7.966 19.23 3.933 3.941 8 8.017 9.181 14.438 2.488 13.521-13.991 24.646-23.836 31.294l-.724.489a493.165 493.165 0 0 1-99.651 51.652c-19.4 7.5-44.85 16.39-69.684 18.505-3.048.263-5.714.438-8.047.438zm-50.736-28.68c5.08 0 10.164.1 15.216.374 12.191.655 19.189 1.605 21.237 13.538 2.293 13.378 6.526 14.5 22.231 13.159 24.685-2.1 50.033-10.954 69.358-18.43a492.116 492.116 0 0 0 99.417-51.53l.728-.491c9.607-6.487 25.686-17.343 23.337-30.105-1.116-6.062-5.052-10.006-8.856-13.82-5.052-5.065-10.278-10.3-8.286-20.29.946-4.751 3.477-9.729 6.157-15 6.166-12.124 12.54-24.66-1.752-34.15-12.751-8.606-29.928-9.457-45.083-10.207l-2.306-.115c-35.045-1.784-69.892-4.842-105.479-8.085l-9.6-.877c-26.535-2.426-53.975-4.934-81.007-6.865-59.007-4.213-116.624.347-184.986 8.491-17.337 2.065-39.873 9.6-46.328 24.046-5.868 13.126 1.165 26.771 20.9 40.553 11.7 8.172 22.075 18.183 18.755 35.946a98.623 98.623 0 0 1-4.829 15.862c-2.407 6.547-4.894 13.317-5.44 20.694-1.267 17.1 8.115 23.691 24.749 29.289 11.281 3.8 23.634 4.452 35.579 5.087 3.454.184 7.025.373 10.474.637 15.659 1.2 31.491 1.7 46.8 2.186 8.482.268 17.251.548 25.923.942 12.694.576 25.621.14 38.126-.281 8.201-.277 16.578-.558 24.965-.558z" class="cls-3" data-name="Path 3131" transform="translate(-309.214 -276.711)"/>
        </g>
        <g id="Group_15692" data-name="Group 15692" transform="translate(330.345 312.901)">
            <path id="Path_3132" d="M598.114 481.491c-8.852 0-12.6-2.686-14.489-13.674-1.777-10.363-7.363-11.119-18.821-11.733-12.5-.67-25.222-.241-37.53.173-11.73.395-23.859.8-35.785.261-8.113-.369-16.321-.628-24.261-.88-14.347-.456-29.185-.927-43.87-2.049-3.218-.246-6.557-.425-9.784-.6-11.261-.6-22.906-1.218-33.615-4.822-15.7-5.285-25.184-11.912-23.949-28.593.524-7.069 2.882-13.485 5.162-19.691a91.714 91.714 0 0 0 4.472-14.668c2.821-15.109-4.793-23.927-17.095-32.518-18.992-13.266-25.706-26.514-19.957-39.378 6.24-13.962 27.755-21.215 44.283-23.184 64.078-7.636 118.091-11.907 173.431-7.958 25.279 1.8 50.929 4.15 75.736 6.418l9.124.834c33.311 3.036 65.927 5.9 98.722 7.569l2.149.107c14.343.709 30.6 1.514 42.8 9.75 14.225 9.446 7.742 22.2 2.024 33.445-2.474 4.865-4.809 9.461-5.665 13.754-1.744 8.759 2.721 13.235 7.449 17.975 3.686 3.694 7.5 7.515 8.607 13.54 2.333 12.687-13.111 23.115-22.338 29.346l-.675.455a461.807 461.807 0 0 1-93.316 48.376c-18.165 7.028-42 15.351-65.261 17.331-2.862.249-5.362.414-7.548.414zm-47.505-26.934c4.76 0 9.523.1 14.258.352 11.434.612 18 1.5 19.92 12.709 2.143 12.5 6.1 13.54 20.777 12.291 23.114-1.97 46.844-10.257 64.935-17.257A460.7 460.7 0 0 0 763.58 414.4l.676-.456c8.988-6.07 24.033-16.228 21.838-28.155-1.043-5.666-4.723-9.356-8.282-12.923-4.737-4.75-9.637-9.662-7.77-19.036.887-4.454 3.257-9.118 5.769-14.058 5.765-11.339 11.726-23.065-1.629-31.934-11.933-8.055-28.014-8.849-42.2-9.551l-2.151-.108c-32.817-1.67-65.446-4.534-98.768-7.572l-9.126-.834c-24.8-2.267-50.444-4.613-75.711-6.415-55.249-3.948-109.2.324-173.206 7.951-16.224 1.934-37.311 8.984-43.351 22.5-5.484 12.274 1.1 25.035 19.558 37.931 10.968 7.66 20.689 17.045 17.576 33.7a92.454 92.454 0 0 1-4.524 14.857c-2.252 6.129-4.581 12.468-5.092 19.372-1.185 15.992 7.592 22.153 23.148 27.391 10.557 3.553 22.12 4.167 33.3 4.762 3.235.171 6.58.349 9.811.6 14.661 1.121 29.484 1.591 43.818 2.047 7.943.252 16.156.512 24.277.882 11.88.537 23.984.132 35.692-.264 7.681-.266 15.523-.53 23.376-.53z" class="cls-3" data-name="Path 3132" transform="translate(-326.602 -280.683)"/>
        </g>
        <g id="Group_15693" data-name="Group 15693" transform="translate(686.826 136.244)">
            <path id="Path_3133" d="M671.891 283.131s-29.484-9.38-40.229-35.222c-8.083-19.439 5.685-32.335 28.426-13.889 0 0-33.765-28.364-17.478-47.709 11.979-14.227 28.667 10.086 28.667 10.086s-29.876-39.8-8.2-48.261c15.4-6.011 21.41 18.973 21.41 18.973s2.339-40.7 22.412-36.079z" class="cls-4" data-name="Path 3133" transform="translate(-629.331 -130.664)"/>
            <path id="Path_3134" d="M700.478 130.974s24.113 1.04 5.28 41.989c0 0 17.026-21.174 29.419-10.285s-30.653 41.954-30.653 41.954 23.652-14.944 32.025 1.488-41.688 38.042-41.688 38.042 20.873-6.371 27.295 4.909-35.5 38.877-56.682 34z" class="cls-4" data-name="Path 3134" transform="translate(-622.914 -130.608)"/>
            <path id="Path_3135" d="M696.029 260.5a98.4 98.4 0 0 1-10.909 3.375 71.869 71.869 0 0 1-8.643 1.547l7.939-37.293a88.137 88.137 0 0 0 11.787-2.507 90.4 90.4 0 0 0 12.5-4.507 94.633 94.633 0 0 0 11.739-6.143 80.142 80.142 0 0 0 10.718-7.73 79.9 79.9 0 0 1-10.962 7.315 93.9 93.9 0 0 1-11.868 5.67 89.034 89.034 0 0 1-12.49 4 84.038 84.038 0 0 1-11 1.962l6.2-29.133a86.266 86.266 0 0 0 11.552-5.423c1.969-1.027 3.8-2.286 5.691-3.437 1.812-1.275 3.667-2.483 5.4-3.862a100.112 100.112 0 0 0 10.009-8.67 88.159 88.159 0 0 0 8.742-9.9 87.978 87.978 0 0 1-9.074 9.554 99.493 99.493 0 0 1-10.246 8.243c-1.763 1.3-3.643 2.429-5.475 3.623-1.91 1.067-3.756 2.242-5.73 3.181a79.862 79.862 0 0 1-10.4 4.5l11.952-56.144-13.8 55.78a86.411 86.411 0 0 1-7.476-8.129 112.52 112.52 0 0 1-7.442-10.394q-3.432-5.409-6.381-11.121c-1.952-3.807-3.769-7.692-5.337-11.681 1.418 4.046 3.091 8 4.9 11.893s3.825 7.694 5.992 11.411a113.509 113.509 0 0 0 7.125 10.779 90.356 90.356 0 0 0 8.086 9.379l-7.208 29.126a56.789 56.789 0 0 1-9.353-5.709 84.072 84.072 0 0 1-9.437-8.613 111.48 111.48 0 0 1-8.156-9.915 106.815 106.815 0 0 1-6.977-10.815 106.623 106.623 0 0 0 6.584 11.09 112.011 112.011 0 0 0 7.834 10.285 85.416 85.416 0 0 0 9.256 9.1 58.3 58.3 0 0 0 9.789 6.434l-9.132 36.9a98.158 98.158 0 0 1-8.35-5.645c-3.361-2.549-6.64-5.228-9.747-8.1q-4.683-4.287-9.034-8.937c-2.889-3.1-5.682-6.3-8.291-9.655 2.481 3.448 5.156 6.757 7.933 9.976s5.7 6.32 8.73 9.313c3.016 3.01 6.217 5.836 9.521 8.544a101.318 101.318 0 0 0 8.774 6.386L661.2 309.44l5.629 1.3 9.243-43.417a73.774 73.774 0 0 0 9.417-2.047 99.543 99.543 0 0 0 10.894-3.875q5.315-2.252 10.4-4.97c3.381-1.818 6.7-3.759 9.876-5.9-3.265 2-6.653 3.8-10.094 5.47s-6.965 3.161-10.536 4.499z" class="cls-5" data-name="Path 3135" transform="translate(-627.988 -129.234)"/>
        </g>
        <g id="Group_15694" data-name="Group 15694" transform="translate(439.968 140.703)">
            <path id="Path_3136" d="M470.095 250.109s22.365-7.116 30.516-26.719c6.132-14.745-4.312-24.529-21.563-10.536 0 0 25.613-21.516 13.258-36.191-9.086-10.792-21.746 7.651-21.746 7.651s22.664-30.191 6.225-36.61c-11.679-4.559-16.242 14.393-16.242 14.393s-1.773-30.873-17-27.369z" class="cls-4" data-name="Path 3136" transform="translate(-415.462 -134.451)"/>
            <path id="Path_3137" d="M447.775 134.686s-18.291.789-4 31.852c0 0-12.917-16.062-22.317-7.8s23.253 31.825 23.253 31.825-17.942-11.335-24.294 1.13 31.623 28.857 31.623 28.857-15.833-4.833-20.705 3.725 26.931 29.491 43 25.793z" class="cls-4" data-name="Path 3137" transform="translate(-419.696 -134.409)"/>
            <path id="Path_3138" d="M453.839 232.944a74.512 74.512 0 0 0 8.275 2.559 54.106 54.106 0 0 0 6.557 1.174l-6.022-28.29a66.723 66.723 0 0 1-8.941-1.9 68.444 68.444 0 0 1-9.479-3.418 71.9 71.9 0 0 1-8.9-4.66 60.723 60.723 0 0 1-8.131-5.864 60.6 60.6 0 0 0 8.316 5.549 71.328 71.328 0 0 0 9 4.3 67.658 67.658 0 0 0 9.476 3.033 63.659 63.659 0 0 0 8.348 1.487l-4.706-22.1a65.435 65.435 0 0 1-8.762-4.113c-1.493-.78-2.884-1.735-4.318-2.607-1.374-.968-2.781-1.884-4.1-2.93a76.051 76.051 0 0 1-7.592-6.578 66.879 66.879 0 0 1-6.632-7.512 66.745 66.745 0 0 0 6.883 7.248 75.937 75.937 0 0 0 7.773 6.253c1.338.987 2.764 1.843 4.152 2.747 1.45.81 2.85 1.7 4.348 2.414a60.567 60.567 0 0 0 7.89 3.41l-9.067-42.59 10.472 42.314a65.762 65.762 0 0 0 5.671-6.167 85.465 85.465 0 0 0 5.65-7.883q2.6-4.1 4.841-8.436c1.48-2.889 2.859-5.835 4.048-8.861-1.075 3.069-2.344 6.07-3.721 9.022s-2.9 5.836-4.545 8.655a86.218 86.218 0 0 1-5.4 8.177 68.686 68.686 0 0 1-6.135 7.115l5.469 22.095a43.18 43.18 0 0 0 7.095-4.33 63.852 63.852 0 0 0 7.158-6.534 84.486 84.486 0 0 0 6.187-7.522 80.726 80.726 0 0 0 5.293-8.2 80.949 80.949 0 0 1-4.994 8.412 84.973 84.973 0 0 1-5.943 7.8 64.8 64.8 0 0 1-7.022 6.9A44.215 44.215 0 0 1 464.9 208l6.928 27.989a74.827 74.827 0 0 0 6.334-4.283c2.549-1.935 5.036-3.966 7.394-6.148s4.657-4.428 6.853-6.779 4.31-4.781 6.289-7.323c-1.883 2.615-3.912 5.125-6.018 7.568s-4.323 4.794-6.623 7.064-4.716 4.428-7.222 6.481a76.455 76.455 0 0 1-6.656 4.844l8.083 32.656-4.27.983-7.012-32.935a56.345 56.345 0 0 1-7.143-1.552 75.58 75.58 0 0 1-8.263-2.94q-4.033-1.708-7.89-3.771c-2.565-1.379-5.08-2.851-7.493-4.475 2.478 1.521 5.047 2.883 7.658 4.15s5.281 2.397 7.99 3.415z" class="cls-5" data-name="Path 3138" transform="translate(-418.536 -133.366)"/>
        </g>
        <g id="Group_15695" data-name="Group 15695" transform="translate(334.024 170.176)">
            <path id="Path_3139" d="M420.61 277.579c-5.856 7.427-15.1 12.075-24.574 13.02-11 1.108-22.173-2.378-31.45-8.4-.274-.174-.549-.35-.816-.545 2.009-.37 4.008-.789 6.009-1.207 9.107-1.951 18.711-4.315 26.162-9.624a89.793 89.793 0 0 1-43.06 1.965 77.531 77.531 0 0 1-14.438-19.5 49.875 49.875 0 0 0 5.7 2.138c12.941 4 26.828 2.317 39.973-1.5a180.08 180.08 0 0 1-50.958-13.315 75.306 75.306 0 0 1-3.414-18.84 50.166 50.166 0 0 1 5.386 4.841c3.207 3.4 5.869 7.454 9.869 9.867 5.407 3.287 12.208 2.944 18.5 2.3q4.817-.507 9.649-1.185a260.927 260.927 0 0 1-11.859-2.863 69.227 69.227 0 0 1-10.328-3.387c-8.316-3.649-15.049-9.916-21.241-16.674a69.85 69.85 0 0 1 1.643-11.988 93.193 93.193 0 0 0 30.759 14.716 146.84 146.84 0 0 1-28.976-21.141 67.431 67.431 0 0 1 4.212-10.129 69.367 69.367 0 0 0 28.96 16.3 91.293 91.293 0 0 1-24.816-23.34 82.253 82.253 0 0 1 4.941-6.86 41.7 41.7 0 0 0 6.358 4.908 43.953 43.953 0 0 0 6.179 3.119 66.811 66.811 0 0 1-9.239-12.022 93.678 93.678 0 0 1 7.508-7.658z" class="cls-4" data-name="Path 3139" transform="translate(-329.726 -159.283)"/>
            <path id="Path_3140" d="M416.459 277.775c5.033.7 13.688-1.684 18-4.376a41.115 41.115 0 0 0 12.36-11.632c6.271-9.214 7.867-20.89 7.347-32.066a57.681 57.681 0 0 1-11.882 10.924 111.84 111.84 0 0 1-14.667 8.069c4.534-5.922 8.533-12.4 13.735-17.747 1.832-1.89 3.811-3.643 5.562-5.616a32.45 32.45 0 0 0 5.655-9.025 73.2 73.2 0 0 0-9.343-24.483 83.335 83.335 0 0 1-3.434 12.131c-1.551 4.432-3.256 8.912-6.144 12.63a31.345 31.345 0 0 1-7.974 6.995 47.725 47.725 0 0 0 4.163-6.87c5.261-10.679 5.551-23.012 5.542-34.968a64.783 64.783 0 0 0-10.147-8.458 63.149 63.149 0 0 1-13.72 41.156c.719-1.952 1.319-3.965 1.91-5.955 1.892-6.322 3.791-12.667 4.63-19.209a94.394 94.394 0 0 0 .657-12.083 41 41 0 0 0-.286-5.969 20.724 20.724 0 0 0-.44-2.24 82.093 82.093 0 0 0-12.169-5.191 42.85 42.85 0 0 1 1.97 15.51 48.985 48.985 0 0 1-1.851 9.515 75.654 75.654 0 0 1-7.593 18.28c4.923-14.986 4.536-31.819-2.076-46.017a67.315 67.315 0 0 0-9.265-1.358 48.664 48.664 0 0 1 2.266 18.509 48.629 48.629 0 0 0-8.123-18.749c-3.486-.034-6.957.121-10.47.336a39.919 39.919 0 0 1 1.865 11.668 39.132 39.132 0 0 0-5.99-11.393c-4.329.3-8.778.605-13.438.687z" class="cls-4" data-name="Path 3140" transform="translate(-325.575 -159.479)"/>
            <path id="Path_3141" d="M401.335 259.514c-2.429.479-4.839 1.047-7.281 1.453-4.866.91-9.767 1.606-14.679 2.174-4.919.522-9.853.89-14.794 1.015a110.45 110.45 0 0 1-14.8-.5 110.224 110.224 0 0 0 14.784.1c4.923-.256 9.829-.755 14.711-1.4 4.876-.7 9.734-1.518 14.546-2.552 2.416-.47 4.8-1.1 7.2-1.638l5.411-1.419L399.276 243a84.332 84.332 0 0 1-9.636 1.536 108.346 108.346 0 0 1-10.858.531 130.7 130.7 0 0 1-21.589-1.76 130.385 130.385 0 0 0 21.574.97 107.093 107.093 0 0 0 10.733-.917 81.982 81.982 0 0 0 9.046-1.762l-6.827-13.098a67.048 67.048 0 0 1-13.084.3 80.155 80.155 0 0 1-13.767-2.249 101.3 101.3 0 0 1-13.238-4.313 94.465 94.465 0 0 1-12.492-6.1 94.171 94.171 0 0 0 12.6 5.828 100.924 100.924 0 0 0 13.269 4.013 79.437 79.437 0 0 0 13.686 1.938 65.1 65.1 0 0 0 12.453-.517l-7.195-13.815a65.217 65.217 0 0 1-11.124-1.657 74.748 74.748 0 0 1-11.206-3.58 91.089 91.089 0 0 1-10.585-5.08 82.692 82.692 0 0 1-9.8-6.428 82.415 82.415 0 0 0 9.94 6.16 90.529 90.529 0 0 0 10.658 4.788 74 74 0 0 0 11.183 3.265 62.042 62.042 0 0 0 10.3 1.313l-7.5-14.393a80.9 80.9 0 0 1-13.647-6.638 77.524 77.524 0 0 1-12.374-9.2 77.3 77.3 0 0 0 12.574 8.862 80.325 80.325 0 0 0 12.908 5.944l-13.1-25.161 18.529 32.933a50.448 50.448 0 0 0 2.432-8.3c.387-1.594.543-3.229.8-4.849.127-1.633.325-3.267.33-4.909a60.106 60.106 0 0 0-.482-9.834 54.486 54.486 0 0 0-2.091-9.635 54.426 54.426 0 0 1 2.286 9.608 60.271 60.271 0 0 1 .682 9.869c.028 1.653-.138 3.3-.233 4.952-.224 1.638-.35 3.294-.709 4.912a53.249 53.249 0 0 1-2.509 9.082l7.346 13.056a68.862 68.862 0 0 0 5.268-11.313 66.5 66.5 0 0 0 3.4-13.474 69.161 69.161 0 0 0 .716-13.914 61.663 61.663 0 0 0-2.092-13.794 61.765 61.765 0 0 1 2.388 13.777 69.614 69.614 0 0 1-.424 14.012 67.354 67.354 0 0 1-3.151 13.686 72.333 72.333 0 0 1-5.434 12.217l6.7 11.911 1.426-1.871 1.186-1.556 1.07-1.638 2.134-3.287 1.9-3.429a90.841 90.841 0 0 0 6.241-14.4 111.236 111.236 0 0 0 4-15.225 102.024 102.024 0 0 0 1.759-15.67 102.285 102.285 0 0 1-1.371 15.738 111.739 111.739 0 0 1-3.643 15.4 91.86 91.86 0 0 1-5.941 14.705l-1.844 3.526-2.082 3.394-1.049 1.695-1.168 1.614-1.795 2.479 4.06 7.217a76.717 76.717 0 0 0 9.26-8.818 93.025 93.025 0 0 0 8.675-11.345 115.48 115.48 0 0 0 7.092-12.444 105.669 105.669 0 0 0 5.461-13.268 105.817 105.817 0 0 1-5.1 13.436 116.341 116.341 0 0 1-6.784 12.7 94.134 94.134 0 0 1-8.448 11.7 79.113 79.113 0 0 1-9.383 9.41l4.655 8.271c1.547-.937 3.1-1.865 4.62-2.852 1.911-1.292 3.875-2.512 5.725-3.9 3.794-2.638 7.372-5.571 10.894-8.566a135 135 0 0 0 9.975-9.642 91.466 91.466 0 0 0 8.749-10.782 91.624 91.624 0 0 1-8.456 11.045 135.257 135.257 0 0 1-9.741 9.966c-3.454 3.11-6.974 6.166-10.72 8.932-1.825 1.447-3.768 2.733-5.661 4.092-1.519 1.05-3.078 2.041-4.63 3.044l9.523 16.926a42.386 42.386 0 0 0 9.849-3.733 61.634 61.634 0 0 0 10.04-7.05 85.559 85.559 0 0 0 15.864-18.868 85.962 85.962 0 0 1-15.336 19.454 62.535 62.535 0 0 1-9.987 7.5 43.75 43.75 0 0 1-9.66 4.068l16.666 29.619-4.166 2.256-15.817-30.372a59.506 59.506 0 0 1-7.14 4.194 64.405 64.405 0 0 1-9.411 3.881 68.4 68.4 0 0 1-9.844 2.478 59.108 59.108 0 0 1-10.074.974 59.038 59.038 0 0 0 10-1.361 67.749 67.749 0 0 0 9.66-2.836 63.39 63.39 0 0 0 9.119-4.184 58.77 58.77 0 0 0 6.989-4.5l-6.116-11.744z" class="cls-5" data-name="Path 3141" transform="translate(-328.055 -158.292)"/>
        </g>
        <g id="Group_15698" data-name="Group 15698" transform="translate(507.975 401.293)">
            <g id="Group_15696" data-name="Group 15696">
                <path id="Path_3142" d="M477.448 355.747l18.163 20.828 8.956-15.512z" class="cls-6" data-name="Path 3142" transform="translate(-477.448 -355.747)"/>
                <path id="Path_3143" d="M477.448 355.747l4.987 5.718 2.459-4.259z" class="cls-7" data-name="Path 3143" transform="translate(-477.448 -355.747)"/>
            </g>
            <path id="Path_3144" d="M502.114 360.327c-1.157-.672-2.76-.577-4.526.443a13.939 13.939 0 0 0-6.325 10.971c0 2 .711 3.409 1.85 4.072l85.653 49.843c-1.14-.662-1.845-2.069-1.851-4.071a13.939 13.939 0 0 1 6.325-10.971c1.766-1.02 3.369-1.116 4.527-.443z" class="cls-8" data-name="Path 3144" transform="translate(-474.995 -355.01)"/>
            <g id="Group_15697" data-name="Group 15697" transform="translate(101.92 54.73)">
                <path id="Path_3145" d="M570.325 403.1c3.507-2.024 6.37-.409 6.381 3.636a13.965 13.965 0 0 1-6.34 10.963c-3.506 2.024-6.354.4-6.366-3.628a13.939 13.939 0 0 1 6.325-10.971z" class="cls-9" data-name="Path 3145" transform="translate(-564 -402.225)"/>
            </g>
        </g>
        <g id="Group_15701" data-name="Group 15701" transform="translate(567.272 99.237)">
            <g id="Group_15699" data-name="Group 15699" transform="translate(32.226)">
                <path id="Path_3146" d="M651.11 344.674l-95.94-55.391V115.037l95.94 55.391z" class="cls-10" data-name="Path 3146" transform="translate(-555.17 -96.431)"/>
                <path id="Path_3147" d="M668.869 320.522l-32.225 18.605V164.881l32.225-18.606z" class="cls-5" data-name="Path 3147" transform="translate(-540.704 -90.885)"/>
                <path id="Path_3148" d="M662.044 258.638L641.681 270.4v-76.411l20.363-11.757z" class="cls-11" data-name="Path 3148" transform="translate(-539.81 -84.5)"/>
                <path id="Path_3149" d="M676.96 158.309l6.375-3.681L587.4 99.237l-6.376 3.681 89.565 51.71-19.479 11.243-89.565-51.71-6.375 3.681 95.94 55.391 6.375-3.681 19.475-11.244z" class="cls-4" data-name="Path 3149" transform="translate(-555.17 -99.237)"/>
                <path id="Path_3150" d="M660.456 273.489c0 5.613-3.941 12.439-8.8 15.245s-8.8.532-8.8-5.081 3.941-12.439 8.8-15.246 8.8-.532 8.8 5.082z" class="cls-11" data-name="Path 3150" transform="translate(-539.601 -69.413)"/>
                <path id="Path_3151" d="M577.122 102.363v22.487l70.09 40.467 19.475-11.244z" class="cls-5" data-name="Path 3151" transform="translate(-551.272 -98.682)"/>
                <path id="Path_3152" d="M566.985 117.3l19.475-11.244 82.027 47.357-19.475 11.247z" class="cls-11" data-name="Path 3152" transform="translate(-553.072 -98.025)"/>
            </g>
            <g id="Group_15700" data-name="Group 15700" transform="translate(0 18.606)">
                <path id="Path_3153" d="M623.744 360.474L527.8 305.083V130.837l95.94 55.391z" class="cls-12" data-name="Path 3153" transform="translate(-527.804 -112.231)"/>
                <path id="Path_3154" d="M641.5 336.322l-32.225 18.605V180.681l32.225-18.605z" class="cls-13" data-name="Path 3154" transform="translate(-513.337 -106.685)"/>
                <path id="Path_3155" d="M634.678 274.439L614.314 286.2v-76.411l20.363-11.757z" class="cls-14" data-name="Path 3155" transform="translate(-512.443 -100.3)"/>
                <path id="Path_3156" d="M649.594 166.747l-89.564-51.71-6.376 3.681 89.565 51.71-19.475 11.244-89.565-51.71-6.376 3.681 89.565 51.71 6.376 3.681 32.225-18.605z" class="cls-15" data-name="Path 3156" transform="translate(-527.804 -115.037)"/>
                <path id="Path_3157" d="M633.09 289.289c0 5.613-3.941 12.439-8.8 15.245s-8.8.532-8.8-5.081 3.941-12.439 8.8-15.246 8.8-.532 8.8 5.082z" class="cls-14" data-name="Path 3157" transform="translate(-512.235 -85.213)"/>
                <path id="Path_3158" d="M549.756 118.163v22.487l70.09 40.467 19.474-11.244z" class="cls-15" data-name="Path 3158" transform="translate(-523.906 -114.482)"/>
                <path id="Path_3159" d="M539.619 133.1l19.474-11.244 82.027 47.357-19.474 11.247z" class="cls-11" data-name="Path 3159" transform="translate(-525.706 -113.825)"/>
            </g>
        </g>
        <g id="Group_15716" data-name="Group 15716" transform="translate(499.085 145.353)">
            <g id="Group_15710" data-name="Group 15710" transform="translate(9.018)">
                <g id="Group_15705" data-name="Group 15705">
                    <g id="Group_15702" data-name="Group 15702" transform="translate(84.759 48.936)">
                        <path id="Path_3160" d="M553.593 179.957l-.439 161.659-3.618 2.1.439-161.659z" class="cls-16" data-name="Path 3160" transform="translate(-549.536 -179.957)"/>
                    </g>
                    <g id="Group_15703" data-name="Group 15703" transform="translate(0 2.103)">
                        <path id="Path_3161" d="M562.755 189.121l-.439 161.659-84.759-48.936.443-161.659z" class="cls-17" data-name="Path 3161" transform="translate(-477.557 -140.185)"/>
                    </g>
                    <g id="Group_15704" data-name="Group 15704" transform="translate(.439)">
                        <path id="Path_3162" d="M566.307 187.335l-3.618 2.1-84.76-48.935 3.618-2.1z" class="cls-18" data-name="Path 3162" transform="translate(-477.929 -138.4)"/>
                    </g>
                </g>
                <g id="Group_15709" data-name="Group 15709" transform="translate(84.759 48.936)">
                    <g id="Group_15706" data-name="Group 15706" transform="translate(84.754 48.933)">
                        <path id="Path_3163" d="M625.567 221.511l-.439 161.659-3.618 2.1.439-161.659z" class="cls-18" data-name="Path 3163" transform="translate(-621.51 -221.511)"/>
                    </g>
                    <g id="Group_15707" data-name="Group 15707" transform="translate(0 2.103)">
                        <path id="Path_3164" d="M634.728 230.675l-.439 161.659-84.753-48.934.439-161.659z" class="cls-17" data-name="Path 3164" transform="translate(-549.536 -181.742)"/>
                    </g>
                    <g id="Group_15708" data-name="Group 15708" transform="translate(.439)">
                        <path id="Path_3165" d="M638.28 228.889l-3.618 2.1-84.754-48.933 3.618-2.1z" class="cls-18" data-name="Path 3165" transform="translate(-549.908 -179.957)"/>
                    </g>
                </g>
            </g>
            <g id="Group_15713" data-name="Group 15713" transform="translate(160.984 104.412)">
                <g id="Group_15712" data-name="Group 15712">
                    <g id="Group_15711" data-name="Group 15711">
                        <path id="Path_3166" d="M620.33 227.068l-.43 151.942-13.29 7.724.431-151.942z" class="cls-19" data-name="Path 3166" transform="translate(-606.609 -227.068)"/>
                    </g>
                </g>
            </g>
            <g id="Group_15714" data-name="Group 15714" transform="translate(.431 11.469)">
                <path id="Path_3167" d="M564.049 194.612c-7.34 4.265-19.279 4.265-26.667 0l-67.117-38.751 13.29-7.722z" class="cls-5" data-name="Path 3167" transform="translate(-470.265 -148.139)"/>
            </g>
            <path id="Path_3168" d="M537.447 193.448L470.33 154.7l-.43 151.94 67.117 38.75c7.388 4.266 19.327 4.266 26.667 0l.431-151.942c-7.34 4.265-19.28 4.265-26.668 0z" class="cls-4" data-name="Path 3168" transform="translate(-469.899 -135.506)"/>
            <path id="Path_3169" d="M550.886 201.895c-3.717-2.147-5.574-4.963-5.566-7.777l-.431 151.942c-.008 2.813 1.849 5.631 5.566 7.778l67.113 38.746.432-151.942z" class="cls-6" data-name="Path 3169" transform="translate(-456.584 -128.506)"/>
            <g id="Group_15715" data-name="Group 15715" transform="translate(88.736 57.942)">
                <path id="Path_3170" d="M631.224 234.075l-13.29 7.724-67.113-38.748c-7.388-4.265-7.427-11.181-.087-15.446z" class="cls-5" data-name="Path 3170" transform="translate(-545.255 -187.605)"/>
            </g>
            <path id="Path_3171" d="M552.366 286.46l55.461 32.02v-1.83l-55.461-32.02zm-.036 12.859l55.461 32.02v-1.83l-55.461-32.02zm-.036 12.859l55.461 32.02v-1.83l-55.455-32.02zm-.036 12.859l55.461 32.02.006-1.83-55.462-32.02zm.255-90.013l55.461 32.021v-1.831l-55.461-32.02zm-.037 12.859l55.461 32.017v-1.831l-55.461-32.02zm.078-27.548l-.006 1.83 55.462 32.021v-1.831zm-.114 40.407l55.461 32.02v-1.83l-55.461-32.02zm-.04 12.858l55.461 32.02v-1.83L552.4 271.77z" class="cls-20" data-name="Path 3171" transform="translate(-455.276 -123.851)"/>
            <path id="Path_3172" d="M479.463 245.1l55.461 32.02v-1.83l-55.461-32.02zm-.038 12.859l55.462 32.02v-1.83l-55.461-32.02zm-.035 12.859l55.461 32.02v-1.83L479.4 268.985zm-.037 12.859l55.461 32.02v-1.83l-55.461-32.02zm.254-90.011l55.461 32.02.006-1.831-55.461-32.02zm-.036 12.859l55.462 32.02v-1.831l-55.461-32.02zm.079-27.549l-.006 1.83 55.462 32.021v-1.831zm-.115 40.407L535 251.4v-1.83l-55.461-32.02zm-.036 12.859l55.462 32.02v-1.83L479.5 230.408z" class="cls-21" data-name="Path 3172" transform="translate(-468.22 -131.196)"/>
        </g>
        <g id="Group_15720" data-name="Group 15720" transform="translate(644.714 404.161)">
            <g id="Group_15717" data-name="Group 15717">
                <path id="Path_3173" d="M730.5 387.228l-78.159 45.421a5.991 5.991 0 0 1-5.442-.007l-52.169-30.12a1.925 1.925 0 0 1-1.138-1.583l-.026 9.4a1.924 1.924 0 0 0 1.136 1.584l52.169 30.12a5.993 5.993 0 0 0 5.443.007l78.159-45.421a1.9 1.9 0 0 0 1.113-1.559l.027-9.4a1.9 1.9 0 0 1-1.113 1.558z" class="cls-18" data-name="Path 3173" transform="translate(-593.569 -353.302)"/>
                <path id="Path_3174" d="M730.469 388.956c1.509.871 1.53 2.281.029 3.152l-78.159 45.421a5.99 5.99 0 0 1-5.442-.007L594.728 407.4c-1.51-.871-1.517-2.274-.018-3.145l78.159-45.421a5.965 5.965 0 0 1 5.43 0z" class="cls-17" data-name="Path 3174" transform="translate(-593.565 -358.183)"/>
            </g>
            <g id="Group_15719" data-name="Group 15719" transform="translate(16.262 9.144)">
                <path id="Path_3175" d="M688.1 398.6l-38.451-22.2c-1.324-.764-1.157-2.1.37-2.98l11.68-6.744a5.744 5.744 0 0 1 5.164-.214l38.451 22.2c1.323.764 1.158 2.1-.371 2.98l-11.68 6.744a5.737 5.737 0 0 1-5.163.214z" class="cls-5" data-name="Path 3175" transform="translate(-600.031 -365.948)"/>
                <g id="Group_15718" data-name="Group 15718" transform="translate(0 13.112)">
                    <path id="Path_3176" d="M634.386 400.006l7.547 4.357a5.687 5.687 0 0 0 5.151 0l7.547-4.357c1.422-.821 1.422-2.153 0-2.973l-7.547-4.358a5.7 5.7 0 0 0-5.151 0l-7.547 4.358c-1.423.821-1.423 2.152 0 2.973z" class="cls-22" data-name="Path 3176" transform="translate(-602.773 -374.424)"/>
                    <path id="Path_3177" d="M634.385 385.03l7.548 4.357a5.7 5.7 0 0 0 5.151 0l7.547-4.357c1.422-.822 1.422-2.153 0-2.973l-7.548-4.358a5.693 5.693 0 0 0-5.15 0l-7.548 4.358c-1.422.821-1.422 2.151 0 2.973z" class="cls-22" data-name="Path 3177" transform="translate(-602.773 -377.083)"/>
                    <path id="Path_3178" d="M608.446 400.006l7.548 4.357a5.685 5.685 0 0 0 5.149 0l7.548-4.357c1.421-.822 1.421-2.153 0-2.973l-7.548-4.358a5.7 5.7 0 0 0-5.151 0l-7.547 4.358c-1.422.821-1.422 2.151.001 2.973z" class="cls-22" data-name="Path 3178" transform="translate(-607.379 -374.424)"/>
                    <path id="Path_3179" d="M621.416 392.518l7.547 4.357a5.687 5.687 0 0 0 5.151 0l7.548-4.357c1.421-.822 1.421-2.153 0-2.973l-7.548-4.358a5.7 5.7 0 0 0-5.151 0l-7.548 4.358c-1.422.821-1.422 2.155.001 2.973z" class="cls-22" data-name="Path 3179" transform="translate(-605.076 -375.754)"/>
                    <path id="Path_3180" d="M621.416 407.494l7.547 4.357a5.688 5.688 0 0 0 5.151 0l7.548-4.357c1.421-.821 1.421-2.153 0-2.973l-7.548-4.358a5.692 5.692 0 0 0-5.149 0l-7.548 4.358c-1.424.821-1.424 2.153-.001 2.973z" class="cls-22" data-name="Path 3180" transform="translate(-605.076 -373.095)"/>
                    <path id="Path_3181" d="M667.873 392.675l-7.548 4.358c-1.421.821-1.421 2.153 0 2.973l7.548 4.357a5.685 5.685 0 0 0 5.15 0l7.548-4.357c1.423-.821 1.423-2.153 0-2.973l-7.548-4.358a5.693 5.693 0 0 0-5.15 0z" class="cls-22" data-name="Path 3181" transform="translate(-598.167 -374.424)"/>
                    <path id="Path_3182" d="M647.355 407.494l7.548 4.357a5.688 5.688 0 0 0 5.151 0l7.547-4.357c1.422-.821 1.422-2.153 0-2.973l-7.548-4.358a5.692 5.692 0 0 0-5.149 0l-7.548 4.358c-1.423.821-1.423 2.153-.001 2.973z" class="cls-23" data-name="Path 3182" transform="translate(-600.47 -373.095)"/>
                    <path id="Path_3183" d="M647.355 392.518l7.548 4.357a5.685 5.685 0 0 0 5.149 0l7.548-4.357c1.422-.822 1.422-2.153 0-2.973l-7.548-4.358a5.692 5.692 0 0 0-5.149 0l-7.548 4.358c-1.422.821-1.422 2.155 0 2.973z" class="cls-22" data-name="Path 3183" transform="translate(-600.47 -375.754)"/>
                    <path id="Path_3184" d="M634.386 414.982l7.547 4.358a5.7 5.7 0 0 0 5.151 0l7.547-4.358c1.422-.821 1.422-2.153 0-2.973l-7.547-4.358a5.7 5.7 0 0 0-5.151 0l-7.547 4.358c-1.423.821-1.423 2.152 0 2.973z" class="cls-23" data-name="Path 3184" transform="translate(-602.773 -371.765)"/>
                </g>
            </g>
        </g>
        <g id="Group_15723" data-name="Group 15723" transform="translate(504.794 343.489)">
            <g id="Group_15721" data-name="Group 15721">
                <path id="Path_3185" d="M632.874 390.842l-19.943 11.514-138.184-79.78 19.943-11.514z" class="cls-6" data-name="Path 3185" transform="translate(-474.747 -305.877)"/>
                <path id="Path_3186" d="M500.661 306.659l138.184 79.78-8.979 5.184-138.183-79.78z" class="cls-19" data-name="Path 3186" transform="translate(-471.739 -306.659)"/>
            </g>
            <path id="Path_3187" d="M474.747 325.808l138.184 79.78v-4.968l-138.184-79.781z" class="cls-4" data-name="Path 3187" transform="translate(-474.747 -304.141)"/>
            <path id="Path_3188" d="M621.016 374.41l-28.922 16.7v4.968l28.922-16.7z" class="cls-19" data-name="Path 3188" transform="translate(-453.91 -294.629)"/>
            <g id="Group_15722" data-name="Group 15722" transform="translate(10.087 17.143)">
                <path id="Path_3189" d="M567.9 368.566l-5.672 3.274-1.823-1.052 5.672-3.275z" class="cls-19" data-name="Path 3189" transform="translate(-469.624 -312.996)"/>
                <path id="Path_3190" d="M562.979 361.833l-9.317 5.379-1.822-1.052 9.317-5.379z" class="cls-19" data-name="Path 3190" transform="translate(-471.145 -314.192)"/>
                <path id="Path_3191" d="M550.768 358.675l-5.672 3.274-1.822-1.052 5.672-3.274z" class="cls-19" data-name="Path 3191" transform="translate(-472.666 -314.753)"/>
                <path id="Path_3192" d="M580.111 371.724l-9.317 5.379-1.823-1.052 9.317-5.379z" class="cls-19" data-name="Path 3192" transform="translate(-468.103 -312.436)"/>
                <path id="Path_3193" d="M597.244 381.616L587.927 387l-1.823-1.052 9.317-5.379z" class="cls-19" data-name="Path 3193" transform="translate(-465.061 -310.679)"/>
                <path id="Path_3194" d="M585.031 378.457l-5.672 3.275-1.823-1.052 5.672-3.274z" class="cls-19" data-name="Path 3194" transform="translate(-466.582 -311.24)"/>
                <path id="Path_3195" d="M545.848 351.942l-9.317 5.379-1.823-1.052 9.317-5.379z" class="cls-19" data-name="Path 3195" transform="translate(-474.187 -315.948)"/>
                <path id="Path_3196" d="M499.372 329l-5.671 3.274-1.823-1.052 5.672-3.274z" class="cls-19" data-name="Path 3196" transform="translate(-481.792 -320.021)"/>
                <path id="Path_3197" d="M494.452 322.269l-9.317 5.379-1.822-1.052 9.317-5.379z" class="cls-19" data-name="Path 3197" transform="translate(-483.312 -321.217)"/>
                <path id="Path_3198" d="M533.636 348.784l-5.671 3.274-1.823-1.052 5.672-3.274z" class="cls-19" data-name="Path 3198" transform="translate(-475.708 -316.509)"/>
                <path id="Path_3199" d="M511.583 332.16l-9.317 5.379-1.823-1.052 9.317-5.379z" class="cls-19" data-name="Path 3199" transform="translate(-480.271 -319.461)"/>
                <path id="Path_3200" d="M528.716 342.051l-9.316 5.379-1.823-1.052 9.316-5.378z" class="cls-19" data-name="Path 3200" transform="translate(-477.229 -317.704)"/>
                <path id="Path_3201" d="M516.5 338.893l-5.671 3.274-1.823-1.052 5.672-3.274z" class="cls-19" data-name="Path 3201" transform="translate(-478.75 -318.265)"/>
            </g>
        </g>
        <g id="Group_15725" data-name="Group 15725" transform="translate(706.279 280.482)">
            <g id="Group_15724" data-name="Group 15724" transform="translate(0 43.963)">
                <path id="Path_3202" d="M708.207 348.611l8.53-38.434H646.1l8.53 38.434z" class="cls-5" data-name="Path 3202" transform="translate(-645.807 -286.99)"/>
                <path id="Path_3203" d="M706.641 325.584c-13.907 8.029-36.454 8.029-50.361 0s-13.907-21.046 0-29.075 36.454-8.029 50.361 0 13.906 21.045 0 29.075z" class="cls-4" data-name="Path 3203" transform="translate(-645.851 -290.486)"/>
                <path id="Path_3204" d="M680.926 327.518c-8.9 0-17.21-1.97-23.405-5.545-5.58-3.223-8.653-7.293-8.653-11.462s3.072-8.241 8.653-11.462c6.2-3.575 14.506-5.545 23.405-5.545s17.209 1.97 23.4 5.545c5.581 3.222 8.653 7.294 8.653 11.464s-3.072 8.238-8.653 11.461c-6.191 3.574-14.503 5.544-23.4 5.544z" class="cls-5" data-name="Path 3204" transform="translate(-645.315 -289.951)"/>
                <path id="Path_3205" d="M704.132 307c-6.2-3.576-14.506-5.546-23.4-5.546s-17.21 1.97-23.405 5.546a19.293 19.293 0 0 0-7.341 6.783 19.3 19.3 0 0 0 7.341 6.784c6.2 3.575 14.506 5.545 23.405 5.545s17.209-1.97 23.4-5.545a19.284 19.284 0 0 0 7.341-6.783 19.277 19.277 0 0 0-7.341-6.784z" class="cls-17" data-name="Path 3205" transform="translate(-645.117 -288.54)"/>
                <ellipse id="Ellipse_511" cx="27.01" cy="15.594" class="cls-5" data-name="Ellipse 511" rx="27.01" ry="15.594" transform="translate(8.6 44.034)"/>
            </g>
            <path id="Path_3206" d="M674.1 291.2v23.962a1.166 1.166 0 0 0 .685.957 3.669 3.669 0 0 0 3.315 0 1.168 1.168 0 0 0 .687-.957V291.2z" class="cls-19" data-name="Path 3206" transform="translate(-640.835 -246.397)"/>
            <path id="Path_3207" d="M712.149 282.159a31.333 31.333 0 1 1-62.666 0 21 21 0 0 1 .457-4.084c6.674-33.229 55.078-33.229 61.752 0a20.91 20.91 0 0 1 .457 4.084z" class="cls-24" data-name="Path 3207" transform="translate(-645.206 -253.153)"/>
        </g>
        <g id="Group_15726" data-name="Group 15726" transform="translate(519.942 432.43)">
            <path id="Path_3208" d="M491.407 393.713c-2.515-1.452-3.772-3.362-3.767-5.27l-.029 10.59c-.006 1.906 1.251 3.816 3.767 5.27l6.1 3.523.029-10.59z" class="cls-6" data-name="Path 3208" transform="translate(-487.611 -381.079)"/>
            <path id="Path_3209" d="M514.032 387.022L514 397.611l-18.01 10.466.03-10.589z" class="cls-25" data-name="Path 3209" transform="translate(-486.123 -381.332)"/>
            <path id="Path_3210" d="M515.516 387.88l-18.011 10.466-6.1-3.522c-5-2.887-5.027-7.58-.06-10.466s13.07-2.887 18.07 0z" class="cls-4" data-name="Path 3210" transform="translate(-487.606 -382.19)"/>
            <path id="Path_3211" d="M524.7 393.18l-.03 10.589-18.01 10.466.03-10.589z" class="cls-26" data-name="Path 3211" transform="translate(-484.229 -380.238)"/>
            <path id="Path_3212" d="M508.581 403.161l-.03 10.589-12.559-7.25.03-10.589z" class="cls-23" data-name="Path 3212" transform="translate(-486.123 -379.753)"/>
            <path id="Path_3213" d="M526.587 394.273l-18.01 10.466-12.559-7.251 18.01-10.466z" class="cls-23" data-name="Path 3213" transform="translate(-486.118 -381.332)"/>
            <path id="Path_3214" d="M530.858 405.844c-4.967 2.886-13.068 2.886-18.068 0l-6.1-3.523-.031 10.589 6.1 3.523c5 2.887 13.1 2.887 18.07 0 2.472-1.437 3.707-3.315 3.713-5.2l.029-10.59c-.005 1.884-1.241 3.764-3.713 5.201z" class="cls-19" data-name="Path 3214" transform="translate(-484.229 -378.912)"/>
            <path id="Path_3215" d="M530.795 396.7c5 2.886 5.039 7.572.059 10.466s-13.069 2.886-18.068 0l-6.1-3.523 18.009-10.466z" class="cls-5" data-name="Path 3215" transform="translate(-484.224 -380.238)"/>
        </g>
        <g id="Group_15758" data-name="Group 15758" transform="translate(417.239 411.898)">
            <g id="Group_15749" data-name="Group 15749">
                <g id="Group_15748" data-name="Group 15748">
                    <g id="Group_15729" data-name="Group 15729" transform="translate(71.994 12.789)">
                        <g id="Group_15728" class="cls-27" data-name="Group 15728">
                            <g id="Group_15727" data-name="Group 15727" transform="translate(-9.844 -5.774)">
                                <path id="Path_3216" d="M469.042 388.082l-.02 6.812c.015-5.38-3.535-10.77-10.65-14.877a39.231 39.231 0 0 0-5.2-2.494l.019-6.812a39.177 39.177 0 0 1 5.2 2.494c7.114 4.106 10.665 9.5 10.65 14.877" class="cls-28" data-name="Path 3216" transform="translate(-453.172 -370.711)"/>
                            </g>
                        </g>
                    </g>
                    <g id="Group_15732" data-name="Group 15732" transform="translate(74.006 14.785)">
                        <g id="Group_15731" class="cls-29" data-name="Group 15731">
                            <g id="Group_15730" data-name="Group 15730" transform="translate(-11.856 -7.77)">
                                <path id="Path_3218" d="M469.042 388.082l-.02 6.812c.015-5.38-3.535-10.77-10.65-14.877a39.231 39.231 0 0 0-5.2-2.494l.019-6.812a39.177 39.177 0 0 1 5.2 2.494c7.114 4.106 10.665 9.5 10.65 14.877" class="cls-28" data-name="Path 3218" transform="translate(-453.172 -370.711)"/>
                            </g>
                        </g>
                    </g>
                    <g id="Group_15735" data-name="Group 15735" transform="translate(75.315 16.424)">
                        <g id="Group_15734" class="cls-30" data-name="Group 15734">
                            <g id="Group_15733" data-name="Group 15733" transform="translate(-13.166 -9.409)">
                                <path id="Path_3220" d="M469.042 388.082l-.02 6.812c.015-5.38-3.535-10.77-10.65-14.877a39.231 39.231 0 0 0-5.2-2.494l.019-6.812a39.177 39.177 0 0 1 5.2 2.494c7.114 4.106 10.665 9.5 10.65 14.877" class="cls-28" data-name="Path 3220" transform="translate(-453.172 -370.711)"/>
                            </g>
                        </g>
                    </g>
                    <g id="Group_15738" data-name="Group 15738" transform="translate(76.404 18.212)">
                        <g id="Group_15737" class="cls-31" data-name="Group 15737">
                            <g id="Group_15736" data-name="Group 15736" transform="translate(-14.255 -11.196)">
                                <path id="Path_3222" d="M469.042 388.082l-.02 6.812c.015-5.38-3.535-10.77-10.65-14.877a39.231 39.231 0 0 0-5.2-2.494l.019-6.812a39.177 39.177 0 0 1 5.2 2.494c7.114 4.106 10.665 9.5 10.65 14.877" class="cls-28" data-name="Path 3222" transform="translate(-453.172 -370.711)"/>
                            </g>
                        </g>
                    </g>
                    <g id="Group_15741" data-name="Group 15741" transform="translate(77.317 20.296)">
                        <g id="Group_15740" class="cls-32" data-name="Group 15740">
                            <g id="Group_15739" data-name="Group 15739" transform="translate(-15.168 -13.281)">
                                <path id="Path_3224" d="M469.042 388.082l-.02 6.812c.015-5.38-3.535-10.77-10.65-14.877a39.231 39.231 0 0 0-5.2-2.494l.019-6.812a39.177 39.177 0 0 1 5.2 2.494c7.114 4.106 10.665 9.5 10.65 14.877" class="cls-28" data-name="Path 3224" transform="translate(-453.172 -370.711)"/>
                            </g>
                        </g>
                    </g>
                    <path id="Path_3226" d="M471.524 377.031c-.446-.39-.954-.762-1.45-1.138-.24-.181-.449-.371-.7-.549q-1.164-.825-2.494-1.593a39.168 39.168 0 0 0-5.2-2.494c-.094-.037-.2-.062-.293-.1-.291-.112-.6-.2-.9-.3-1.048-.38-2.094-.765-3.189-1.076-.59-.168-1.2-.3-1.806-.444-.345-.085-.682-.173-1.029-.252-.312-.071-.612-.161-.927-.227q-1.766-.366-3.577-.622c-.427-.06-.862-.093-1.292-.145-.3-.035-.6-.069-.9-.1-.439-.046-.874-.111-1.315-.147q-1.77-.147-3.554-.191c-.372-.009-.745.008-1.117.006h-.964c-.539 0-1.078-.011-1.616.008q-2.01.069-4 .266c-.152.015-.3.047-.452.064-.357.038-.7.1-1.059.147-1.035.13-2.075.247-3.092.431-.449.08-.858.233-1.3.324a50.945 50.945 0 0 0-3.607.9c-.63.177-1.3.278-1.919.478-.506.164-.974.377-1.47.556-.472.171-.935.344-1.4.529a38.858 38.858 0 0 0-5.035 2.389c-.148.086-.3.173-.44.26-.333.2-.617.417-.934.623-.438.285-.887.566-1.293.862-.359.263-.682.533-1.016.8-.374.3-.758.6-1.1.91-.07.064-.155.121-.225.185-.14.131-.238.271-.373.4a20.784 20.784 0 0 0-1.53 1.644c-.1.122-.237.237-.334.359s-.155.246-.246.366c-.312.417-.589.838-.851 1.263-.108.177-.253.347-.353.525-.051.09-.079.181-.127.271-.2.373-.365.75-.529 1.128-.094.218-.223.432-.3.651-.027.074-.038.151-.064.225-.127.356-.214.715-.308 1.075-.065.244-.161.485-.211.731-.013.065-.011.13-.022.2-.07.374-.094.75-.128 1.127-.022.248-.078.5-.086.747v.316l-.019 6.813c0-.351.058-.7.088-1.052.034-.38.061-.761.131-1.14.057-.307.151-.613.231-.92.094-.36.183-.722.31-1.08.1-.294.244-.585.37-.877.164-.377.327-.754.529-1.126.144-.268.317-.531.48-.8.261-.425.539-.848.85-1.264.184-.245.382-.485.582-.725a20.785 20.785 0 0 1 1.528-1.645c.2-.2.385-.394.6-.588.345-.31.728-.609 1.1-.91.334-.268.657-.541 1.016-.8.406-.3.855-.577 1.293-.863.455-.3.885-.6 1.374-.883a38.757 38.757 0 0 1 5.034-2.388c.46-.185.927-.359 1.4-.53 1.094-.4 2.242-.711 3.389-1.034a53.679 53.679 0 0 1 3.607-.9c1.445-.3 2.9-.568 4.39-.755.357-.045.707-.11 1.066-.148 2-.214 4.033-.32 6.064-.337.324 0 .648-.007.97 0a61.844 61.844 0 0 1 6.883.432 57.135 57.135 0 0 1 5.8.993c.346.079.685.168 1.027.252a49.084 49.084 0 0 1 5 1.521c.293.106.6.19.894.3a39.409 39.409 0 0 1 5.495 2.593q1.332.768 2.494 1.593c.234.166.429.343.652.511 4.992 3.762 7.516 8.265 7.5 12.773l.02-6.812c-.002-4.039-2.006-8.088-6.021-11.592z" class="cls-33" data-name="Path 3226" transform="translate(-399.512 -364.239)"/>
                    <g id="Group_15742" data-name="Group 15742" transform="translate(5.869 3.391)">
                        <path id="Path_3227" d="M466.878 373.752c14.14 8.163 14.2 21.393.166 29.55s-36.876 8.164-51.017 0-14.214-21.386-.166-29.55 36.887-8.159 51.017 0z" class="cls-34" data-name="Path 3227" transform="translate(-405.378 -367.633)"/>
                    </g>
                    <g id="Group_15745" data-name="Group 15745" transform="translate(5.85 24.181)">
                        <g id="Group_15744" class="cls-35" data-name="Group 15744">
                            <g id="Group_15743" data-name="Group 15743">
                                <path id="Path_3228" d="M466.653 385.463l-.02 6.812v.317l.019-6.812c0-.106.006-.212.006-.317" class="cls-36" data-name="Path 3228" transform="translate(-394.484 -385.257)"/>
                                <path id="Path_3229" d="M466.682 385.732l-.019 6.812a12.344 12.344 0 0 1-.237 2.07l.02-6.813a12.2 12.2 0 0 0 .236-2.069" class="cls-37" data-name="Path 3229" transform="translate(-394.519 -385.209)"/>
                                <path id="Path_3230" d="M466.535 387.489l-.02 6.813a13 13 0 0 1-.583 2.03l.02-6.812a13.139 13.139 0 0 0 .583-2.031" class="cls-38" data-name="Path 3230" transform="translate(-394.607 -384.897)"/>
                                <path id="Path_3231" d="M466.1 389.214l-.02 6.812a14.585 14.585 0 0 1-.961 2.051l.02-6.812a14.643 14.643 0 0 0 .961-2.051" class="cls-39" data-name="Path 3231" transform="translate(-394.752 -384.591)"/>
                                <path id="Path_3232" d="M465.355 390.956l-.02 6.812a16.958 16.958 0 0 1-1.452 2.156l.02-6.813a17.2 17.2 0 0 0 1.452-2.155" class="cls-40" data-name="Path 3232" transform="translate(-394.971 -384.282)"/>
                                <path id="Path_3233" d="M464.24 392.786l-.02 6.813a20.746 20.746 0 0 1-2.237 2.406l.019-6.813a20.664 20.664 0 0 0 2.239-2.406" class="cls-41" data-name="Path 3233" transform="translate(-395.308 -383.957)"/>
                                <path id="Path_3234" d="M462.69 394.829l-.019 6.813a27.991 27.991 0 0 1-4.568 3.383l.019-6.813a27.869 27.869 0 0 0 4.568-3.383" class="cls-42" data-name="Path 3234" transform="translate(-395.997 -383.594)"/>
                                <path id="Path_3235" d="M459.382 397.7l-.019 6.813-.44.26a40.886 40.886 0 0 1-7.913 3.478l.02-6.812a40.776 40.776 0 0 0 7.912-3.48c.148-.086.294-.173.44-.26" class="cls-43" data-name="Path 3235" transform="translate(-397.257 -383.084)"/>
                                <path id="Path_3236" d="M452.06 400.878l-.02 6.812a52.139 52.139 0 0 1-6.829 1.7l.019-6.812a52.161 52.161 0 0 0 6.83-1.7" class="cls-42" data-name="Path 3236" transform="translate(-398.286 -382.52)"/>
                                <path id="Path_3237" d="M445.923 402.322l-.019 6.812a58.837 58.837 0 0 1-4.6.641l.019-6.812a58.704 58.704 0 0 0 4.6-.641" class="cls-41" data-name="Path 3237" transform="translate(-398.98 -382.263)"/>
                                <path id="Path_3238" d="M441.927 402.866l-.019 6.812q-1.987.2-4 .267l.02-6.813a61.917 61.917 0 0 0 4-.266" class="cls-40" data-name="Path 3238" transform="translate(-399.583 -382.167)"/>
                                <path id="Path_3239" d="M438.487 403.092l-.02 6.813q-1.844.062-3.692.017l.019-6.812q1.846.046 3.693-.018" class="cls-39" data-name="Path 3239" transform="translate(-400.139 -382.127)"/>
                                <path id="Path_3240" d="M435.329 403.136l-.019 6.812q-1.78-.044-3.55-.19l.019-6.813c1.179.1 2.365.161 3.55.191" class="cls-38" data-name="Path 3240" transform="translate(-400.675 -382.153)"/>
                                <path id="Path_3241" d="M432.307 403l-.019 6.813q-1.765-.147-3.506-.392l.02-6.813q1.738.247 3.5.392" class="cls-37" data-name="Path 3241" transform="translate(-401.203 -382.212)"/>
                                <path id="Path_3242" d="M429.342 402.706l-.02 6.813q-1.809-.256-3.575-.622l.02-6.812q1.765.366 3.575.621" class="cls-36" data-name="Path 3242" transform="translate(-401.742 -382.306)"/>
                                <path id="Path_3243" d="M426.334 402.224l-.02 6.812q-1.915-.4-3.762-.922l.019-6.813q1.844.526 3.764.923" class="cls-44" data-name="Path 3243" transform="translate(-402.31 -382.445)"/>
                                <path id="Path_3244" d="M423.232 401.524l-.019 6.813a47.16 47.16 0 0 1-4.383-1.48l.019-6.812a47.357 47.357 0 0 0 4.383 1.479" class="cls-45" data-name="Path 3244" transform="translate(-402.971 -382.668)"/>
                                <path id="Path_3245" d="M421.24 402.665l-.019 6.812a39.231 39.231 0 0 1-5.209-2.5c-7.111-4.106-10.665-9.5-10.65-14.88l.019-6.812c-.015 5.383 3.539 10.774 10.65 14.878a39.158 39.158 0 0 0 5.21 2.5" class="cls-46" data-name="Path 3245" transform="translate(-405.362 -385.288)"/>
                            </g>
                        </g>
                    </g>
                    <g id="Group_15746" data-name="Group 15746" transform="translate(0 24.164)">
                        <path id="Path_3247" d="M471.62 385.478l-.019 6.812c0 .122 0 .246-.006.369l.019-6.813c0-.122.006-.245.006-.367" class="cls-33" data-name="Path 3247" transform="translate(-387.752 -385.238)"/>
                        <path id="Path_3248" d="M471.655 385.79l-.019 6.813a14.377 14.377 0 0 1-.276 2.406l.02-6.812a14.376 14.376 0 0 0 .274-2.407" class="cls-47" data-name="Path 3248" transform="translate(-387.793 -385.182)"/>
                        <path id="Path_3249" d="M471.483 387.834l-.02 6.812a15.131 15.131 0 0 1-.677 2.361l.019-6.813a15.257 15.257 0 0 0 .678-2.36" class="cls-48" data-name="Path 3249" transform="translate(-387.895 -384.819)"/>
                        <path id="Path_3250" d="M470.973 389.838l-.019 6.813a16.889 16.889 0 0 1-1.117 2.383l.02-6.812a17.1 17.1 0 0 0 1.116-2.385" class="cls-49" data-name="Path 3250" transform="translate(-388.064 -384.464)"/>
                        <path id="Path_3251" d="M470.111 391.863l-.02 6.812a19.864 19.864 0 0 1-1.686 2.506l.019-6.813a19.758 19.758 0 0 0 1.688-2.5" class="cls-50" data-name="Path 3251" transform="translate(-388.318 -384.104)"/>
                        <path id="Path_3252" d="M468.816 393.99l-.016 6.81a24.238 24.238 0 0 1-2.6 2.8l.02-6.812a24.222 24.222 0 0 0 2.6-2.8" class="cls-51" data-name="Path 3252" transform="translate(-388.71 -383.726)"/>
                        <path id="Path_3253" d="M467.016 396.365l-.02 6.812a32.412 32.412 0 0 1-5.307 3.93l.02-6.812a32.525 32.525 0 0 0 5.307-3.93" class="cls-52" data-name="Path 3253" transform="translate(-389.511 -383.305)"/>
                        <path id="Path_3254" d="M463.171 399.7l-.02 6.812q-.253.152-.511.3a47.361 47.361 0 0 1-9.185 4.039l.019-6.813a47.328 47.328 0 0 0 9.185-4.038c.173-.1.343-.2.512-.3" class="cls-53" data-name="Path 3254" transform="translate(-390.973 -382.712)"/>
                        <path id="Path_3255" d="M400.394 392.087l.011-3.407.009-3.407a15.129 15.129 0 0 0 1.729 6.963c1.931 3.781 5.48 7.347 10.646 10.33.987.57 2.014 1.1 3.071 1.6.09.044.186.079.277.121.988.459 2 .9 3.036 1.3.241.093.487.178.731.267q1.252.463 2.546.87c.294.092.588.187.886.274.546.163 1.109.3 1.665.448.86.227 1.725.446 2.6.638a64.35 64.35 0 0 0 1.738.352c.736.14 1.478.271 2.224.386q.933.145 1.871.265 1.044.132 2.1.234a71.605 71.605 0 0 0 4.06.275c.642.025 1.282.044 1.924.053a88.258 88.258 0 0 0 4.119-.062 74.15 74.15 0 0 0 2.836-.188c.562-.047 1.126-.081 1.684-.141.284-.031.566-.067.85-.1q1.461-.175 2.9-.411c.237-.039.476-.072.711-.113.57-.1 1.126-.228 1.687-.343.778-.157 1.559-.311 2.322-.5.556-.134 1.1-.293 1.644-.442.727-.2 1.454-.394 2.163-.617a47.816 47.816 0 0 0 9.648-4.171c8.106-4.711 12.164-10.877 12.182-17.052l-.019 6.812c-.018 6.175-4.076 12.342-12.182 17.052a47.468 47.468 0 0 1-9.185 4.012v.027c-.151.048-.312.085-.464.132-.709.224-1.434.419-2.16.617-.549.15-1.09.309-1.647.443-.763.185-1.541.339-2.32.5-.451.091-.891.2-1.347.287-.112.02-.228.034-.341.054-.237.041-.475.075-.712.114q-1.44.237-2.9.41c-.284.034-.565.071-.85.1-.181.02-.36.047-.543.065-.377.038-.761.045-1.14.077a68.39 68.39 0 0 1-2.836.188c-.226.011-.449.038-.675.046-.382.013-.763 0-1.145 0-.765.014-1.53.021-2.3.011-.286 0-.571.011-.856 0-.357-.008-.711-.042-1.068-.057q-1.063-.042-2.123-.113c-.312-.022-.628-.025-.94-.051-.334-.028-.664-.079-1-.112-.7-.067-1.4-.145-2.1-.234-.326-.041-.658-.064-.983-.109-.3-.042-.59-.108-.888-.154a70.314 70.314 0 0 1-2.226-.387c-.346-.066-.7-.111-1.043-.181-.236-.049-.46-.119-.694-.17a59.81 59.81 0 0 1-2.6-.639c-.354-.094-.724-.162-1.075-.263-.2-.058-.392-.125-.591-.184-.3-.088-.59-.183-.884-.276q-1.295-.406-2.547-.869c-.243-.091-.49-.174-.73-.267-.112-.044-.227-.08-.338-.124v-.02.02a45.534 45.534 0 0 1-6.047-2.9 28.623 28.623 0 0 1-9.293-8.089 17.358 17.358 0 0 1-2.432-5 14.57 14.57 0 0 1-.646-4.19z" class="cls-18" data-name="Path 3255" transform="translate(-400.394 -385.274)"/>
                    </g>
                    <g id="Group_15747" data-name="Group 15747" transform="translate(.02)">
                        <path id="Path_3256" d="M471.884 371.865c16.425 9.483 16.511 24.862.193 34.345s-42.868 9.483-59.291 0-16.511-24.862-.194-34.345 42.868-9.483 59.292 0zm-54.974 31.948c14.141 8.164 36.968 8.164 51.017 0s13.974-21.387-.166-29.55-36.979-8.158-51.017 0-13.963 21.393.166 29.55" class="cls-17" data-name="Path 3256" transform="translate(-400.411 -364.753)"/>
                    </g>
                </g>
            </g>
            <g id="Group_15750" data-name="Group 15750" transform="translate(14.11 14.473)">
                <path id="Path_3257" d="M427.9 378.589c3.57 2.061 3.587 5.4.042 7.461a14.193 14.193 0 0 1-12.881 0c-3.568-2.06-3.589-5.4-.042-7.461a14.2 14.2 0 0 1 12.881 0z" class="cls-18" data-name="Path 3257" transform="translate(-412.376 -377.044)"/>
            </g>
            <g id="Group_15757" data-name="Group 15757" transform="translate(67.34 42.595)">
                <g id="Group_15753" data-name="Group 15753">
                    <g id="Group_15752" data-name="Group 15752">
                        <path id="Path_3258" d="M491.524 418.09h.047a1.887 1.887 0 0 1 .519.027h.025a1.624 1.624 0 0 1 .466.177l-.011-.006.011.006-29.512-17.15-.018-.011a1.574 1.574 0 0 0-.162-.079 1.379 1.379 0 0 0-.169-.06c-.038-.011-.077-.018-.115-.027l-.026-.006c-.014 0-.027-.007-.04-.008a1.755 1.755 0 0 0-.194-.024 1.849 1.849 0 0 0-.214 0 .684.684 0 0 0-.069.007h-.048c-.04 0-.08.006-.122.012a2.87 2.87 0 0 0-.283.06c-.04.012-.082.029-.122.042l-.113.039c-.048.018-.094.029-.144.051a3.809 3.809 0 0 0-.45.224 5.288 5.288 0 0 0-.971.751c-.032.031-.068.047-.1.078s-.082.09-.125.133-.069.074-.1.112-.08.082-.119.126a5.84 5.84 0 0 0-.259.317c-.032.04-.061.082-.092.124l-.044.06a3.206 3.206 0 0 1-.078.1 8.367 8.367 0 0 0-.351.549l-.019.032-.014.027a7.158 7.158 0 0 0-.257.484c-.045.092-.084.18-.124.27v.006c-.042.1-.081.193-.119.29s-.074.2-.109.3c-.018.054-.033.109-.049.164l-.019.064-.032.1a6.262 6.262 0 0 0-.091.371c-.016.077-.027.153-.039.23l-.02.115c-.006.037-.014.069-.019.1a5.064 5.064 0 0 0-.041.634 2.266 2.266 0 0 0 .941 2.074l29.511 17.15a2.265 2.265 0 0 1-.94-2.074 4.837 4.837 0 0 1 .059-.738 4.61 4.61 0 0 1 .02-.115 6.146 6.146 0 0 1 .161-.7l.02-.066a7.063 7.063 0 0 1 .28-.762 7.831 7.831 0 0 1 .38-.757l.013-.024a7.914 7.914 0 0 1 .449-.687l.042-.059a7.147 7.147 0 0 1 .471-.569l.1-.109c.073-.077.151-.14.225-.211a5.323 5.323 0 0 1 .971-.753 3.74 3.74 0 0 1 .595-.274l.113-.027a2.6 2.6 0 0 1 .524-.11z" class="cls-5" data-name="Path 3258" transform="translate(-457.58 -400.926)"/>
                        <g id="Group_15751" data-name="Group 15751" transform="translate(29.512 17.15)">
                            <path id="Path_3259" d="M485.839 415.931c1.778-1.027 3.226-.2 3.232 1.842a7.081 7.081 0 0 1-3.211 5.562c-1.778 1.026-3.212.193-3.218-1.85a7.05 7.05 0 0 1 3.197-5.554z" class="cls-54" data-name="Path 3259" transform="translate(-482.642 -415.49)"/>
                        </g>
                    </g>
                </g>
                <g id="Group_15756" data-name="Group 15756" transform="translate(19.564 9.753)">
                    <g id="Group_15755" data-name="Group 15755">
                        <path id="Path_3260" d="M516.949 430.838a3.968 3.968 0 0 1 .792-.172c.023 0 .047-.006.069-.007a2.859 2.859 0 0 1 .777.04l.04.009a2.385 2.385 0 0 1 .7.264l-36.888-21.437-.027-.015a2.347 2.347 0 0 0-.244-.119 2.242 2.242 0 0 0-.256-.089c-.055-.016-.114-.028-.172-.04l-.039-.009c-.02 0-.04-.009-.06-.014-.1-.016-.193-.027-.292-.034s-.212-.007-.32 0c-.034 0-.069.008-.1.011s-.047 0-.071.007c-.061.006-.122.009-.186.019a3.7 3.7 0 0 0-.424.091c-.059.015-.121.044-.181.062s-.112.038-.168.058c-.073.026-.142.045-.217.075a5.661 5.661 0 0 0-.672.334 7.526 7.526 0 0 0-.909.63c-.1.077-.187.166-.283.247-.141.124-.286.239-.423.372-.062.062-.121.132-.184.2l-.16.171c-.053.058-.124.127-.183.2q-.2.23-.391.476c-.045.058-.087.119-.131.178l-.067.091c-.041.057-.084.11-.124.166q-.143.205-.278.417c-.086.134-.17.27-.25.407l-.022.04-.018.033a10.483 10.483 0 0 0-.393.743c-.066.138-.12.256-.177.384l-.008.019-.007.016c-.062.144-.121.288-.177.432s-.113.3-.165.457c-.026.078-.047.155-.071.234a1.19 1.19 0 0 0-.029.1c-.016.053-.034.107-.049.16-.052.185-.1.371-.135.555-.025.113-.039.225-.059.338-.009.058-.021.115-.029.173s-.02.106-.027.159a7.2 7.2 0 0 0-.061.944 3.381 3.381 0 0 0 1.4 3.1l36.889 21.439a3.382 3.382 0 0 1-1.4-3.1 7.421 7.421 0 0 1 .088-1.1c.008-.058.02-.115.029-.174a8.994 8.994 0 0 1 .244-1.05l.029-.1a11.174 11.174 0 0 1 .419-1.14l.007-.013a11.552 11.552 0 0 1 .571-1.132l.018-.032a11.575 11.575 0 0 1 .674-1.032l.066-.091a10.764 10.764 0 0 1 .706-.849c.052-.058.1-.113.158-.17.2-.2.4-.389.61-.57.093-.081.185-.17.28-.246a7.487 7.487 0 0 1 .909-.63 5.541 5.541 0 0 1 .89-.41.531.531 0 0 1 .162-.076z" class="cls-17" data-name="Path 3260" transform="translate(-474.194 -409.208)"/>
                        <g id="Group_15754" data-name="Group 15754" transform="translate(36.889 21.438)">
                            <path id="Path_3261" d="M510.33 428.073c2.66-1.536 4.833-.3 4.841 2.759a10.591 10.591 0 0 1-4.809 8.33c-2.674 1.544-4.833.313-4.841-2.758a10.593 10.593 0 0 1 4.809-8.331z" class="cls-18" data-name="Path 3261" transform="translate(-505.521 -427.414)"/>
                        </g>
                    </g>
                </g>
            </g>
        </g>
        <g id="Group_15776" data-name="Group 15776" transform="translate(305.523 232.741)">
            <g id="Group_15762" data-name="Group 15762" transform="translate(58.91 28.268)">
                <g id="Group_15761" data-name="Group 15761">
                    <g id="Group_15759" data-name="Group 15759" transform="translate(0 38.276)">
                        <path id="Path_3262" d="M488.549 269.5l-.192 67.763c-.027 9.78-6.455 19.544-19.294 27-25.85 15.023-67.893 15.023-93.913 0-13.091-7.558-19.629-17.48-19.6-27.385l.192-67.761c-.028 9.906 6.51 19.827 19.6 27.384 26.019 15.022 68.063 15.022 93.913 0 12.839-7.458 19.267-17.223 19.294-27.001z" class="cls-55" data-name="Path 3262" transform="translate(-355.55 -269.12)"/>
                    </g>
                    <g id="Group_15760" data-name="Group 15760" transform="translate(.192)">
                        <path id="Path_3263" d="M468.915 247.879c26.019 15.023 26.157 39.376.311 54.4s-67.893 15.022-93.913 0-26.152-39.373-.3-54.395 67.887-15.023 93.902-.005z" class="cls-55" data-name="Path 3263" transform="translate(-355.713 -236.616)"/>
                    </g>
                </g>
            </g>
            <path id="Path_3264" d="M459.167 296.447c-12.9 7.5-29.839 11.253-46.8 11.266v67.759c16.9-.041 33.758-3.793 46.612-11.263 12.839-7.461 19.267-17.225 19.294-27l.192-67.763c-.03 9.775-6.458 19.54-19.298 27.001z" class="cls-7" data-name="Path 3264" transform="translate(-286.552 -202.519)"/>
            <g id="Group_15767" data-name="Group 15767">
                <g id="Group_15766" data-name="Group 15766">
                    <g id="Group_15763" data-name="Group 15763" transform="translate(.016)">
                        <path id="Path_3265" d="M556.34 285.247l-124.993 72.638-125.811-72.637 124.993-72.638z" class="cls-56" data-name="Path 3265" transform="translate(-305.536 -212.61)"/>
                    </g>
                    <g id="Group_15764" data-name="Group 15764" transform="translate(125.811 72.637)">
                        <path id="Path_3266" d="M537.372 274.294l-.016 5.554-124.993 72.639.016-5.554z" class="cls-55" data-name="Path 3266" transform="translate(-412.363 -274.294)"/>
                    </g>
                    <g id="Group_15765" data-name="Group 15765" transform="translate(0 72.638)">
                        <path id="Path_3267" d="M431.349 346.932l-.016 5.554-125.81-72.636.016-5.554z" class="cls-7" data-name="Path 3267" transform="translate(-305.523 -274.295)"/>
                    </g>
                </g>
            </g>
            <g id="Group_15768" data-name="Group 15768" transform="translate(184.808 163.707)">
                <path id="Path_3268" d="M469.472 352.329c1.61.929 1.624 2.439.025 3.368a6.415 6.415 0 0 1-5.821 0c-1.609-.929-1.618-2.436-.013-3.368a6.4 6.4 0 0 1 5.809 0z" class="cls-57" data-name="Path 3268" transform="translate(-462.464 -351.632)"/>
            </g>
            <g id="Group_15773" data-name="Group 15773" transform="translate(181.908 157.388)">
                <g id="Group_15769" data-name="Group 15769" transform="translate(0 19.214)">
                    <path id="Path_3269" d="M471.952 363.771c2.744 1.585 2.767 4.16.041 5.744a10.943 10.943 0 0 1-9.926 0c-2.744-1.584-2.758-4.154-.022-5.744a10.922 10.922 0 0 1 9.907 0z" class="cls-58" data-name="Path 3269" transform="translate(-460.002 -362.583)"/>
                </g>
                <path id="Path_3270" d="M460 368.205L462.9 354l8.2-.205 2.918 14.414z" class="cls-58" data-name="Path 3270" transform="translate(-460.002 -344.93)"/>
                <g id="Group_15772" data-name="Group 15772" transform="translate(2.882)">
                    <g id="Group_15770" data-name="Group 15770" transform="translate(0 2.373)">
                        <path id="Path_3271" d="M470.689 348.3l-.018 6.465a2.039 2.039 0 0 1-1.191 1.67 6.419 6.419 0 0 1-5.821 0 2.052 2.052 0 0 1-1.212-1.693l.018-6.465a2.057 2.057 0 0 0 1.212 1.693 6.419 6.419 0 0 0 5.821 0 2.036 2.036 0 0 0 1.191-1.67z" class="cls-59" data-name="Path 3271" transform="translate(-462.449 -348.281)"/>
                    </g>
                    <g id="Group_15771" data-name="Group 15771" transform="translate(.018)">
                        <path id="Path_3272" d="M469.472 346.963c1.61.929 1.624 2.44.025 3.369a6.419 6.419 0 0 1-5.821 0c-1.609-.929-1.618-2.436-.013-3.369a6.4 6.4 0 0 1 5.809 0z" class="cls-60" data-name="Path 3272" transform="translate(-462.464 -346.266)"/>
                    </g>
                </g>
            </g>
            <g id="Group_15774" data-name="Group 15774" transform="translate(185.674 100.612)">
                <path id="Path_3273" d="M465.838 298.165l2.881 1.674a1.194 1.194 0 0 0-1.2.119l-2.881-1.674a1.2 1.2 0 0 1 1.2-.119z" class="cls-61" data-name="Path 3273" transform="translate(-462.946 -298.052)"/>
                <path id="Path_3274" d="M469.232 356.511v.15a1.578 1.578 0 0 1-.907 1.192 4.643 4.643 0 0 1-2.48.525l-.2-55.749a3.721 3.721 0 0 1 1.684-2.924 1.592 1.592 0 0 1 .769-.231.714.714 0 0 1 .178.02h.02a.885.885 0 0 1 .137.047.1.1 0 0 1 .041.014l.041.02a1.178 1.178 0 0 1 .517 1.1z" class="cls-62" data-name="Path 3274" transform="translate(-462.765 -297.799)"/>
                <path id="Path_3275" d="M466.081 302.845l-2.882-1.674a3.722 3.722 0 0 1 1.687-2.922l2.881 1.674a3.724 3.724 0 0 0-1.686 2.922z" class="cls-15" data-name="Path 3275" transform="translate(-463.2 -298.017)"/>
            </g>
            <g id="Group_15775" data-name="Group 15775" transform="translate(124.633 65.43)">
                <path id="Path_3276" d="M411.363 269.353l.009 3.332a1.184 1.184 0 0 0 .692.97l-.009-3.332a1.185 1.185 0 0 1-.692-.97z" class="cls-63" data-name="Path 3276" transform="translate(-411.363 -267.965)"/>
                <path id="Path_3277" d="M412.066 268.578a1.033 1.033 0 0 0-.011 1.955l62.5 36.318a3.712 3.712 0 0 0 3.374 0 1.032 1.032 0 0 0 .011-1.954l-62.5-36.319a3.727 3.727 0 0 0-3.374 0z" class="cls-64" data-name="Path 3277" transform="translate(-411.363 -268.174)"/>
                <path id="Path_3278" d="M475.189 309.8v-3.011l-.742-.292-62.5-36.318.011 3.332 60.349 35.071.188 53.043v.219a1.6 1.6 0 0 0 .92 1.212 4.434 4.434 0 0 0 1.963.525z" class="cls-65" data-name="Path 3278" transform="translate(-411.259 -267.819)"/>
            </g>
        </g>
    </g>
</svg>
